<svg width="24" height="24" viewBox="0 0 24 24" fill="none" xmlns="http://www.w3.org/2000/svg">
    <path d="M12 23C13.1819 23 14.3522 22.7672 15.4442 22.3149C16.5361 21.8626 17.5282 21.1997 18.364 20.364C19.1997 19.5282 19.8626 18.5361 20.3149 17.4442C20.7672 16.3522 21 15.1819 21 14C21 12.8181 20.7672 11.6478 20.3149 10.5558C19.8626 9.46392 19.1997 8.47177 18.364 7.63604C17.5282 6.80031 16.5361 6.13738 15.4442 5.68508C14.3522 5.23279 13.1819 5 12 5C9.61305 5 7.32387 5.94821 5.63604 7.63604C3.94821 9.32387 3 11.6131 3 14C3 16.3869 3.94821 18.6761 5.63604 20.364C7.32387 22.0518 9.61305 23 12 23Z" fill="url(#paint0_linear_281_715)"/>
    <path d="M12 9.25C12.1989 9.25 12.3897 9.32902 12.5303 9.46967C12.671 9.61032 12.75 9.80109 12.75 10V14C12.75 14.1989 12.671 14.3897 12.5303 14.5303C12.3897 14.671 12.1989 14.75 12 14.75C11.8011 14.75 11.6103 14.671 11.4697 14.5303C11.329 14.3897 11.25 14.1989 11.25 14V10C11.25 9.80109 11.329 9.61032 11.4697 9.46967C11.6103 9.32902 11.8011 9.25 12 9.25Z" fill="#090653"/>
    <path fill-rule="evenodd" clip-rule="evenodd" d="M9.25 2.75C9.25 2.55109 9.32902 2.36032 9.46967 2.21967C9.61032 2.07902 9.80109 2 10 2H14C14.1989 2 14.3897 2.07902 14.5303 2.21967C14.671 2.36032 14.75 2.55109 14.75 2.75C14.75 2.94891 14.671 3.13968 14.5303 3.28033C14.3897 3.42098 14.1989 3.5 14 3.5H10C9.80109 3.5 9.61032 3.42098 9.46967 3.28033C9.32902 3.13968 9.25 2.94891 9.25 2.75Z" fill="#090653"/>
    <defs>
        <linearGradient id="paint0_linear_281_715" x1="3.36486" y1="5.60811" x2="21" y2="23" gradientUnits="userSpaceOnUse">
            <stop stop-color="#0E8149"/>
            <stop offset="1" stop-color="#88D3D6"/>
        </linearGradient>
    </defs>
</svg>
