<svg width="60" height="62" viewBox="0 0 60 62" fill="none" xmlns="http://www.w3.org/2000/svg">
    <path d="M11.5503 8.0758e-06C11.4118 0.000547852 11.2748 0.0283537 11.1471 0.081838C11.0194 0.135322 10.9035 0.213438 10.8059 0.311724C10.7084 0.41001 10.6312 0.526543 10.5787 0.654667C10.5262 0.782792 10.4995 0.92 10.5 1.05846V4.88864H4.80214C2.15854 4.88864 0 7.05552 0 9.69902V45.3279C0 47.9715 2.15854 50.1301 4.80214 50.1301H13.0494C15.9371 56.6189 22.4447 61.1511 29.9969 61.1511C37.5491 61.1511 44.0587 56.6189 46.9486 50.1301H55.1979C57.8415 50.1301 60 47.9715 60 45.3279V9.69902C60 7.05552 57.8415 4.88864 55.1979 4.88864H49.57V1.05846C49.5705 0.919307 49.5435 0.781426 49.4905 0.652763C49.4375 0.524101 49.3596 0.407202 49.2612 0.308808C49.1628 0.210413 49.0459 0.132469 48.9172 0.0794695C48.7885 0.0264701 48.6507 -0.000536006 48.5115 8.0758e-06C48.3731 0.000547852 48.2361 0.0283537 48.1084 0.081838C47.9806 0.135322 47.8647 0.213438 47.7672 0.311724C47.6697 0.41001 47.5925 0.526543 47.54 0.654667C47.4875 0.782792 47.4608 0.92 47.4613 1.05846V4.88864H31.0862V1.05846C31.0868 0.92 31.0601 0.782792 31.0076 0.654667C30.9551 0.526543 30.8779 0.41001 30.7804 0.311724C30.6828 0.213438 30.5669 0.135322 30.4392 0.081838C30.3115 0.0283537 30.1745 0.000547852 30.036 8.0758e-06C29.8969 -0.000536533 29.759 0.0264692 29.6303 0.0794683C29.5017 0.132467 29.3848 0.210412 29.2864 0.308806C29.188 0.407201 29.11 0.5241 29.057 0.652762C29.004 0.781425 28.977 0.919307 28.9776 1.05846V4.88864H12.6087V1.05846C12.6093 0.919307 12.5822 0.781425 12.5293 0.652762C12.4763 0.5241 12.3983 0.407201 12.2999 0.308806C12.2015 0.210412 12.0846 0.132467 11.956 0.0794683C11.8273 0.0264692 11.6894 -0.000536533 11.5503 8.0758e-06ZM4.80214 6.9973H10.5V10.8337C10.4992 10.9723 10.5258 11.1097 10.5781 11.2381C10.6305 11.3664 10.7077 11.4832 10.8052 11.5817C10.9028 11.6802 11.0188 11.7585 11.1466 11.8121C11.2745 11.8658 11.4116 11.8936 11.5503 11.8942C11.6896 11.8947 11.8276 11.8676 11.9564 11.8145C12.0852 11.7614 12.2022 11.6833 12.3006 11.5846C12.3991 11.486 12.477 11.3689 12.5298 11.24C12.5827 11.1111 12.6095 10.973 12.6087 10.8337V6.9973H28.9776V10.8337C28.9768 10.973 29.0036 11.1111 29.0564 11.24C29.1093 11.3689 29.1872 11.486 29.2857 11.5846C29.3841 11.6833 29.5011 11.7614 29.6299 11.8145C29.7587 11.8676 29.8967 11.8947 30.036 11.8942C30.1747 11.8936 30.3118 11.8658 30.4397 11.8121C30.5675 11.7585 30.6835 11.6802 30.7811 11.5817C30.8786 11.4832 30.9558 11.3664 31.0082 11.2381C31.0605 11.1097 31.0871 10.9723 31.0862 10.8337V6.9973H47.4613V10.8337C47.4605 10.9723 47.487 11.1097 47.5394 11.2381C47.5918 11.3664 47.6689 11.4832 47.7665 11.5817C47.864 11.6802 47.98 11.7585 48.1079 11.8121C48.2357 11.8658 48.3729 11.8936 48.5115 11.8942C48.6508 11.8947 48.7889 11.8676 48.9177 11.8145C49.0465 11.7614 49.1635 11.6833 49.2619 11.5846C49.3603 11.486 49.4382 11.3689 49.4911 11.24C49.544 11.1111 49.5708 10.973 49.57 10.8337V6.9973H55.1979C56.7098 6.9973 57.8893 8.18735 57.8893 9.69902V16.025H2.11072V9.69902C2.11072 8.18735 3.29015 6.9973 4.80214 6.9973ZM2.11072 18.1357H57.8893V45.3279C57.8893 46.8396 56.7098 48.0214 55.1979 48.0214H47.7372C48.2604 46.3095 48.5424 44.4932 48.5424 42.6118C48.5424 32.3852 40.2243 24.0725 29.9969 24.0725C19.7695 24.0725 11.4576 32.3852 11.4576 42.6118C11.4576 44.4932 11.74 46.3095 12.2628 48.0214H4.80214C3.29015 48.0214 2.11072 46.8396 2.11072 45.3279V18.1357ZM29.9969 26.1832C39.0849 26.1832 46.4337 33.5249 46.4337 42.6118C46.4337 44.7471 46.0277 46.7856 45.2888 48.6557C45.2671 48.6996 45.2486 48.745 45.2332 48.7916C42.7937 54.8077 36.8976 59.0425 29.9969 59.0425C23.1098 59.0425 17.2273 54.824 14.7812 48.8266C14.7575 48.7321 14.7208 48.6413 14.6721 48.5568C13.9584 46.7139 13.5663 44.7095 13.5663 42.6118C13.5663 33.5249 20.909 26.1832 29.9969 26.1832ZM38.2421 36.2282C37.9638 36.2277 37.6966 36.3372 37.4987 36.5329L27.6453 46.4502L22.5013 41.2815C22.3048 41.084 22.0382 40.9722 21.7596 40.9707C21.481 40.9691 21.2132 41.0779 21.0145 41.2732C20.9155 41.3706 20.8367 41.4866 20.7826 41.6146C20.7286 41.7426 20.7004 41.88 20.6996 42.019C20.6988 42.1579 20.7255 42.2956 20.7782 42.4242C20.8308 42.5528 20.9083 42.6697 21.0063 42.7682L26.8977 48.6905C26.9957 48.789 27.1122 48.8672 27.2405 48.9205C27.3688 48.9738 27.5063 49.0013 27.6452 49.0013C27.7842 49.0013 27.9217 48.9738 28.05 48.9205C28.1783 48.8672 28.2948 48.789 28.3928 48.6905L38.9937 38.0196C39.189 37.8209 39.2978 37.553 39.2962 37.2745C39.2946 36.9959 39.1829 36.7292 38.9853 36.5328C38.7875 36.3371 38.5204 36.2277 38.2421 36.2282Z" fill="#039344"/>
</svg>
