<svg width="199" height="199" viewBox="0 0 199 199" fill="none" xmlns="http://www.w3.org/2000/svg">
    <path d="M95.7847 39.0592C101.01 40.1012 103.856 38.9581 108.787 37.1469C112.778 36.6978 114.646 36.5506 117.877 39.0384C119.041 40.2774 119.041 40.2774 120.23 41.5415C124.593 45.7237 127.473 46.9889 133.413 47.9261C138.645 49.0533 140.195 49.8034 143.343 54.2485C144.898 57.3173 146.396 60.4155 147.836 63.5403C150.473 68.7699 153.248 70.8792 157.874 74.2936C159.849 79.5601 159.18 85.0114 158.988 90.5401C159.218 94.5012 160.269 97.2168 161.854 100.827C162.434 104.641 162.434 104.641 161.854 108.787C160.202 110.96 158.545 113.129 156.832 115.254C154.745 118.905 154.556 122.031 154.142 126.199C153.217 133.348 153.217 133.348 150.287 136.258C147.509 137.891 147.509 137.891 144.649 139.295C138.246 142.46 134.825 147.92 131.34 153.894C127.869 155.629 125.018 155.465 121.142 155.635C115.852 156.008 112.086 156.45 107.626 159.366C103.48 161.854 103.48 161.854 99.4175 161.771C95.5204 160.527 95.5204 160.527 92.1208 158.537C87.2109 156.394 84.3128 156.417 79.02 156.381C71.1436 155.971 71.1436 155.971 67.5516 152.722C66.0732 150.624 64.6458 148.49 63.271 146.322C60.1054 142.031 56.365 140.21 51.6316 137.937C49.0871 136.647 49.0871 136.647 46.4337 133.994C46.0228 131.768 45.7043 129.525 45.4387 127.277C44.5223 121.37 43.0776 117.947 39.3858 113.264C35.7141 108.239 35.7141 108.239 36.1883 104.765C36.9679 102.84 37.7993 100.935 38.6706 99.0494C40.1578 94.4037 39.7483 90.1144 39.4687 85.3215C39.2641 76.3536 39.2641 76.3536 41.6194 73.1327C43.2523 71.9528 44.9296 70.8323 46.641 69.7694C50.0482 66.8314 50.6419 63.7854 51.9891 59.5344C54.6891 52.2899 54.6891 52.2899 59.2495 49.8591C62.012 49.0593 64.7973 48.3349 67.5982 47.6825C72.1082 46.289 74.2149 44.5085 77.6104 41.2927C83.8461 35.9301 88.1477 37.1863 95.7847 39.0592Z" fill="#039344"/>
    <path d="M120.726 82.2529C122.478 83.1285 124.229 84.0041 126.033 84.9063C123.9 90.1568 120.263 93.7804 116.342 97.7428C115.652 98.4452 114.961 99.1475 114.25 99.8712C112.793 101.348 111.332 102.82 109.867 104.29C107.626 106.547 105.41 108.828 103.195 111.111C101.774 112.543 100.353 113.974 98.9296 115.404C98.2689 116.091 97.6081 116.777 96.9273 117.485C92.2988 122.054 92.2988 122.054 88.6926 122.049C85.9591 120.579 84.1047 119.052 81.9421 116.824C81.181 116.05 80.42 115.276 79.6359 114.479C78.8578 113.668 78.0797 112.856 77.278 112.02C76.4794 111.203 75.6807 110.387 74.8579 109.545C72.8916 107.532 70.9377 105.507 68.9863 103.48C69.8619 101.728 70.7375 99.9772 71.6397 98.1729C77.0849 98.8598 79.5426 101.684 83.248 105.553C84.3083 106.649 85.3686 107.745 86.461 108.874C87.2614 109.721 88.0617 110.567 88.8863 111.44C93.7519 109.398 96.8275 106.458 100.515 102.723C101.695 101.534 102.875 100.346 104.091 99.1213C105.312 97.878 106.533 96.6347 107.791 95.3538C109.045 94.0869 110.299 92.8207 111.554 91.5551C114.617 88.4603 117.675 85.3594 120.726 82.2529Z" fill="#F4FCF9"/>
    <path d="M156.546 34.4932C157.422 34.931 158.298 35.3688 159.2 35.8198C159.2 36.6954 159.2 37.571 159.2 38.4732C157.886 38.0354 156.573 37.5976 155.22 37.1465C155.658 36.2709 156.095 35.3953 156.546 34.4932Z" fill="#00C784"/>
    <path d="M35.8198 34.4932C36.6954 35.3688 37.571 36.2444 38.4732 37.1465C37.1598 37.5843 35.8464 38.0221 34.4932 38.4732C34.931 37.1598 35.3688 35.8464 35.8198 34.4932Z" fill="#00C885"/>
    <path d="M156.546 156.547C157.422 156.985 158.298 157.422 159.2 157.874C157.886 157.874 156.573 157.874 155.22 157.874C155.658 157.436 156.095 156.998 156.546 156.547Z" fill="#039344"/>
    <path d="M34.4932 156.547C35.8066 156.985 37.12 157.422 38.4732 157.874C37.1598 157.874 35.8464 157.874 34.4932 157.874C34.4932 157.436 34.4932 156.998 34.4932 156.547Z" fill="#039344"/>
</svg>
