<svg width="33" height="32" viewBox="0 0 33 32" fill="none" xmlns="http://www.w3.org/2000/svg">
    <g clip-path="url(#clip0_160_167)">
        <path d="M32.5 19.2V27.2H0.5V19.2C1.34869 19.2 2.16263 18.8628 2.76274 18.2627C3.36286 17.6626 3.7 16.8487 3.7 16C3.7 15.1513 3.36286 14.3374 2.76274 13.7372C2.16263 13.1371 1.34869 12.8 0.5 12.8L0.5 4.79999H32.5V12.8C31.6513 12.8 30.8374 13.1371 30.2373 13.7372C29.6371 14.3374 29.3 15.1513 29.3 16C29.3 16.8487 29.6371 17.6626 30.2373 18.2627C30.8374 18.8628 31.6513 19.2 32.5 19.2ZM5.3 7.99999V24H27.7V7.99999H5.3ZM16.5 19.328L11.828 22.592L13.46 17.12L8.932 13.696L14.628 13.568L16.5 8.19199L18.372 13.568L24.068 13.696L19.524 17.136L21.172 22.576L16.5 19.344V19.328Z" fill="#090653"/>
    </g>
    <defs>
        <clipPath id="clip0_160_167">
            <rect width="32" height="32" fill="white" transform="translate(0.5)"/>
        </clipPath>
    </defs>
</svg>
