<svg width="32" height="32" viewBox="0 0 32 32" fill="none" xmlns="http://www.w3.org/2000/svg">
    <path opacity="0.4" d="M16.6676 9.87981V29.3332H5.44093C3.89427 29.3332 2.6276 28.0932 2.6276 26.5732V6.78648C2.6276 3.29315 5.24093 1.70648 8.4276 3.26648L14.3343 6.18648C15.6143 6.81315 16.6676 8.47981 16.6676 9.87981Z" fill="#292D32"/>
    <path d="M11.96 13H7.33334C6.78667 13 6.33334 12.5467 6.33334 12C6.33334 11.4533 6.78667 11 7.33334 11H11.96C12.5067 11 12.96 11.4533 12.96 12C12.96 12.5467 12.52 13 11.96 13Z" fill="#292D32"/>
    <path d="M11.96 18.3333H7.33334C6.78667 18.3333 6.33334 17.88 6.33334 17.3333C6.33334 16.7866 6.78667 16.3333 7.33334 16.3333H11.96C12.5067 16.3333 12.96 16.7866 12.96 17.3333C12.96 17.88 12.52 18.3333 11.96 18.3333Z" fill="#292D32"/>
    <path opacity="0.6" d="M29.3333 20.0665V25.9999C29.3333 27.8399 27.84 29.3332 26 29.3332H16.6667V13.8932L17.2933 14.0265L22.68 15.2265L23.32 15.3732L26.04 15.9865C26.6933 16.1199 27.2933 16.3465 27.8133 16.6799C27.8133 16.6932 27.8267 16.6932 27.8267 16.6932C27.96 16.7865 28.0933 16.8932 28.2133 17.0132C28.8267 17.6265 29.2267 18.5199 29.32 19.8265C29.32 19.9065 29.3333 19.9865 29.3333 20.0665Z" fill="#292D32"/>
    <path d="M16.6667 13.8932V21.8932C17.28 22.7065 18.24 23.2265 19.3333 23.2265C21.1867 23.2265 22.68 21.7332 22.68 19.8932V15.2399L17.2933 14.0399L16.6667 13.8932Z" fill="#292D32"/>
    <path d="M29.3197 19.8266C29.2264 18.5199 28.8264 17.6266 28.2131 17.0132C28.0931 16.8932 27.9597 16.7866 27.8264 16.6932C27.8264 16.6932 27.8131 16.6932 27.8131 16.6799C27.2931 16.3466 26.6931 16.1199 26.0397 15.9866L23.3197 15.3732L22.6797 15.2266V19.8932C22.6797 21.7199 24.1597 23.2266 26.0131 23.2266C27.7997 23.2266 29.2264 21.8266 29.3331 20.0799V20.0666C29.3331 19.9866 29.3197 19.9066 29.3197 19.8266Z" fill="#292D32"/>
</svg>
