<svg width="150" height="150" viewBox="0 0 150 150" fill="none" xmlns="http://www.w3.org/2000/svg">
    <path d="M75 12.5C40.5 12.5 12.5 40.5 12.5 75C12.5 109.5 40.5 137.5 75 137.5C109.5 137.5 137.5 109.5 137.5 75C137.5 40.5 109.5 12.5 75 12.5ZM43.75 84.375C38.5625 84.375 34.375 80.1875 34.375 75C34.375 69.8125 38.5625 65.625 43.75 65.625C48.9375 65.625 53.125 69.8125 53.125 75C53.125 80.1875 48.9375 84.375 43.75 84.375ZM75 84.375C69.8125 84.375 65.625 80.1875 65.625 75C65.625 69.8125 69.8125 65.625 75 65.625C80.1875 65.625 84.375 69.8125 84.375 75C84.375 80.1875 80.1875 84.375 75 84.375ZM106.25 84.375C101.062 84.375 96.875 80.1875 96.875 75C96.875 69.8125 101.062 65.625 106.25 65.625C111.438 65.625 115.625 69.8125 115.625 75C115.625 80.1875 111.438 84.375 106.25 84.375Z" fill="#1565C0"/>
</svg>
