<svg width="296" height="296" viewBox="0 0 296 296" fill="none" xmlns="http://www.w3.org/2000/svg">
    <path d="M232.744 159.538H235.183V104.806H232.744V159.538Z" fill="#CF1119"/>
    <path d="M140.271 159.538H144.081V59.6111L140.271 56.3496V159.538Z" fill="#CF1119"/>
    <path d="M233.977 112.562C168.062 111.795 140.271 75.2607 140.271 75.2607V68.9844C140.271 68.9844 165.623 104.806 233.484 108.067C234.553 108.122 235.046 112.59 233.977 112.562Z" fill="#CF1119"/>
    <path d="M233.511 125.937C167.596 125.197 140.518 97.0496 140.518 97.0496V89.4851C140.518 89.4851 164.883 118.126 232.744 121.387C233.813 121.442 234.58 125.964 233.511 125.937Z" fill="#CF1119"/>
    <path d="M184.123 135.338C182.013 135.338 180.286 137.065 180.286 139.175V159.539H187.658V138.873C187.658 136.928 186.069 135.338 184.123 135.338Z" fill="#898989"/>
    <path d="M209.255 137.969C207.145 137.969 205.418 139.668 205.418 141.779V159.374C205.418 159.456 205.501 159.539 205.583 159.539H212.627C212.709 159.539 212.791 159.456 212.791 159.374V141.477C212.791 139.531 211.201 137.969 209.255 137.969Z" fill="#898989"/>
    <path d="M159.977 131.281C157.839 131.281 156.14 133.008 156.14 135.119V159.374C156.14 159.456 156.195 159.539 156.305 159.539H163.321C163.431 159.539 163.485 159.456 163.485 159.374V134.817C163.485 132.871 161.923 131.281 159.977 131.281Z" fill="#898989"/>
    <path d="M234.333 138.462C226.166 139.175 221.781 139.449 214.655 139.421C214.655 136.708 211.832 134.515 209.119 134.515C206.487 134.515 203.664 136.571 203.555 139.175C198.101 138.928 194.346 138.49 189.604 137.887C189.659 137.613 189.687 137.32 189.687 137.01C189.687 134.324 186.836 132.104 184.123 132.104C181.602 132.104 178.888 133.995 178.614 136.434C173.16 135.447 169.624 134.296 165.349 133.118C165.367 132.953 165.376 132.789 165.376 132.624C165.376 129.911 162.526 127.718 159.813 127.718C157.976 127.718 156.414 128.705 155.564 130.185C145.506 126.513 140.627 123.169 140.627 123.169L140.518 112.617C140.518 112.617 165.486 136.708 233.319 133.227C234.416 133.173 235.43 138.38 234.333 138.462Z" fill="#CF1119"/>
    <path d="M152.769 159.539H143.807V141.751L152.769 146.328V159.539Z" fill="#CF1119"/>
    <path d="M233.977 150.933H216.793V146.52H233.977V150.933Z" fill="#CF1119"/>
    <path fill-rule="evenodd" clip-rule="evenodd" d="M130.185 66.5726C127.883 66.4081 124.484 67.8607 123.525 68.7926C122.402 69.8341 122.977 71.3141 122.977 71.3141C123.607 72.7393 128.102 71.6156 130.185 70.9578V79.9748C129.007 80.0844 127.856 80.66 127.609 81.6467C127.198 83.0444 128.184 84.1407 129.719 84.223C129.856 84.2504 130.021 84.2504 130.185 84.223V122.593C129.473 122.073 128.678 121.826 127.938 122.045C127.938 122.045 126.102 123.004 126.704 124.896C127.198 126.458 128.459 127.691 130.185 127.581V159.676C129.884 159.484 129.5 159.319 129.034 159.182C127.006 158.524 125.416 159.703 123.909 159.895C122.374 160.059 121.223 159.155 121.223 159.155C119.085 158.141 116.81 158.799 116.81 158.799C112.288 159.758 108.424 163.458 105.135 165.212C101.846 166.966 96.0082 167.541 93.2674 167.679C90.5267 167.788 88.2519 168.857 86.8267 170.474C85.4015 172.091 84.1408 170.995 84.1408 170.995C82.3319 168.227 92.4178 166.39 97.9815 163.595C103.573 160.799 108.122 153.947 110.096 151.179C112.096 148.411 113.056 142.82 110.562 140.024C108.067 137.229 102.284 136.845 99.2149 138.106C96.1178 139.367 90.746 141.176 86.1689 142.902C81.5919 144.656 73.0956 146.328 68.3815 146.547C63.6675 146.767 63.0919 145.013 63.4482 143.779C63.8045 142.573 67.4223 141.833 67.4223 141.833C69.7793 141.176 80.4956 138.051 82.5786 137.366C84.6615 136.653 93.9252 133.255 91.5956 130.103C89.266 126.951 83.7845 129.226 80.7423 130.706C77.7 132.213 69.3956 135.31 63.9963 136.653C58.6245 138.024 56.4593 137.147 56.1852 136.187C55.9386 135.228 57.3089 134.598 59.6934 133.858C62.0778 133.118 64.7637 130.021 68.7104 126.567C72.6845 123.114 81.1534 120.099 83.9489 118.455C86.7171 116.838 86.9912 114.234 85.6208 112.316C84.2504 110.37 81.1534 110.287 76.8778 113.22C72.6297 116.153 68.1623 115.632 67.3675 114.755C66.5452 113.878 67.3675 112.644 68.3267 111.877C69.286 111.082 70.903 109.931 74.1097 107.053C77.2889 104.176 79.5363 103.244 82.1675 102.367C84.7986 101.49 87.3475 100.585 90.2252 98.3926C93.1304 96.2 95.2408 90.9652 92.8289 88.8C90.3897 86.6622 85.4563 88.4163 84.0312 89.1563C82.6334 89.9237 78.906 90.0059 78.8238 87.7585C78.7141 85.5385 89.1563 81.2081 93.4319 79.0704C97.68 76.9052 97.5704 74.5207 99.4067 73.0407C101.243 71.5333 102.997 71.8074 104.395 71.6156C105.738 71.4511 107.026 71.0126 107.41 69.4504C107.821 67.8607 106.615 66.9563 105.847 66.9837C105.08 67.0385 102.997 67.1207 102.284 66.3259C101.599 65.5585 103.518 64.0511 103.518 64.0511C108.067 61.0911 117.002 58.7341 116.344 56.4044C115.687 54.0748 110.863 55.5822 111.466 54.76C112.096 53.9104 115.933 51.7726 120.346 48.1822C124.759 44.5919 129.829 38.2607 129.829 38.2607M102.257 107.656C101.654 106.916 101.517 106.259 98.42 106.368C95.2956 106.505 88.06 107.053 87.7038 108.232C87.3749 109.438 88.3615 113.768 92.3356 113.604C96.2823 113.439 104.724 110.726 102.257 107.656ZM101.736 85.703C100.119 84.3874 98.0912 83.7022 96.2275 84.3874C96.2275 84.3874 94.1993 86.0593 95.46 88.197C96.7208 90.3348 99.2149 92.1437 101.983 91.0474C104.779 89.9511 103.353 87.0185 101.736 85.703ZM123.662 99.3793C123.607 100.339 124.375 101.161 125.499 101.051C126.622 100.969 126.924 100.448 127.28 99.3793C127.28 99.3793 127.773 97.1867 125.827 97.1593C123.882 97.1319 123.69 98.4474 123.662 99.3793ZM112.453 74.1096C110.315 76.0281 110.589 77.1244 111.329 77.837C112.096 78.5496 114.673 77.7 117.03 76.3844C119.414 75.0963 119.414 73.2874 119.414 73.2874C119.414 73.2874 119.77 71.2319 118.564 71.04C117.331 70.8482 114.563 72.1637 112.453 74.1096ZM109.739 65.7778C109.959 66.7096 110.424 67.9704 112.096 67.8059C113.768 67.6415 114.152 66.2985 114.124 65.5311C114.07 64.7911 113.549 63.3111 111.713 63.4481C109.904 63.5578 109.739 65.7778 109.739 65.7778ZM110.315 87.7585C112.864 86.9089 112.453 85.237 112.233 84.1133C112.042 83.017 109.438 81.5919 106.971 82.7704C104.477 83.9489 105.601 86.6622 105.601 86.6622C106.094 87.5941 107.766 88.5807 110.315 87.7585ZM112.014 123.799C111.411 122.511 110.123 120.538 108.067 120.839C108.067 120.839 106.122 121.196 106.505 123.306C106.889 125.389 107.985 128.952 110.507 128.568C113.028 128.212 112.617 125.06 112.014 123.799ZM116.893 100.147C116.893 100.147 115.742 98.1733 113.768 98.9956C111.795 99.8178 113.631 103.107 115.933 102.613C118.263 102.12 116.893 100.147 116.893 100.147ZM120.593 124.704C119.222 123.635 118.647 123.279 117.907 123.744C117.907 123.744 116.81 124.896 117.907 126.841C119.03 128.787 120.812 128.294 121.415 127.856C122.018 127.444 121.963 125.8 120.593 124.704Z" fill="#039344"/>
    <path d="M105.875 228.605H48.4563V227.29H105.875V228.605Z" fill="#4F4F4F"/>
    <path d="M244.885 229.29H188.289V227.947H244.885V229.29Z" fill="#4F4F4F"/>
    <path d="M56.6642 211.296C54.8662 211.296 53.4609 211.028 52.4482 210.49C51.4562 209.932 50.7536 209.085 50.3402 207.948C49.9476 206.791 49.7512 205.324 49.7512 203.546C49.7512 201.769 49.9476 200.312 50.3402 199.175C50.7536 198.018 51.4562 197.171 52.4482 196.633C53.4609 196.075 54.8662 195.796 56.6642 195.796H63.0812V210.056H60.6632V196.943L61.9032 197.997H56.6642C55.4656 197.997 54.5356 198.142 53.8742 198.431C53.2336 198.721 52.7892 199.268 52.5412 200.074C52.2932 200.86 52.1692 202.017 52.1692 203.546C52.1692 205.076 52.2932 206.243 52.5412 207.049C52.7892 207.835 53.2336 208.372 53.8742 208.661C54.5356 208.951 55.4656 209.095 56.6642 209.095H66.4292V211.296H56.6642ZM66.4292 211.296V209.095C66.6979 209.095 66.8632 209.199 66.9252 209.405C67.0079 209.591 67.0492 209.85 67.0492 210.18C67.0492 210.511 67.0079 210.78 66.9252 210.986C66.8632 211.193 66.6979 211.296 66.4292 211.296ZM53.6572 193.006V190.216H56.0752V193.006H53.6572ZM57.9042 193.006V190.216H60.3222V193.006H57.9042ZM72.1991 211.296V209.095H75.5471V211.296H72.1991ZM75.5471 211.296V209.095C75.8158 209.095 75.9811 209.199 76.0431 209.405C76.1258 209.591 76.1671 209.85 76.1671 210.18C76.1671 210.511 76.1258 210.78 76.0431 210.986C75.9811 211.193 75.8158 211.296 75.5471 211.296ZM66.4331 211.296V209.095H70.8971L69.7811 209.994V195.796H72.1991V211.296H66.4331ZM66.4331 211.296C66.1644 211.296 65.9991 211.193 65.9371 210.986C65.8544 210.78 65.8131 210.511 65.8131 210.18C65.8131 209.85 65.8544 209.591 65.9371 209.405C65.9991 209.199 66.1644 209.095 66.4331 209.095V211.296ZM67.6731 216.876V214.086H70.0911V216.876H67.6731ZM71.9201 216.876V214.086H74.3381V216.876H71.9201ZM75.5454 211.296V209.095H80.0094L78.8934 209.994V195.796H81.3114V211.296H75.5454ZM75.5454 211.296C75.2767 211.296 75.1114 211.193 75.0494 210.986C74.9667 210.78 74.9254 210.511 74.9254 210.18C74.9254 209.85 74.9667 209.591 75.0494 209.405C75.1114 209.199 75.2767 209.095 75.5454 209.095V211.296ZM78.8934 193.006V190.216H81.3114V193.006H78.8934ZM89.1731 211.296V209.095H92.9551V211.296H89.1731ZM86.7861 211.296V189.069H89.1731V211.296H86.7861ZM92.9551 211.296V209.095C93.2237 209.095 93.3891 209.199 93.4511 209.405C93.5337 209.591 93.5751 209.85 93.5751 210.18C93.5751 210.511 93.5337 210.78 93.4511 210.986C93.3891 211.193 93.2237 211.296 92.9551 211.296ZM98.7186 211.296V209.095H102.067V211.296H98.7186ZM92.9526 211.296V209.095H97.4166L96.3006 209.994V195.796H98.7186V211.296H92.9526ZM92.9526 211.296C92.684 211.296 92.5186 211.193 92.4566 210.986C92.374 210.78 92.3326 210.511 92.3326 210.18C92.3326 209.85 92.374 209.591 92.4566 209.405C92.5186 209.199 92.684 209.095 92.9526 209.095V211.296ZM102.067 211.296V209.095C102.335 209.095 102.501 209.199 102.563 209.405C102.645 209.591 102.687 209.85 102.687 210.18C102.687 210.511 102.645 210.78 102.563 210.986C102.501 211.193 102.335 211.296 102.067 211.296ZM96.3006 193.006V190.216H98.7186V193.006H96.3006ZM107.831 211.296V209.095H111.179V211.296H107.831ZM102.065 211.296V209.095H106.529L105.413 209.994V195.796H107.831V211.296H102.065ZM102.065 211.296C101.796 211.296 101.631 211.193 101.569 210.986C101.486 210.78 101.445 210.511 101.445 210.18C101.445 209.85 101.486 209.591 101.569 209.405C101.631 209.199 101.796 209.095 102.065 209.095V211.296ZM111.179 211.296V209.095C111.448 209.095 111.613 209.199 111.675 209.405C111.758 209.591 111.799 209.85 111.799 210.18C111.799 210.511 111.758 210.78 111.675 210.986C111.613 211.193 111.448 211.296 111.179 211.296ZM105.413 216.876V214.086H107.831V216.876H105.413ZM117.346 211.296V209.095H120.694V211.296H117.346ZM114.928 211.296V189.069H117.346V211.296H114.928ZM111.177 211.296V209.095H114.928V211.296H111.177ZM111.177 211.296C110.909 211.296 110.743 211.193 110.681 210.986C110.599 210.78 110.557 210.511 110.557 210.18C110.557 209.85 110.599 209.591 110.681 209.405C110.743 209.199 110.909 209.095 111.177 209.095V211.296ZM120.694 211.296V209.095C120.963 209.095 121.128 209.199 121.19 209.405C121.273 209.591 121.314 209.85 121.314 210.18C121.314 210.511 121.273 210.78 121.19 210.986C121.128 211.193 120.963 211.296 120.694 211.296ZM124.434 211.296V189.069H126.852V211.296H124.434ZM120.683 211.296V209.095H124.434V211.296H120.683ZM120.683 211.296C120.414 211.296 120.249 211.193 120.187 210.986C120.104 210.78 120.063 210.511 120.063 210.18C120.063 209.85 120.104 209.591 120.187 209.405C120.249 209.199 120.414 209.095 120.683 209.095V211.296ZM132.196 211.296V189.069H134.583V211.296H132.196ZM145.597 211.296V203.856C145.597 201.872 145.886 200.291 146.465 199.113C147.044 197.935 147.912 197.088 149.069 196.571C150.247 196.055 151.694 195.796 153.409 195.796C155.145 195.796 156.592 196.055 157.749 196.571C158.906 197.088 159.774 197.935 160.353 199.113C160.932 200.291 161.221 201.872 161.221 203.856V211.296H145.597ZM148.015 210.149L146.744 209.095H160.074L158.834 210.149V203.856C158.834 202.368 158.669 201.201 158.338 200.353C158.007 199.485 157.439 198.876 156.633 198.524C155.848 198.173 154.773 197.997 153.409 197.997C152.045 197.997 150.97 198.173 150.185 198.524C149.4 198.876 148.842 199.485 148.511 200.353C148.18 201.201 148.015 202.368 148.015 203.856V210.149ZM150.092 193.006V190.216H152.51V193.006H150.092ZM154.339 193.006V190.216H156.757V193.006H154.339ZM162.739 218.147C162.471 218.147 162.192 218.127 161.902 218.085C161.592 218.065 161.293 218.044 161.003 218.023L161.282 215.822C161.572 215.843 161.84 215.864 162.088 215.884C162.336 215.926 162.553 215.946 162.739 215.946C163.711 215.946 164.496 215.574 165.095 214.83C165.695 214.107 165.994 213.094 165.994 211.792V195.796H168.412V211.792C168.412 213.053 168.164 214.159 167.668 215.109C167.193 216.081 166.532 216.825 165.684 217.341C164.837 217.879 163.855 218.147 162.739 218.147ZM175.967 211.296V209.095H179.749V211.296H175.967ZM173.58 211.296V189.069H175.967V211.296H173.58ZM179.749 211.296V209.095C180.018 209.095 180.183 209.199 180.245 209.405C180.328 209.591 180.369 209.85 180.369 210.18C180.369 210.511 180.328 210.78 180.245 210.986C180.183 211.193 180.018 211.296 179.749 211.296ZM196.208 211.296V209.095H199.556V211.296H196.208ZM179.747 211.296V209.095H195.402L193.79 210.49V196.943L195.061 197.997H189.791C188.592 197.997 187.662 198.142 187.001 198.431C186.36 198.721 185.916 199.268 185.668 200.074C185.42 200.86 185.296 202.017 185.296 203.546C185.296 205.076 185.42 206.243 185.668 207.049C185.916 207.835 186.36 208.372 187.001 208.661C187.662 208.951 188.592 209.095 189.791 209.095V210.676C187.993 210.676 186.587 210.459 185.575 210.025C184.583 209.571 183.88 208.827 183.467 207.793C183.074 206.739 182.878 205.324 182.878 203.546C182.878 201.769 183.074 200.312 183.467 199.175C183.88 198.018 184.583 197.171 185.575 196.633C186.587 196.075 187.993 195.796 189.791 195.796H196.208V211.296H179.747ZM179.747 211.296C179.478 211.296 179.313 211.193 179.251 210.986C179.168 210.78 179.127 210.511 179.127 210.18C179.127 209.85 179.168 209.591 179.251 209.405C179.313 209.199 179.478 209.095 179.747 209.095V211.296ZM199.556 211.296V209.095C199.824 209.095 199.99 209.199 200.052 209.405C200.134 209.591 200.176 209.85 200.176 210.18C200.176 210.511 200.134 210.78 200.052 210.986C199.99 211.193 199.824 211.296 199.556 211.296ZM189.047 193.006V190.216H191.465V193.006H189.047ZM222.857 211.296V209.095H226.205V211.296H222.857ZM215.851 211.296C215.149 211.296 214.456 211.162 213.774 210.893C213.113 210.625 212.472 210.201 211.852 209.622L213.433 207.979C213.909 208.372 214.332 208.661 214.704 208.847C215.076 209.013 215.459 209.095 215.851 209.095H221.369L220.439 210.087V202.678C220.439 202.306 220.398 201.779 220.315 201.097C220.253 200.415 220.15 199.651 220.005 198.803C219.881 197.935 219.726 197.067 219.54 196.199L221.896 195.796C222.041 196.52 222.186 197.326 222.33 198.214C222.475 199.103 222.599 199.95 222.702 200.756C222.806 201.542 222.857 202.182 222.857 202.678V211.296H215.851ZM199.545 211.296V209.095H204.071L203.451 209.715V198.896H205.838V211.296H199.545ZM205.838 211.296V209.095H209.341C210.044 209.095 210.571 208.992 210.922 208.785C211.294 208.579 211.553 208.165 211.697 207.545C211.842 206.925 211.914 206.016 211.914 204.817V197.346H214.332V204.817C214.332 206.429 214.157 207.711 213.805 208.661C213.475 209.612 212.948 210.294 212.224 210.707C211.501 211.1 210.54 211.296 209.341 211.296H205.838ZM199.545 211.296C199.277 211.296 199.111 211.193 199.049 210.986C198.967 210.78 198.925 210.511 198.925 210.18C198.925 209.85 198.967 209.591 199.049 209.405C199.111 209.199 199.277 209.095 199.545 209.095V211.296ZM226.205 211.296V209.095C226.474 209.095 226.639 209.199 226.701 209.405C226.784 209.591 226.825 209.85 226.825 210.18C226.825 210.511 226.784 210.78 226.701 210.986C226.639 211.193 226.474 211.296 226.205 211.296ZM229.967 211.296V189.069H232.385V211.296H229.967ZM226.216 211.296V209.095H229.967V211.296H226.216ZM226.216 211.296C225.948 211.296 225.782 211.193 225.72 210.986C225.638 210.78 225.596 210.511 225.596 210.18C225.596 209.85 225.638 209.591 225.72 209.405C225.782 209.199 225.948 209.095 226.216 209.095V211.296ZM237.729 211.296V189.069H240.116V211.296H237.729Z" fill="#898989"/>
    <path d="M121.993 248.537C120.729 248.537 119.585 248.305 118.561 247.841C117.537 247.377 116.729 246.729 116.137 245.897C115.545 245.065 115.249 244.113 115.249 243.041C115.249 242.705 115.273 242.265 115.321 241.721C115.385 241.161 115.457 240.545 115.537 239.873C115.633 239.185 115.737 238.497 115.849 237.809C115.961 237.105 116.065 236.441 116.161 235.817L118.009 236.105C117.833 237.209 117.673 238.233 117.529 239.177C117.401 240.105 117.297 240.905 117.217 241.577C117.153 242.233 117.121 242.721 117.121 243.041C117.121 243.777 117.321 244.425 117.721 244.985C118.137 245.561 118.713 246.009 119.449 246.329C120.185 246.665 121.033 246.833 121.993 246.833C122.953 246.833 123.777 246.681 124.465 246.377C125.153 246.073 125.681 245.649 126.049 245.105C126.417 244.561 126.601 243.921 126.601 243.185V230.585H128.473V243.185C128.473 244.305 128.177 245.265 127.585 246.065C127.009 246.865 126.233 247.473 125.257 247.889C124.281 248.321 123.193 248.537 121.993 248.537ZM128.473 242.585V240.881H140.929L139.201 242.441V236.801C139.201 235.793 139.057 234.961 138.769 234.305C138.497 233.633 138.081 233.129 137.521 232.793C136.977 232.457 136.289 232.289 135.457 232.289C134.753 232.289 134.097 232.409 133.489 232.649C132.897 232.873 132.345 233.177 131.833 233.561C131.321 233.929 130.841 234.345 130.393 234.809C129.961 235.257 129.561 235.713 129.193 236.177C128.825 236.641 128.489 237.065 128.185 237.449L127.561 235.745C127.961 235.249 128.361 234.753 128.761 234.257C129.177 233.761 129.609 233.297 130.057 232.865C130.505 232.417 130.993 232.025 131.521 231.689C132.065 231.353 132.657 231.089 133.297 230.897C133.937 230.689 134.657 230.585 135.457 230.585C136.593 230.585 137.521 230.777 138.241 231.161C138.977 231.545 139.545 232.057 139.945 232.697C140.361 233.321 140.649 233.993 140.809 234.713C140.969 235.433 141.049 236.129 141.049 236.801V242.585H128.473ZM133.153 228.449V226.289H135.025V228.449H133.153ZM147.035 242.585V240.881H149.963V242.585H147.035ZM145.187 242.585V225.377H147.035V242.585H145.187ZM149.963 242.585V240.881C150.171 240.881 150.299 240.961 150.347 241.121C150.411 241.265 150.443 241.465 150.443 241.721C150.443 241.977 150.411 242.185 150.347 242.345C150.299 242.505 150.171 242.585 149.963 242.585ZM149.961 242.585V240.881H153.417L152.553 241.577V230.585H154.425V242.585H149.961ZM149.961 242.585C149.753 242.585 149.625 242.505 149.577 242.345C149.513 242.185 149.481 241.977 149.481 241.721C149.481 241.465 149.513 241.265 149.577 241.121C149.625 240.961 149.753 240.881 149.961 240.881V242.585ZM150.921 246.905V244.745H152.793V246.905H150.921ZM154.209 246.905V244.745H156.081V246.905H154.209ZM160.487 242.585V240.881H163.559V242.585H160.487ZM156.575 247.889C156.367 247.889 156.151 247.873 155.927 247.841C155.687 247.825 155.455 247.809 155.231 247.793L155.447 246.089C155.671 246.105 155.879 246.121 156.071 246.137C156.263 246.169 156.431 246.185 156.575 246.185C157.327 246.185 157.935 245.897 158.399 245.321C158.863 244.761 159.095 243.977 159.095 242.969V230.585H160.967V242.969C160.967 243.945 160.775 244.801 160.391 245.537C160.023 246.289 159.511 246.865 158.855 247.265C158.199 247.681 157.439 247.889 156.575 247.889ZM163.559 242.585V240.881C163.767 240.881 163.895 240.961 163.943 241.121C164.007 241.265 164.039 241.465 164.039 241.721C164.039 241.977 164.007 242.185 163.943 242.345C163.895 242.505 163.767 242.585 163.559 242.585ZM166.458 242.585V225.377H168.33V242.585H166.458ZM163.554 242.585V240.881H166.458V242.585H163.554ZM163.554 242.585C163.346 242.585 163.218 242.505 163.17 242.345C163.106 242.185 163.074 241.977 163.074 241.721C163.074 241.465 163.106 241.265 163.17 241.121C163.218 240.961 163.346 240.881 163.554 240.881V242.585ZM172.468 242.585V225.377H174.316V242.585H172.468Z" fill="#898989"/>
</svg>
