<svg width="276" height="276" viewBox="0 0 276 276" fill="none" xmlns="http://www.w3.org/2000/svg">
    <path d="M137.476 268.3C209.304 268.3 267.532 234.681 267.532 193.211C267.532 151.741 209.304 118.122 137.476 118.122C65.6473 118.122 7.41888 151.741 7.41888 193.211C7.41888 234.681 65.6473 268.3 137.476 268.3Z" fill="#F0F0F0"/>
    <path d="M212.167 219.265C203.638 214.342 203.638 206.36 212.167 201.436C220.695 196.512 234.523 196.512 243.051 201.436C251.579 206.36 251.579 214.342 243.051 219.265C234.523 224.189 220.695 224.189 212.167 219.265Z" fill="#E0E0E0"/>
    <path d="M38.7062 219.95L16.273 207C15.0089 206.271 15.0089 205.085 16.273 204.356L146.76 129.019C147.469 128.66 148.253 128.472 149.048 128.472C149.843 128.472 150.627 128.66 151.336 129.019L173.775 141.969C175.039 142.697 175.039 143.884 173.775 144.613L43.2878 219.95C42.5777 220.309 41.7929 220.497 40.997 220.497C40.2011 220.497 39.4164 220.309 38.7062 219.95Z" fill="#E0E0E0"/>
    <path d="M119.342 196.865L138.629 185.715C140.616 184.567 141.61 183.065 141.61 181.558C141.61 180.051 141.61 178.876 141.61 178.876L121.606 167.593C121.047 167.231 120.581 166.743 120.248 166.167C119.914 165.592 119.721 164.945 119.685 164.281V140.495L86.0126 159.959V183.733C86.0514 184.397 86.2454 185.043 86.5791 185.618C86.9127 186.193 87.3766 186.682 87.9336 187.045L104.957 196.849C108.921 199.162 115.368 199.162 119.342 196.865Z" fill="#BA68C8"/>
    <g opacity="0.6">
        <path d="M119.342 196.865L138.629 185.715C140.616 184.567 141.61 183.065 141.61 181.558C141.61 180.051 141.61 178.876 141.61 178.876L121.606 167.593C121.047 167.231 120.581 166.743 120.248 166.167C119.914 165.592 119.721 164.945 119.685 164.281V140.495L86.0126 159.959V183.733C86.0514 184.397 86.2454 185.043 86.5791 185.618C86.9127 186.193 87.3766 186.682 87.9336 187.045L104.957 196.849C108.921 199.162 115.368 199.162 119.342 196.865Z" fill="black"/>
    </g>
    <path opacity="0.3" d="M94.0884 187.945V190.617L87.917 187.056C87.3602 186.693 86.8966 186.204 86.5639 185.629C86.2311 185.054 86.0385 184.408 86.0016 183.744V159.959L92.4158 156.255C92.5483 157.883 92.6918 159.567 92.8298 161.223L88.32 163.817V182.392C88.3557 183.056 88.5485 183.703 88.8824 184.279C89.2163 184.854 89.6818 185.343 90.2409 185.704L94.0884 187.945Z" fill="black"/>
    <path d="M88.32 182.397C88.3579 183.061 88.5516 183.707 88.8853 184.283C89.219 184.858 89.6834 185.347 90.241 185.709L104.935 194.177C108.91 196.468 115.357 196.473 119.337 194.177L138.657 183.027C142.637 180.73 142.637 177.01 138.657 174.714L123.952 166.246C123.395 165.882 122.932 165.393 122.6 164.818C122.267 164.243 122.074 163.597 122.036 162.934V144.354L88.3642 163.817L88.32 182.397Z" fill="#51B5B7"/>
    <path opacity="0.3" d="M88.32 182.397C88.3579 183.061 88.5516 183.707 88.8853 184.283C89.219 184.858 89.6834 185.347 90.241 185.709L104.935 194.177C108.91 196.468 115.357 196.473 119.337 194.177L138.657 183.027C142.637 180.73 142.637 177.01 138.657 174.714L123.952 166.246C123.395 165.882 122.932 165.393 122.6 164.818C122.267 164.243 122.074 163.597 122.036 162.934V144.354L88.3642 163.817L88.32 182.397Z" fill="black"/>
    <path opacity="0.5" d="M127.843 168.515L123.93 166.257C123.373 165.893 122.91 165.404 122.577 164.829C122.245 164.254 122.052 163.608 122.014 162.945V144.354L88.3421 163.817V182.397C88.38 183.061 88.5736 183.707 88.9074 184.283C89.2411 184.858 89.7055 185.347 90.263 185.709L94.127 187.917L127.843 168.515Z" fill="black"/>
    <path d="M141.616 178.881V181.564C141.616 183.071 140.616 184.567 138.635 185.72L119.315 196.865C117.2 197.994 114.839 198.58 112.442 198.571V195.899C114.839 195.908 117.2 195.322 119.315 194.194L138.635 183.038C140.616 181.895 141.616 180.388 141.616 178.881Z" fill="#51B5B7"/>
    <path opacity="0.5" d="M141.616 178.881V181.564C141.616 183.071 140.616 184.567 138.635 185.72L119.315 196.865C117.2 197.994 114.839 198.58 112.442 198.571V195.899C114.839 195.908 117.2 195.322 119.315 194.194L138.635 183.038C140.616 181.895 141.616 180.388 141.616 178.881Z" fill="black"/>
    <path d="M34.224 205.488C34.9519 205.839 35.7523 206.015 36.5605 206C37.3688 205.986 38.1624 205.782 38.8774 205.405L169.149 130.195C169.848 129.739 170.429 129.125 170.846 128.403C171.264 127.681 171.505 126.871 171.551 126.038V20.6503C171.526 19.8402 171.31 19.0474 170.92 18.3366C170.531 17.6258 169.979 17.0171 169.309 16.56C168.582 16.208 167.783 16.0326 166.975 16.0479C166.167 16.0633 165.375 16.269 164.662 16.6483L34.3896 91.8804C33.6935 92.3389 33.1156 92.9554 32.7031 93.6796C32.2907 94.4039 32.0552 95.2154 32.016 96.048V201.419C32.0406 202.223 32.2532 203.009 32.6366 203.716C33.0201 204.422 33.5637 205.029 34.224 205.488Z" fill="#51B5B7"/>
    <path d="M38.8939 205.399L169.166 130.189C169.865 129.735 170.447 129.121 170.865 128.399C171.282 127.676 171.523 126.866 171.567 126.033V20.6503C171.567 19.1213 170.491 18.4975 169.166 19.2648L38.8939 94.4748C38.1951 94.9301 37.6135 95.5437 37.1963 96.266C36.779 96.9882 36.538 97.7986 36.4927 98.6314V204.014C36.4927 205.543 37.5691 206.167 38.8939 205.399Z" fill="#51B5B7"/>
    <path opacity="0.5" d="M38.8939 205.399L169.166 130.189C169.865 129.735 170.447 129.121 170.865 128.399C171.282 127.676 171.523 126.866 171.567 126.033V20.6503C171.567 19.1213 170.491 18.4975 169.166 19.2648L38.8939 94.4748C38.1951 94.9301 37.6135 95.5437 37.1963 96.266C36.779 96.9882 36.538 97.7986 36.4927 98.6314V204.014C36.4927 205.543 37.5691 206.167 38.8939 205.399Z" fill="black"/>
    <path d="M38.5406 208.137C37.8575 208.435 37.1178 208.582 36.3726 208.567C35.6274 208.551 34.8944 208.375 34.224 208.049C33.5622 207.589 33.0177 206.981 32.6342 206.272C32.2506 205.564 32.0389 204.775 32.016 203.969V194.376L36.5148 196.981V206.575C36.4872 207.971 37.3759 208.606 38.5406 208.137Z" fill="#51B5B7"/>
    <path opacity="0.5" d="M38.5406 208.137C37.8575 208.435 37.1178 208.582 36.3726 208.567C35.6274 208.551 34.8944 208.375 34.224 208.049C33.5622 207.589 33.0177 206.981 32.6342 206.272C32.2506 205.564 32.0389 204.775 32.016 203.969V194.376L36.5148 196.981V206.575C36.4872 207.971 37.3759 208.606 38.5406 208.137Z" fill="black"/>
    <path d="M36.4872 196.981V206.575C36.4872 208.104 37.5912 208.722 38.8884 207.96L169.16 132.75C169.856 132.297 170.436 131.687 170.853 130.969C171.27 130.251 171.512 129.445 171.562 128.616V118.978L36.4872 196.981Z" fill="#090653"/>
    <path opacity="0.3" d="M36.4927 196.959V206.575C36.4927 208.104 37.5967 208.722 38.8939 207.96L169.166 132.75C169.861 132.296 170.439 131.686 170.855 130.968C171.271 130.25 171.513 129.444 171.562 128.616V118.978L36.4927 196.959Z" fill="black"/>
    <path d="M40.9915 184.92V100.127C41.0172 99.6277 41.1606 99.1413 41.41 98.7077C41.6594 98.2741 42.0078 97.9056 42.4267 97.6322L165.6 26.496C166.395 26.0378 167.041 26.4077 167.041 27.324V112.161C167.014 112.661 166.87 113.147 166.619 113.581C166.369 114.015 166.02 114.383 165.6 114.656L42.4322 185.776C41.6374 186.234 40.9915 185.858 40.9915 184.92Z" fill="#51B5B7"/>
    <path d="M40.9915 184.92V100.127C41.0172 99.6277 41.1606 99.1413 41.41 98.7077C41.6594 98.2741 42.0078 97.9056 42.4267 97.6322L165.6 26.496C166.395 26.0378 167.041 26.4077 167.041 27.324V112.161C167.014 112.661 166.87 113.147 166.619 113.581C166.369 114.015 166.02 114.383 165.6 114.656L42.4322 185.776C41.6374 186.234 40.9915 185.858 40.9915 184.92Z" fill="#263238"/>
    <path d="M104.024 161.035C103.369 161.461 102.823 162.037 102.432 162.714C102.04 163.391 101.814 164.151 101.772 164.932C101.772 166.367 102.782 166.952 104.024 166.235C104.681 165.808 105.227 165.232 105.618 164.554C106.01 163.875 106.235 163.114 106.277 162.332C106.277 160.897 105.266 160.317 104.024 161.035Z" fill="#BA68C8"/>
    <path opacity="0.7" d="M37.1993 96.2578C36.7715 96.9769 36.5269 97.7901 36.4872 98.6259V196.981L32.016 194.376V96.048C32.045 95.2095 32.2882 94.3923 32.7226 93.6744L37.1993 96.2578Z" fill="black"/>
    <path opacity="0.3" d="M171.54 20.2528C171.368 19.0164 170.369 18.5968 169.16 19.2648L38.8884 94.4748C38.1821 94.9165 37.5991 95.5299 37.1937 96.2577L32.6894 93.6578C33.0975 92.9302 33.6822 92.317 34.3896 91.8748L164.662 16.6704C165.376 16.291 166.169 16.0852 166.978 16.0699C167.786 16.0546 168.587 16.23 169.315 16.582C169.927 16.999 170.442 17.5425 170.826 18.1758C171.21 18.8091 171.453 19.5174 171.54 20.2528Z" fill="black"/>
    <path d="M178.566 33.2249C178.373 33.1278 178.157 33.0852 177.941 33.1017C177.725 33.1183 177.518 33.1933 177.341 33.3187L54.4217 104.328C53.9367 104.649 53.534 105.079 53.2463 105.585C52.9586 106.09 52.794 106.656 52.7657 107.237V191.511C52.7485 191.795 52.805 192.079 52.9297 192.336C53.0545 192.592 53.2432 192.812 53.4778 192.974C53.7483 193.123 55.1945 193.962 55.6251 194.194C55.7774 194.271 55.9476 194.307 56.1183 194.297C56.289 194.288 56.454 194.233 56.5966 194.138L179.488 123.129C179.973 122.808 180.376 122.378 180.664 121.872C180.951 121.367 181.116 120.801 181.144 120.22V35.5102C181.169 35.2961 181.134 35.0794 181.042 34.8844C180.95 34.6894 180.806 34.5238 180.625 34.4062C180.349 34.224 178.876 33.407 178.566 33.2249Z" fill="#51B5B7"/>
    <path d="M56.569 105.52L179.494 34.5386C180.421 33.9866 181.15 34.4392 181.15 35.5101V120.22C181.122 120.801 180.957 121.367 180.669 121.872C180.382 122.378 179.979 122.808 179.494 123.129L56.569 194.138C55.6416 194.69 54.913 193.802 54.913 192.731V108.429C54.9421 107.849 55.1071 107.283 55.3948 106.778C55.6824 106.272 56.0846 105.842 56.569 105.52Z" fill="#FAFAFA"/>
    <path d="M180.245 34.8588C180.57 34.8588 180.62 35.2672 180.62 35.5101V120.22C180.59 120.706 180.447 121.179 180.203 121.601C179.959 122.022 179.62 122.381 179.212 122.649L56.304 193.658C56.2215 193.712 56.1262 193.742 56.028 193.746C55.7189 193.746 55.476 193.272 55.476 192.731V108.429C55.5026 107.943 55.641 107.47 55.8803 107.045C56.1197 106.621 56.4535 106.258 56.856 105.984L179.77 35.0133C179.912 34.9216 180.076 34.8683 180.245 34.8588ZM180.245 34.3068C179.979 34.3181 179.72 34.3979 179.494 34.5386L56.569 105.52C56.0846 105.842 55.6824 106.272 55.3948 106.778C55.1071 107.283 54.9421 107.849 54.913 108.429V192.731C54.913 193.581 55.3877 194.298 56.017 194.298C56.2119 194.295 56.4023 194.24 56.569 194.138L179.488 123.129C179.973 122.808 180.376 122.378 180.664 121.872C180.951 121.367 181.116 120.801 181.144 120.22V35.5101C181.144 34.7484 180.769 34.3068 180.217 34.3068H180.245Z" fill="#E0E0E0"/>
    <path d="M53.4446 192.974C53.6268 193.067 54.935 193.813 55.5091 194.144C55.303 193.973 55.1397 193.756 55.0324 193.511C54.925 193.265 54.8766 192.998 54.8909 192.731V113.933L52.7381 112.674V191.511C52.7203 191.795 52.7759 192.079 52.8997 192.335C53.0234 192.591 53.2111 192.811 53.4446 192.974Z" fill="#F0F0F0"/>
    <path d="M181.172 35.4935C181.172 34.4337 180.416 34.0031 179.516 34.5386L56.569 105.52C56.0846 105.842 55.6824 106.272 55.3948 106.778C55.1071 107.283 54.9421 107.849 54.913 108.429V113.949L181.172 41.0135V35.4935Z" fill="#51B5B7"/>
    <g opacity="0.4">
        <path d="M179.494 34.5386L56.569 105.515C56.0756 105.826 55.6692 106.257 55.3877 106.768L53.2514 105.526C53.5325 105.033 53.9354 104.62 54.4217 104.328L177.341 33.3187C177.517 33.1924 177.724 33.1164 177.94 33.0989C178.156 33.0814 178.372 33.123 178.566 33.2193C178.865 33.407 180.261 34.1964 180.62 34.3896C180.434 34.3207 180.235 34.2983 180.038 34.3243C179.842 34.3503 179.655 34.4238 179.494 34.5386Z" fill="white"/>
    </g>
    <path opacity="0.15" d="M52.7381 112.68V107.209C52.7608 106.613 52.9377 106.033 53.2515 105.526L55.3932 106.762C55.0839 107.261 54.9107 107.832 54.8909 108.418V113.938L52.7381 112.68Z" fill="black"/>
    <path d="M155.25 99.0398L81.6298 141.544C81.2718 141.776 80.9737 142.09 80.7598 142.459C80.5459 142.828 80.4222 143.243 80.3988 143.669V164.778C80.4222 165.204 80.5459 165.618 80.7598 165.988C80.9737 166.357 81.2718 166.67 81.6298 166.903L83.777 168.139C84.1587 168.332 84.5803 168.433 85.008 168.433C85.4357 168.433 85.8573 168.332 86.239 168.139L159.848 125.635C160.206 125.402 160.504 125.087 160.718 124.717C160.932 124.347 161.056 123.931 161.079 123.504V102.39C161.056 101.964 160.932 101.55 160.718 101.18C160.504 100.811 160.206 100.498 159.848 100.265L157.695 99.0288C157.315 98.8389 156.896 98.7409 156.471 98.7428C156.047 98.7447 155.628 98.8465 155.25 99.0398Z" fill="#51B5B7"/>
    <path opacity="0.5" d="M161.079 102.203C160.991 101.568 160.477 101.336 159.859 101.695L86.239 144.199C85.8759 144.425 85.5774 144.74 85.3723 145.115L80.7631 142.455C80.9697 142.085 81.2658 141.774 81.6242 141.549L155.25 99.0454C155.631 98.8519 156.051 98.7511 156.478 98.7511C156.905 98.7511 157.326 98.8519 157.706 99.0454L159.859 100.282C160.187 100.497 160.466 100.779 160.676 101.111C160.887 101.442 161.024 101.814 161.079 102.203Z" fill="white"/>
    <path d="M86.0292 168.244C85.6687 168.386 85.2824 168.451 84.8953 168.434C84.5082 168.416 84.1291 168.318 83.7826 168.145L81.6298 166.908C81.2724 166.675 80.9747 166.362 80.7609 165.992C80.5471 165.623 80.423 165.209 80.3988 164.783V143.675C80.4154 143.244 80.5407 142.824 80.7631 142.455L85.3723 145.115C85.1483 145.48 85.0228 145.896 85.008 146.324V167.438C85.008 168.139 85.4496 168.465 86.0292 168.244Z" fill="#263238"/>
    <path d="M86.239 144.199L159.859 101.695C160.538 101.303 161.09 101.618 161.09 102.401V123.515C161.067 123.942 160.943 124.358 160.729 124.728C160.515 125.098 160.217 125.413 159.859 125.646L86.25 168.15C85.571 168.542 85.019 168.222 85.019 167.438V146.33C85.0412 145.904 85.1631 145.489 85.3751 145.119C85.587 144.749 85.8829 144.434 86.239 144.199Z" fill="#51B5B7"/>
    <path d="M135.731 110.312L81.6353 141.549C81.2769 141.774 80.9808 142.085 80.7742 142.455L85.3834 145.115C85.5884 144.74 85.8869 144.425 86.25 144.199L140.346 112.967L135.731 110.312Z" fill="#455A64"/>
    <path d="M140.335 112.967L86.239 144.199C85.8808 144.432 85.5828 144.747 85.3689 145.117C85.155 145.487 85.0314 145.903 85.008 146.33V167.433C85.008 168.216 85.56 168.537 86.239 168.145L140.335 136.913V112.967Z" fill="#37474F"/>
    <path d="M98.7142 141.627L126.629 125.514C127.782 124.846 128.721 125.32 128.721 126.574C128.669 127.277 128.452 127.959 128.088 128.563C127.724 129.167 127.222 129.677 126.623 130.051L98.7142 146.17C97.5605 146.837 96.6166 146.363 96.6166 145.11C96.6686 144.405 96.8856 143.723 97.25 143.118C97.6144 142.513 98.1159 142.002 98.7142 141.627Z" fill="#E27B14"/>
    <path d="M104.433 146.964C104.438 146.959 104.444 146.954 104.452 146.951C104.459 146.947 104.466 146.946 104.474 146.946C104.482 146.946 104.49 146.947 104.497 146.951C104.504 146.954 104.51 146.959 104.516 146.964C104.54 147.002 104.552 147.047 104.549 147.091V150.232C104.549 150.536 104.523 150.839 104.472 151.138C104.426 151.411 104.348 151.678 104.24 151.932C104.141 152.166 104.011 152.385 103.853 152.584C103.698 152.768 103.511 152.923 103.301 153.042C103.137 153.149 102.945 153.207 102.749 153.208C102.674 153.202 102.601 153.18 102.535 153.145C102.469 153.11 102.41 153.062 102.363 153.003C102.242 152.841 102.162 152.652 102.131 152.451C102.078 152.184 102.054 151.912 102.059 151.64V148.494C102.059 148.438 102.07 148.384 102.092 148.333C102.106 148.288 102.135 148.249 102.175 148.223L102.523 148.019C102.534 148.008 102.549 148.002 102.564 148.002C102.58 148.002 102.595 148.008 102.606 148.019C102.631 148.056 102.643 148.101 102.639 148.146V151.248C102.635 151.419 102.651 151.589 102.689 151.756C102.704 151.862 102.75 151.962 102.821 152.043C102.846 152.072 102.877 152.096 102.913 152.111C102.948 152.127 102.987 152.133 103.025 152.131C103.12 152.125 103.211 152.095 103.29 152.043C103.388 151.984 103.478 151.912 103.555 151.828C103.641 151.728 103.712 151.617 103.765 151.496C103.827 151.355 103.874 151.207 103.903 151.055C103.935 150.873 103.95 150.688 103.947 150.503V147.395C103.949 147.34 103.962 147.285 103.986 147.235C103.999 147.189 104.029 147.15 104.069 147.125L104.433 146.964Z" fill="#FAFAFA"/>
    <path d="M106.597 149.934C106.6 149.894 106.59 149.853 106.569 149.818C106.556 149.804 106.54 149.793 106.521 149.786C106.503 149.779 106.484 149.777 106.464 149.78C106.396 149.77 106.328 149.77 106.26 149.78L105.94 149.84C105.837 149.866 105.729 149.866 105.625 149.84C105.544 149.814 105.474 149.762 105.427 149.691C105.373 149.602 105.337 149.502 105.322 149.399C105.268 149.103 105.268 148.8 105.322 148.504C105.363 148.335 105.422 148.17 105.498 148.013C105.574 147.856 105.666 147.708 105.774 147.572C105.879 147.441 106.006 147.331 106.15 147.246C106.266 147.175 106.396 147.13 106.531 147.113C106.628 147.103 106.727 147.125 106.812 147.174C106.893 147.224 106.957 147.297 106.994 147.384C107.039 147.487 107.063 147.597 107.066 147.71C107.072 147.765 107.06 147.821 107.033 147.87C107.019 147.915 106.99 147.954 106.95 147.98L106.619 148.173C106.604 148.182 106.587 148.187 106.569 148.187C106.552 148.187 106.535 148.182 106.519 148.173L106.448 148.118C106.419 148.096 106.385 148.082 106.348 148.079C106.277 148.087 106.209 148.112 106.15 148.151C106.063 148.203 105.986 148.271 105.923 148.35C105.857 148.437 105.821 148.544 105.824 148.654C105.816 148.695 105.816 148.739 105.824 148.78C105.835 148.796 105.848 148.809 105.865 148.819C105.881 148.828 105.899 148.834 105.918 148.836C105.978 148.846 106.04 148.846 106.1 148.836L106.409 148.78C106.669 148.731 106.845 148.78 106.961 148.924C107.083 149.129 107.139 149.366 107.121 149.603C107.12 149.767 107.097 149.93 107.055 150.089C107.011 150.261 106.948 150.428 106.867 150.586C106.786 150.749 106.684 150.901 106.564 151.038C106.449 151.172 106.313 151.286 106.161 151.375C106.039 151.452 105.901 151.5 105.758 151.513C105.654 151.517 105.552 151.488 105.465 151.43C105.38 151.372 105.314 151.289 105.277 151.193C105.233 151.088 105.21 150.975 105.211 150.862C105.206 150.804 105.218 150.747 105.244 150.696C105.258 150.65 105.287 150.611 105.327 150.586L105.658 150.392C105.703 150.392 105.736 150.365 105.758 150.392L105.829 150.47C105.844 150.486 105.862 150.499 105.882 150.509C105.902 150.518 105.923 150.524 105.945 150.525C106.023 150.525 106.099 150.5 106.161 150.453C106.26 150.396 106.35 150.324 106.426 150.238C106.463 150.192 106.495 150.142 106.519 150.089C106.558 150.045 106.585 149.992 106.597 149.934Z" fill="#FAFAFA"/>
    <path d="M107.723 148.438C107.722 148.152 107.746 147.865 107.795 147.583C107.841 147.317 107.913 147.056 108.01 146.804C108.091 146.579 108.202 146.365 108.341 146.17C108.457 146.001 108.607 145.86 108.783 145.756C108.911 145.67 109.067 145.636 109.219 145.662C109.354 145.693 109.472 145.774 109.55 145.888C109.654 146.038 109.727 146.207 109.765 146.385C109.818 146.617 109.844 146.854 109.842 147.091V147.434C109.844 147.491 109.831 147.548 109.804 147.599C109.79 147.645 109.761 147.684 109.721 147.71L108.286 148.543C108.282 148.64 108.295 148.737 108.324 148.83C108.346 148.893 108.384 148.948 108.435 148.99C108.48 149.026 108.537 149.044 108.595 149.04C108.662 149.032 108.726 149.01 108.783 148.974C108.866 148.928 108.941 148.869 109.003 148.797C109.06 148.734 109.108 148.663 109.147 148.587C109.171 148.544 109.196 148.501 109.224 148.46C109.248 148.432 109.276 148.408 109.307 148.389L109.649 148.19C109.661 148.181 109.676 148.175 109.691 148.175C109.706 148.175 109.72 148.181 109.732 148.19C109.747 148.207 109.757 148.228 109.763 148.25C109.769 148.272 109.769 148.295 109.765 148.317C109.759 148.425 109.737 148.531 109.699 148.632C109.651 148.785 109.588 148.933 109.511 149.073C109.425 149.235 109.321 149.387 109.202 149.526C109.083 149.668 108.942 149.789 108.783 149.885C108.652 149.97 108.496 150.007 108.341 149.989C108.205 149.957 108.087 149.874 108.01 149.758C107.901 149.59 107.828 149.402 107.795 149.206C107.744 148.953 107.72 148.696 107.723 148.438ZM108.783 146.677C108.698 146.723 108.624 146.787 108.567 146.865C108.506 146.942 108.456 147.028 108.418 147.119C108.38 147.21 108.348 147.304 108.324 147.401C108.305 147.488 108.292 147.576 108.286 147.666L109.257 147.114C109.252 147.037 109.241 146.962 109.224 146.887C109.216 146.821 109.189 146.757 109.147 146.705C109.13 146.681 109.109 146.661 109.084 146.646C109.06 146.631 109.032 146.621 109.003 146.617C108.925 146.61 108.847 146.632 108.783 146.677Z" fill="#FAFAFA"/>
    <path d="M111.576 145.137C111.408 145.233 111.277 145.38 111.2 145.557C111.114 145.79 111.075 146.037 111.084 146.285V148.278C111.085 148.335 111.074 148.392 111.051 148.444C111.038 148.489 111.008 148.528 110.969 148.554L110.643 148.742C110.638 148.748 110.631 148.752 110.624 148.756C110.617 148.759 110.609 148.761 110.601 148.761C110.594 148.761 110.586 148.759 110.579 148.756C110.572 148.752 110.565 148.748 110.56 148.742C110.535 148.704 110.524 148.66 110.527 148.615V145.043C110.527 144.987 110.538 144.93 110.56 144.878C110.576 144.833 110.604 144.795 110.643 144.767L110.969 144.58C110.98 144.569 110.995 144.563 111.01 144.563C111.025 144.563 111.04 144.569 111.051 144.58C111.077 144.615 111.089 144.658 111.084 144.701V144.878C111.15 144.73 111.232 144.589 111.327 144.458C111.415 144.337 111.528 144.237 111.659 144.166L111.857 144.05C111.868 144.04 111.881 144.034 111.896 144.034C111.91 144.034 111.924 144.04 111.935 144.05C111.961 144.087 111.975 144.131 111.973 144.177V144.679C111.972 144.736 111.959 144.793 111.935 144.845C111.921 144.888 111.894 144.927 111.857 144.955L111.576 145.137Z" fill="#FAFAFA"/>
    <path d="M115.694 144.872C115.699 144.866 115.705 144.862 115.712 144.859C115.72 144.855 115.727 144.854 115.735 144.854C115.743 144.854 115.751 144.855 115.758 144.859C115.765 144.862 115.771 144.866 115.776 144.872C115.801 144.91 115.813 144.955 115.81 144.999V145.551C115.809 145.608 115.798 145.664 115.776 145.717C115.758 145.758 115.729 145.794 115.694 145.822L113.806 146.926C113.795 146.936 113.78 146.942 113.764 146.942C113.749 146.942 113.734 146.936 113.723 146.926C113.698 146.89 113.687 146.847 113.69 146.804V141.836C113.69 141.78 113.701 141.723 113.723 141.671C113.738 141.628 113.768 141.591 113.806 141.566L114.154 141.362C114.165 141.351 114.18 141.345 114.195 141.345C114.21 141.345 114.225 141.351 114.236 141.362C114.261 141.397 114.273 141.44 114.27 141.483V145.684L115.694 144.872Z" fill="#FAFAFA"/>
    <path d="M117.388 140.788C117.513 140.702 117.663 140.661 117.813 140.672C117.943 140.682 118.063 140.741 118.15 140.837C118.253 140.955 118.328 141.095 118.371 141.246C118.43 141.441 118.463 141.643 118.47 141.847C118.47 141.892 118.47 141.952 118.47 142.024V142.449C118.47 142.515 118.47 142.576 118.47 142.626C118.459 142.866 118.426 143.104 118.371 143.338C118.32 143.566 118.246 143.787 118.15 144C118.063 144.198 117.949 144.384 117.813 144.552C117.697 144.705 117.553 144.834 117.388 144.933C117.261 145.016 117.11 145.057 116.958 145.049C116.83 145.038 116.712 144.979 116.627 144.883C116.521 144.769 116.445 144.631 116.406 144.48C116.347 144.285 116.313 144.083 116.306 143.879C116.306 143.835 116.306 143.779 116.306 143.708V143.283C116.306 143.211 116.306 143.15 116.306 143.106C116.313 142.864 116.344 142.624 116.4 142.388C116.454 142.159 116.53 141.935 116.627 141.72C116.714 141.524 116.825 141.338 116.958 141.168C117.075 141.014 117.221 140.885 117.388 140.788ZM117.907 142.212C117.907 142.09 117.886 141.968 117.846 141.853C117.826 141.783 117.783 141.721 117.725 141.676C117.678 141.645 117.621 141.631 117.565 141.638C117.502 141.65 117.442 141.674 117.388 141.709C117.323 141.745 117.264 141.79 117.212 141.842C117.148 141.908 117.094 141.982 117.052 142.063C116.996 142.163 116.955 142.271 116.93 142.383C116.894 142.524 116.872 142.668 116.864 142.813C116.864 142.858 116.864 142.907 116.864 142.968V143.36C116.864 143.421 116.864 143.47 116.864 143.503C116.869 143.626 116.891 143.746 116.93 143.862C116.95 143.933 116.993 143.995 117.052 144.039C117.075 144.055 117.101 144.066 117.128 144.072C117.156 144.078 117.184 144.078 117.212 144.072C117.274 144.061 117.334 144.039 117.388 144.006C117.452 143.969 117.512 143.924 117.565 143.873C117.627 143.806 117.68 143.732 117.725 143.652C117.778 143.551 117.819 143.444 117.846 143.332C117.883 143.191 117.903 143.047 117.907 142.902C117.911 142.85 117.911 142.799 117.907 142.747V142.361C117.91 142.311 117.91 142.261 117.907 142.212Z" fill="#FAFAFA"/>
    <path d="M120.159 144.017C120.23 143.974 120.293 143.92 120.347 143.857C120.414 143.779 120.471 143.694 120.518 143.603C120.573 143.492 120.616 143.375 120.645 143.255C120.679 143.12 120.696 142.981 120.695 142.841V142.559C120.695 142.615 120.64 142.681 120.601 142.758C120.563 142.839 120.519 142.916 120.468 142.99C120.411 143.068 120.348 143.141 120.281 143.211C120.212 143.283 120.131 143.345 120.043 143.393C119.987 143.432 119.923 143.459 119.855 143.472C119.788 143.485 119.719 143.485 119.652 143.47C119.529 143.432 119.423 143.352 119.353 143.244C119.263 143.101 119.198 142.945 119.16 142.78C119.113 142.572 119.087 142.359 119.083 142.145C119.083 142.074 119.083 141.985 119.083 141.881C119.083 141.776 119.083 141.687 119.083 141.61C119.09 141.367 119.116 141.126 119.16 140.887C119.206 140.652 119.27 140.421 119.353 140.197C119.431 140.002 119.531 139.817 119.652 139.645C119.753 139.493 119.887 139.365 120.043 139.27C120.117 139.225 120.197 139.194 120.281 139.176C120.343 139.164 120.406 139.164 120.468 139.176C120.517 139.19 120.563 139.214 120.601 139.247C120.636 139.274 120.668 139.306 120.695 139.341V139.165C120.695 139.108 120.706 139.052 120.728 138.999C120.743 138.956 120.772 138.919 120.811 138.894L121.136 138.701C121.148 138.691 121.162 138.685 121.178 138.685C121.193 138.685 121.208 138.691 121.219 138.701C121.246 138.738 121.259 138.783 121.258 138.828V142.416C121.273 142.953 121.173 143.488 120.965 143.984C120.802 144.374 120.52 144.702 120.159 144.922C120.036 144.998 119.896 145.042 119.751 145.049C119.636 145.056 119.523 145.027 119.425 144.966C119.332 144.896 119.256 144.806 119.204 144.701C119.151 144.575 119.121 144.441 119.116 144.304C119.111 144.247 119.122 144.189 119.149 144.138C119.163 144.093 119.192 144.054 119.232 144.028L119.525 143.862C119.531 143.855 119.539 143.849 119.548 143.845C119.557 143.841 119.567 143.839 119.577 143.839C119.587 143.839 119.597 143.841 119.606 143.845C119.615 143.849 119.623 143.855 119.629 143.862C119.657 143.891 119.681 143.922 119.701 143.956C119.735 144.015 119.79 144.059 119.856 144.077C119.922 144.127 120.021 144.072 120.159 144.017ZM119.64 141.34C119.64 141.487 119.64 141.63 119.64 141.77C119.625 141.991 119.687 142.21 119.817 142.388C119.866 142.431 119.929 142.454 119.994 142.454C120.059 142.454 120.121 142.431 120.17 142.388C120.331 142.284 120.456 142.134 120.529 141.958C120.63 141.727 120.686 141.48 120.695 141.229C120.695 141.146 120.695 141.047 120.695 140.931C120.695 140.815 120.695 140.716 120.695 140.644C120.706 140.446 120.647 140.251 120.529 140.092C120.48 140.047 120.416 140.022 120.35 140.022C120.283 140.022 120.219 140.047 120.17 140.092C120.013 140.196 119.89 140.344 119.817 140.517C119.704 140.777 119.644 141.056 119.64 141.34Z" fill="#FAFAFA"/>
    <path d="M122.544 136.438C122.555 136.429 122.569 136.424 122.583 136.424C122.597 136.424 122.61 136.429 122.621 136.438C122.65 136.474 122.664 136.519 122.66 136.565V137.166C122.66 137.224 122.647 137.281 122.621 137.332C122.606 137.374 122.579 137.41 122.544 137.437L122.174 137.652C122.169 137.658 122.163 137.663 122.155 137.666C122.148 137.669 122.141 137.671 122.133 137.671C122.125 137.671 122.117 137.669 122.11 137.666C122.103 137.663 122.097 137.658 122.091 137.652C122.077 137.636 122.066 137.616 122.059 137.596C122.053 137.575 122.051 137.553 122.053 137.531V136.929C122.052 136.872 122.066 136.815 122.091 136.764C122.107 136.72 122.136 136.684 122.174 136.659L122.544 136.438ZM122.638 141.621C122.638 141.676 122.627 141.731 122.605 141.781C122.587 141.825 122.559 141.863 122.522 141.892L122.191 142.079C122.186 142.085 122.18 142.09 122.173 142.093C122.167 142.096 122.159 142.098 122.152 142.098C122.145 142.098 122.137 142.096 122.131 142.093C122.124 142.09 122.118 142.085 122.113 142.079C122.085 142.044 122.071 141.998 122.075 141.952V138.381C122.074 138.323 122.088 138.267 122.113 138.215C122.129 138.172 122.156 138.134 122.191 138.105L122.522 137.917C122.533 137.907 122.548 137.901 122.563 137.901C122.579 137.901 122.593 137.907 122.605 137.917C122.629 137.953 122.641 137.996 122.638 138.039V141.621Z" fill="#FAFAFA"/>
    <path d="M125.541 139.938C125.541 139.994 125.53 140.051 125.508 140.103C125.493 140.146 125.464 140.183 125.425 140.208L125.094 140.401C125.084 140.411 125.07 140.417 125.056 140.417C125.041 140.417 125.027 140.411 125.017 140.401C124.988 140.365 124.974 140.32 124.978 140.274V138.331C124.995 138.102 124.953 137.872 124.857 137.663C124.78 137.525 124.658 137.503 124.487 137.603C124.316 137.717 124.19 137.887 124.128 138.083C124.036 138.343 123.991 138.618 123.996 138.894V140.843C123.995 140.9 123.984 140.956 123.963 141.008C123.949 141.054 123.92 141.093 123.88 141.119L123.554 141.306C123.549 141.312 123.543 141.317 123.535 141.32C123.528 141.323 123.521 141.325 123.513 141.325C123.505 141.325 123.497 141.323 123.49 141.32C123.483 141.317 123.477 141.312 123.471 141.306C123.446 141.271 123.434 141.228 123.438 141.185V137.614C123.437 137.557 123.449 137.5 123.471 137.448C123.485 137.402 123.514 137.363 123.554 137.338L123.88 137.15C123.885 137.144 123.891 137.139 123.899 137.136C123.906 137.133 123.913 137.131 123.921 137.131C123.929 137.131 123.937 137.133 123.944 137.136C123.951 137.139 123.957 137.144 123.963 137.15C123.987 137.187 123.999 137.232 123.996 137.277V137.448C124.068 137.28 124.157 137.119 124.261 136.968C124.352 136.828 124.475 136.713 124.62 136.631C124.745 136.539 124.901 136.5 125.056 136.521C125.117 136.536 125.174 136.564 125.223 136.603C125.273 136.642 125.313 136.691 125.343 136.747C125.423 136.896 125.475 137.059 125.497 137.227C125.527 137.447 125.541 137.668 125.541 137.89V139.938Z" fill="#FAFAFA"/>
    <path d="M153.384 123.869L148.024 126.96L148.858 119.442C148.212 119.099 147.804 118.266 147.804 117.068C147.804 114.932 149.106 112.453 150.707 111.548C152.308 110.643 153.605 111.603 153.605 113.756C153.572 115.023 153.21 116.259 152.556 117.344L153.384 123.869Z" fill="#455A64"/>
    <path d="M153.39 123.869L148.67 121.147L148.024 126.966L153.39 123.869Z" fill="#37474F"/>
    <path d="M150.696 111.532C149.529 112.32 148.658 113.476 148.223 114.816L152.545 117.311C153.199 116.226 153.561 114.99 153.594 113.723C153.605 111.587 152.308 110.61 150.696 111.532Z" fill="#37474F"/>
    <path d="M124.642 86.4983C122.803 85.4385 120.27 85.5875 117.466 87.2049C111.868 90.4396 107.331 98.2946 107.331 104.758C107.331 108.004 108.479 110.278 110.323 111.327L113.894 113.403C115.727 114.463 118.26 114.308 121.07 112.691C126.667 109.462 131.205 101.601 131.205 95.1371C131.205 91.9079 130.068 89.6171 128.235 88.5849" fill="#51B5B7"/>
    <path d="M121.065 89.286C115.467 92.5207 110.93 100.381 110.93 106.84C110.93 113.298 115.467 115.926 121.065 112.691C126.662 109.456 131.205 101.601 131.199 95.1372C131.194 88.6733 126.656 86.0568 121.065 89.286Z" fill="#51B5B7"/>
    <path d="M126.656 103.627V104.367C125.316 106.76 123.392 108.777 121.065 110.229C118.884 111.482 116.914 111.62 115.467 110.82V109.296C115.541 107.711 115.994 106.167 116.787 104.792C117.58 103.418 118.691 102.254 120.027 101.397L121.501 100.547C122.803 99.7961 124.073 99.6967 125.067 100.276C126.06 100.856 126.656 102.076 126.656 103.627Z" fill="#51B5B7"/>
    <path opacity="0.4" d="M124.642 86.4984L128.23 88.5849C126.397 87.5196 123.863 87.6686 121.054 89.286C117.388 91.4056 114.176 95.507 112.398 99.9009L108.805 97.8199C110.588 93.4039 113.773 89.3246 117.46 87.2049C120.275 85.5931 122.809 85.4385 124.642 86.4984Z" fill="white"/>
    <path opacity="0.2" d="M113.767 113.32L110.328 111.327C108.485 110.279 107.336 108.015 107.336 104.759L110.93 106.845C110.952 109.992 112.012 112.233 113.767 113.32Z" fill="black"/>
    <path opacity="0.1" d="M108.816 97.8198L112.409 99.9009C111.489 102.101 110.994 104.455 110.952 106.84L107.358 104.753C107.403 102.371 107.897 100.018 108.816 97.8198Z" fill="black"/>
    <path d="M119.784 100.199C119.442 100.203 119.104 100.115 118.807 99.9451C118.449 99.7062 118.161 99.3749 117.976 98.9863C117.79 98.5976 117.713 98.166 117.753 97.7371C117.799 96.7314 118.087 95.7516 118.59 94.8795C119.093 94.0075 119.798 93.2687 120.645 92.725C120.986 92.4532 121.4 92.2906 121.834 92.2582C122.269 92.2258 122.703 92.3253 123.08 92.5435C123.456 92.7618 123.759 93.0887 123.947 93.4816C124.135 93.8744 124.2 94.3148 124.134 94.7453C124.086 95.7508 123.799 96.7303 123.295 97.6022C122.792 98.4741 122.088 99.213 121.241 99.7575C120.803 100.031 120.3 100.183 119.784 100.199Z" fill="white"/>
    <path d="M125.067 100.271C124.073 99.6911 122.803 99.7905 121.501 100.541L120.027 101.391C118.691 102.249 117.579 103.414 116.786 104.789C115.993 106.165 115.541 107.71 115.467 109.296V110.825C116.914 111.625 118.884 111.487 121.065 110.234C123.392 108.782 125.316 106.766 126.656 104.372V103.632C126.656 102.076 126.082 100.856 125.067 100.271Z" fill="white"/>
    <path d="M238.547 195.767C238.547 195.767 239.281 189.319 242.488 184.313C245.695 179.306 250.1 176.187 254.213 175.862C258.325 175.536 261.648 179.323 257.249 181.934C252.849 184.545 245.033 187.183 241.434 196.898L238.547 195.767Z" fill="#E27B14"/>
    <path opacity="0.1" d="M238.547 195.767C238.547 195.767 239.281 189.319 242.488 184.313C245.695 179.306 250.1 176.187 254.213 175.862C258.325 175.536 261.648 179.323 257.249 181.934C252.849 184.545 245.033 187.183 241.434 196.898L238.547 195.767Z" fill="white"/>
    <path d="M239.756 194.089H239.711C239.657 194.067 239.614 194.024 239.591 193.97C239.569 193.917 239.568 193.856 239.59 193.802C243.929 183.121 252.187 178.655 255.951 177.794C255.98 177.787 256.009 177.786 256.037 177.791C256.066 177.796 256.094 177.806 256.118 177.822C256.143 177.837 256.164 177.857 256.181 177.881C256.198 177.904 256.21 177.931 256.216 177.959C256.223 177.988 256.224 178.017 256.219 178.046C256.214 178.074 256.204 178.102 256.188 178.126C256.173 178.151 256.153 178.172 256.129 178.189C256.106 178.206 256.079 178.218 256.051 178.224C252.363 179.074 244.265 183.457 239.999 193.973C239.977 194.017 239.942 194.052 239.897 194.073C239.853 194.095 239.803 194.1 239.756 194.089Z" fill="white"/>
    <path d="M261.714 194.216C261.344 195.055 260.428 195.496 259.578 195.839C258.728 196.181 257.801 196.551 257.337 197.346C256.409 198.946 257.933 201.21 256.939 202.761C256.705 203.073 256.411 203.335 256.073 203.53C255.735 203.726 255.362 203.851 254.974 203.898C254.339 204.014 253.694 204.014 253.053 204.069C252.747 204.065 252.441 204.041 252.137 203.997C251.245 203.798 250.312 203.897 249.482 204.279C248.207 204.996 247.826 206.603 247.042 207.845C246.563 208.576 245.932 209.195 245.192 209.66C244.452 210.125 243.62 210.425 242.753 210.538C242.201 210.61 241.097 210.715 240.545 210.389C240.502 210.368 240.461 210.342 240.424 210.312C240.341 210.224 240.241 210.108 240.197 210.047C240.194 210.034 240.194 210.021 240.197 210.008C239.971 209.175 240.341 208.314 240.357 207.453V207.298C240.319 206.299 240.291 205.305 240.269 204.312C240.221 202.472 240.203 200.632 240.214 198.792C240.214 197.599 240.081 196.297 240.589 195.176C241.141 193.94 242.532 193.912 243.057 192.703C243.266 192.217 243.377 191.704 243.581 191.213C243.897 190.499 244.402 189.885 245.043 189.438C245.683 188.991 246.434 188.729 247.213 188.679C249.636 188.558 251.806 190.517 254.229 190.335C254.853 190.285 255.466 190.092 256.084 189.982C258.043 189.612 260.312 190.17 261.416 191.831C261.658 192.173 261.812 192.57 261.864 192.986C261.916 193.402 261.865 193.824 261.714 194.216Z" fill="#51B5B7"/>
    <path d="M239.954 206.183C239.902 206.168 239.858 206.133 239.831 206.085C239.804 206.038 239.797 205.982 239.811 205.929C243.156 193.377 256.371 191.577 259.479 191.787C259.506 191.788 259.533 191.795 259.557 191.807C259.582 191.819 259.604 191.836 259.622 191.856C259.64 191.877 259.654 191.901 259.662 191.927C259.671 191.953 259.674 191.98 259.672 192.008C259.666 192.061 259.64 192.111 259.599 192.146C259.558 192.181 259.505 192.199 259.451 192.195C256.42 191.98 243.482 193.752 240.208 206.04C240.193 206.092 240.158 206.136 240.11 206.163C240.063 206.189 240.007 206.197 239.954 206.183Z" fill="white"/>
    <path d="M254.654 199.824C254.612 199.818 254.574 199.799 254.544 199.769C253.322 198.71 251.882 197.934 250.325 197.496C248.769 197.058 247.135 196.969 245.541 197.235C245.487 197.24 245.433 197.225 245.39 197.192C245.347 197.159 245.318 197.112 245.309 197.059C245.301 197.004 245.314 196.949 245.346 196.905C245.378 196.861 245.426 196.831 245.48 196.821C247.143 196.544 248.847 196.639 250.469 197.098C252.092 197.557 253.592 198.369 254.864 199.476C254.883 199.495 254.899 199.518 254.91 199.543C254.92 199.568 254.926 199.595 254.926 199.623C254.926 199.65 254.92 199.677 254.91 199.702C254.899 199.727 254.883 199.75 254.864 199.769C254.839 199.799 254.805 199.82 254.768 199.83C254.73 199.84 254.691 199.838 254.654 199.824Z" fill="white"/>
    <path d="M208.17 44.16L209.926 44.8335V40.9695C209.926 37.9003 212.371 37.1662 215.026 38.7007C217.687 40.2353 219.84 43.9613 219.84 47.0304V47.5824C220.21 47.4694 220.6 47.4414 220.983 47.5007C221.365 47.5599 221.729 47.7049 222.048 47.9247C223.056 48.5821 223.895 49.4681 224.496 50.5107C225.097 51.5532 225.444 52.723 225.509 53.9249V54.1788L227.959 55.5919C228.622 56.0248 229.174 56.6076 229.57 57.2932C229.966 57.9789 230.196 58.7481 230.239 59.5387C230.239 60.996 229.218 61.5867 227.959 60.858L208.17 49.4261C207.507 48.9943 206.955 48.4116 206.559 47.7256C206.164 47.0397 205.937 46.2699 205.896 45.4793C205.896 44.0275 206.906 43.4369 208.17 44.16Z" fill="#E6E6E6"/>
    <path d="M231.68 41.102L234.865 42.9401C234.848 42.8009 234.838 42.6609 234.837 42.5206V41.5988C234.837 39.9428 235.986 39.2914 237.41 40.1139C238.022 40.4886 238.545 40.9914 238.944 41.5877C239.176 39.5232 240.799 38.756 242.764 39.8876C243.887 40.6182 244.822 41.6032 245.493 42.7627C246.165 43.9222 246.554 45.2235 246.628 46.5612V47.9412C246.642 48.4926 246.531 49.04 246.302 49.542L248.952 51.0656C249.365 51.3394 249.708 51.7063 249.953 52.1367C250.199 52.5672 250.34 53.0492 250.365 53.544C250.365 54.4548 249.725 54.8247 248.935 54.372L231.68 44.436C231.263 44.1641 230.915 43.7973 230.667 43.3656C230.419 42.9339 230.276 42.4495 230.25 41.952C230.25 41.0192 230.891 40.6493 231.68 41.102Z" fill="#E6E6E6"/>
    <path d="M219.348 124.879C217.03 128.798 214.8 132.204 213.232 133.838C210.257 135.218 203.269 137.349 200.536 137.702C200.056 137.763 199.57 137.649 199.167 137.382C198.091 136.675 197.257 136.559 196.126 136.167C195.237 135.864 194.862 135.439 194.696 135.615C194.525 135.816 194.439 136.075 194.456 136.338C194.474 136.601 194.594 136.847 194.79 137.023C195.214 137.426 195.685 137.778 196.192 138.072C194.98 138.372 193.715 138.395 192.493 138.138C190.125 137.514 189.01 138.651 190.611 141.224C191.163 142.14 193.437 143.614 198.008 143.216C199.638 143.128 201.262 142.944 202.871 142.664C207.254 141.726 212.128 140.821 215.125 139.904C216.24 139.466 217.238 138.774 218.04 137.884C223.08 132.138 224.752 128.042 226.96 124.321L226.773 118.249C223.196 118.128 221.286 121.6 219.348 124.879Z" fill="#FFA8A7"/>
    <path d="M227.385 118.128C226.348 117.982 225.291 118.123 224.328 118.534C223.365 118.946 222.532 119.613 221.921 120.463C219.47 123.604 215.131 131.144 215.131 131.144C215.131 131.144 216.55 134.925 220.38 135.56L226.535 127.247C226.535 127.247 229.45 121.473 227.385 118.128Z" fill="#455A64"/>
    <path d="M240.694 202.882H236.681V210.036H240.694V202.882Z" fill="#FFA8A7"/>
    <path d="M226.784 202.501L222.776 202.645L222.572 195.071L226.784 194.928V202.501Z" fill="#FFA8A7"/>
    <path d="M241.257 140.953C241.257 144.939 240.672 177.048 240.672 177.048C240.76 178.197 241.776 180.316 241.572 184.727C241.268 190.716 240.865 206.459 240.865 206.459C240.176 206.812 239.416 207.003 238.643 207.018C237.869 207.033 237.102 206.872 236.4 206.547C236.4 206.547 233.143 184.467 232.425 178.555C231.796 173.372 230.184 156.216 230.184 156.216L228.015 176.496C228.475 178.672 228.642 180.9 228.511 183.12C228.324 185.88 227.032 200.166 227.032 200.166C226.339 200.575 225.561 200.821 224.759 200.885C223.957 200.949 223.15 200.83 222.401 200.536C222.401 200.536 220.116 179.008 220.071 176.48C220.016 173.609 221.407 140.92 221.407 140.92L241.257 140.953Z" fill="#37474F"/>
    <path d="M236.681 207.972V207.375C236.295 207.546 235.406 211.09 233.811 212.603C232.547 213.806 230.824 215.192 230.383 216.533C229.941 217.874 232.784 218.697 233.971 218.482C235.34 218.228 237.724 217.218 238.32 216.274C238.917 215.33 239.198 213.961 239.684 213.276C240.17 212.592 241.29 211.83 241.55 211.035C241.631 210.291 241.553 209.539 241.323 208.827C241.136 208.087 240.937 207.276 240.694 207.348V207.8C240.128 208.265 239.417 208.515 238.685 208.507C238.1 208.557 236.676 208.435 236.681 207.972Z" fill="#263238"/>
    <path d="M222.732 201.353C222.522 201.353 222.351 201.668 221.893 202.187C221.212 202.903 220.415 203.5 219.536 203.953C218.034 204.737 215.12 205.94 213.79 206.564C212.962 206.95 213 207.988 213.856 208.579C214.711 209.169 216.77 209.594 219.243 209.02C220.59 208.706 222.346 207.408 223.461 207.48C224.576 207.552 226.646 207.53 227.468 206.928C228.291 206.327 227.959 205.079 227.728 204.003C227.474 202.821 227.176 200.983 226.784 201.066V201.48C226.303 202.242 223.814 202.551 222.754 201.993L222.732 201.353Z" fill="#263238"/>
    <path d="M230.184 156.216C228.096 155.533 226.188 154.392 224.598 152.876C224.598 152.876 225.702 154.979 228.881 156.939L228.197 175.05L230.184 156.216Z" fill="#263238"/>
    <path d="M239.016 118.713C239.016 118.713 242.328 119.475 242.091 125.459L241.401 134.981V149.277C238.453 152.622 225.393 152.38 220.894 149.012C220.894 149.012 221.402 132.094 221.705 125.58C221.921 120.954 222.986 118.625 227.534 118.117L233.126 118.36L239.016 118.713Z" fill="#51B5B7"/>
    <path d="M234.799 106.282C234.818 107.083 234.678 107.88 234.388 108.627C234.097 109.374 233.662 110.056 233.107 110.634C232.551 111.211 231.887 111.674 231.153 111.993C230.418 112.313 229.627 112.485 228.826 112.498C225.514 112.498 223.571 109.638 222.853 106.282C221.529 100.138 225.525 100.061 228.826 100.061C230.443 100.094 231.98 100.768 233.1 101.935C234.22 103.102 234.831 104.665 234.799 106.282Z" fill="#263238"/>
    <path d="M237.846 108.794C237.846 108.794 236.929 113.276 236.56 114.016C236.327 114.461 235.931 114.799 235.456 114.96L235.522 111.808L237.846 108.794Z" fill="#263238"/>
    <path d="M236.692 102.374C236.692 102.374 237.349 102.208 238.05 103.301C238.646 104.234 238.784 106.332 237.846 108.821L236.118 109.031L236.692 102.374Z" fill="#263238"/>
    <path d="M237.327 103.285L239.447 103.323C239.461 103.186 239.447 103.048 239.406 102.917C239.364 102.785 239.296 102.664 239.205 102.56C239.114 102.457 239.003 102.373 238.878 102.314C238.754 102.255 238.618 102.223 238.481 102.219C238.191 102.224 237.913 102.335 237.7 102.531C237.487 102.728 237.354 102.996 237.327 103.285Z" fill="#263238"/>
    <path d="M237.586 102.782L239.154 101.275C239.064 101.169 238.952 101.082 238.827 101.021C238.701 100.96 238.564 100.925 238.425 100.92C238.285 100.914 238.146 100.937 238.016 100.988C237.886 101.039 237.768 101.116 237.669 101.215C237.461 101.418 237.337 101.692 237.322 101.982C237.307 102.273 237.401 102.558 237.586 102.782Z" fill="#263238"/>
    <path d="M235.599 109.003C235.947 109.219 236.438 108.529 236.869 108.06C237.299 107.59 238.635 107.16 239.331 108.683C240.026 110.207 238.839 111.714 237.846 112.211C236.063 113.094 235.5 111.808 235.5 111.808L235.351 118.906C232.845 122.77 227.159 122.649 229.207 118.719V116.56C228.365 116.7 227.509 116.745 226.657 116.693C225.266 116.472 224.394 115.329 223.968 113.762C223.295 111.245 223.036 109.213 223.61 104.262C224.239 98.8411 230.3 98.7804 233.546 100.95C236.791 103.119 235.599 109.003 235.599 109.003Z" fill="#FFA8A7"/>
    <path d="M228.048 103.417C229.494 103.274 230.924 102.976 232.375 102.865C232.689 102.827 233.006 102.842 233.314 102.909C234.418 103.213 234.285 104.505 234.462 105.404C234.766 106.961 235.014 109.594 235.599 109.605C235.776 109.605 236.438 108.462 236.869 108.054C237.105 107.702 237.239 107.291 237.255 106.867C237.366 106.227 237.421 105.57 237.47 104.919C237.515 104.367 237.57 103.815 237.57 103.263C237.595 102.639 237.545 102.014 237.421 101.402C237.282 100.882 237.017 100.404 236.648 100.011L236.538 99.8899C235.81 99.1292 234.927 98.5343 233.949 98.1456C232.541 97.6183 231.065 97.2967 229.566 97.1906C228.069 97.0846 226.578 96.9003 225.1 96.6386C225.015 96.6139 224.925 96.6139 224.841 96.6386C224.781 96.6718 224.73 96.7195 224.693 96.7774C224.657 96.8353 224.635 96.9015 224.631 96.9698C224.57 97.3128 224.608 97.666 224.74 97.9884C224.872 98.3108 225.092 98.5892 225.376 98.7914C224.377 98.8687 223.229 98.3498 222.268 98.0849C222.191 98.0519 222.107 98.0349 222.023 98.0349C221.938 98.0349 221.855 98.0519 221.777 98.0849C221.681 98.1522 221.612 98.2523 221.584 98.3664C221.514 98.6257 221.505 98.8977 221.556 99.1613C221.644 99.9602 221.941 100.722 222.417 101.369C223.161 102.338 224.212 103.025 225.398 103.318C226.271 103.486 227.165 103.52 228.048 103.417Z" fill="#263238"/>
    <path d="M229.212 116.56C229.212 116.56 232.315 115.909 233.397 115.307C234.041 114.955 234.564 114.416 234.898 113.762C234.735 114.419 234.444 115.038 234.042 115.583C233.253 116.643 229.212 117.416 229.212 117.416V116.56Z" fill="#F28F8F"/>
    <path d="M229.958 108.192C229.952 108.362 230.013 108.528 230.129 108.653C230.245 108.778 230.406 108.853 230.576 108.86C230.711 108.871 230.847 108.841 230.964 108.774C231.082 108.707 231.177 108.605 231.237 108.483C231.296 108.361 231.317 108.224 231.297 108.09C231.277 107.956 231.218 107.831 231.125 107.731C231.033 107.632 230.913 107.562 230.781 107.532C230.648 107.502 230.51 107.512 230.384 107.562C230.258 107.612 230.149 107.699 230.073 107.811C229.997 107.924 229.957 108.056 229.958 108.192Z" fill="#263238"/>
    <path d="M230.951 105.515L232.282 106.282C232.378 106.093 232.4 105.874 232.343 105.67C232.286 105.465 232.153 105.289 231.972 105.178C231.884 105.129 231.787 105.098 231.686 105.088C231.585 105.078 231.484 105.09 231.388 105.121C231.292 105.153 231.203 105.204 231.128 105.272C231.053 105.34 230.993 105.423 230.951 105.515Z" fill="#263238"/>
    <path d="M229.488 112.669L228.07 113.221C228.098 113.318 228.147 113.408 228.212 113.486C228.276 113.564 228.357 113.628 228.447 113.673C228.538 113.719 228.637 113.745 228.738 113.751C228.839 113.757 228.941 113.742 229.036 113.706C229.229 113.623 229.383 113.47 229.467 113.277C229.551 113.084 229.559 112.867 229.488 112.669Z" fill="#F28F8F"/>
    <path d="M224.25 106.083L225.464 105.112C225.41 105.027 225.338 104.955 225.254 104.899C225.17 104.844 225.075 104.807 224.975 104.791C224.876 104.775 224.774 104.78 224.677 104.806C224.579 104.831 224.489 104.877 224.41 104.941C224.248 105.078 224.142 105.271 224.112 105.481C224.083 105.692 224.132 105.906 224.25 106.083Z" fill="#263238"/>
    <path d="M224.785 108.01C224.795 108.131 224.84 108.246 224.914 108.342C224.988 108.438 225.088 108.51 225.203 108.55C225.317 108.589 225.441 108.595 225.559 108.565C225.676 108.536 225.783 108.473 225.865 108.384C225.947 108.295 226.002 108.184 226.022 108.065C226.042 107.945 226.028 107.823 225.979 107.711C225.931 107.6 225.851 107.506 225.75 107.439C225.649 107.372 225.53 107.337 225.409 107.336C225.324 107.339 225.24 107.359 225.162 107.394C225.085 107.43 225.015 107.48 224.957 107.543C224.899 107.606 224.854 107.679 224.824 107.759C224.795 107.839 224.782 107.925 224.785 108.01Z" fill="#263238"/>
    <path d="M228.114 107.491L228.042 111.416L225.812 110.908L228.114 107.491Z" fill="#F28F8F"/>
    <path d="M175.155 140.363L178.616 138.364L179.985 136.703L176.53 138.701L175.155 140.363Z" fill="#BA68C8"/>
    <path opacity="0.4" d="M175.155 140.363L178.616 138.364L179.985 136.703L176.53 138.701L175.155 140.363Z" fill="black"/>
    <path d="M184.567 145.794L188.028 143.796L190.915 141.24L187.459 143.233L184.567 145.794Z" fill="#BA68C8"/>
    <path opacity="0.4" d="M184.567 145.794L188.028 143.796L190.915 141.24L187.459 143.233L184.567 145.794Z" fill="black"/>
    <path d="M213.966 152.689C214.785 153.786 215.28 155.09 215.396 156.453C214.581 155.354 214.086 154.051 213.966 152.689ZM222.009 152.794C220.844 144.872 216.588 137.039 211.521 134.108C209.087 132.701 206.834 132.651 205.029 133.705L201.773 135.582L201.59 135.693C201.445 135.772 201.305 135.861 201.171 135.958C200.903 136.142 200.652 136.349 200.42 136.576L200.31 136.681C200.21 136.78 200.106 136.896 200.012 137.006C199.918 137.117 199.774 137.288 199.664 137.437C199.43 137.745 199.217 138.07 199.029 138.408C198.93 138.58 198.836 138.762 198.748 138.96L170.303 122.544L166.848 124.537V126.745L167.14 126.91L167.416 127.07V127.512L166.864 127.838V129.118L171.043 137.95L175.172 140.34L176.546 138.684L180.189 140.865L182.281 144.447L184.589 145.778L187.476 143.216L191.02 145.264L192.212 150.183L198.168 153.627C198.462 154.879 198.831 156.112 199.272 157.32C199.311 157.441 199.36 157.568 199.41 157.706C201.386 162.895 204.527 167.339 208.071 169.387C208.496 169.639 208.941 169.855 209.401 170.033C209.645 170.129 209.894 170.212 210.146 170.281C210.367 170.34 210.588 170.389 210.809 170.43C211.506 170.557 212.22 170.557 212.917 170.43L213.204 170.358C213.342 170.331 213.476 170.292 213.607 170.242L213.917 170.121C214.026 170.081 214.131 170.031 214.231 169.972C214.333 169.928 214.433 169.878 214.529 169.823L214.673 169.734C214.699 169.726 214.723 169.713 214.745 169.696C215.534 169.243 217.477 168.117 218.007 167.819C220.634 166.295 222.335 162.443 222.335 156.994C222.33 155.588 222.221 154.184 222.009 152.794Z" fill="#51B5B7"/>
    <path d="M212.956 159.373C211.587 158.584 210.483 156.244 210.483 154.146C210.483 152.048 211.587 150.983 212.956 151.767C214.325 152.551 215.424 154.897 215.424 157C215.424 159.103 214.32 160.163 212.956 159.373ZM218.548 154.786C217.389 146.871 213.133 139.032 208.06 136.107C205.708 134.749 203.533 134.649 201.767 135.582L201.585 135.693C201.44 135.772 201.3 135.861 201.165 135.958C200.898 136.142 200.647 136.349 200.415 136.576L200.304 136.681C200.205 136.78 200.1 136.896 200.006 137.006C199.912 137.117 199.769 137.288 199.658 137.437C199.424 137.745 199.212 138.07 199.024 138.409C198.924 138.58 198.83 138.762 198.742 138.961C198.227 140.027 197.856 141.158 197.638 142.322L166.842 124.537V126.745L167.135 126.91L167.411 127.07V127.512L166.859 127.838V129.118L171.037 137.95L175.166 140.341L176.541 138.685L180.184 140.865L182.276 144.447L184.583 145.778L187.47 143.216L191.014 145.264L192.206 150.183L198.168 153.627C198.462 154.879 198.831 156.112 199.272 157.32C199.311 157.441 199.36 157.568 199.41 157.706C201.386 162.895 204.527 167.339 208.071 169.387C208.496 169.639 208.941 169.855 209.401 170.033C209.645 170.129 209.894 170.212 210.146 170.281C210.367 170.34 210.588 170.39 210.809 170.43C211.506 170.557 212.22 170.557 212.917 170.43L213.204 170.358C213.342 170.331 213.476 170.292 213.607 170.242L213.917 170.121C214.026 170.081 214.131 170.032 214.231 169.972C214.333 169.928 214.433 169.878 214.529 169.823L214.673 169.735C214.699 169.726 214.723 169.713 214.745 169.696C217.262 168.106 218.879 164.308 218.879 158.993C218.87 157.584 218.759 156.179 218.548 154.786Z" fill="#51B5B7"/>
    <path opacity="0.4" d="M215.424 156.994C215.424 159.097 214.319 160.163 212.956 159.373C211.593 158.584 210.483 156.249 210.483 154.146C210.483 152.043 211.587 150.978 212.956 151.767C213.35 152.007 213.694 152.322 213.966 152.694C214.085 154.057 214.58 155.361 215.396 156.459C215.416 156.637 215.425 156.815 215.424 156.994Z" fill="black"/>
    <path opacity="0.4" d="M222.324 156.989C222.324 162.437 220.623 166.29 217.996 167.813C217.444 168.112 215.523 169.238 214.734 169.69C217.251 168.101 218.868 164.303 218.868 158.987C218.862 157.581 218.755 156.177 218.548 154.786C217.389 146.871 213.133 139.032 208.06 136.107C205.708 134.749 203.533 134.649 201.767 135.582L205.024 133.705C206.829 132.651 209.081 132.701 211.515 134.108C216.588 137.039 220.844 144.872 222.003 152.794C222.214 154.182 222.321 155.584 222.324 156.989Z" fill="white"/>
    <path d="M218.868 158.976C218.868 164.292 217.251 168.09 214.734 169.679C215.523 169.227 217.466 168.101 217.996 167.803C220.623 166.279 222.324 162.426 222.324 156.978C222.324 156.779 222.324 156.575 222.324 156.371L218.868 158.369C218.862 158.584 218.868 158.783 218.868 158.976Z" fill="#51B5B7"/>
    <path opacity="0.1" d="M218.868 158.976C218.868 164.292 217.251 168.09 214.734 169.679C215.523 169.227 217.466 168.101 217.996 167.803C220.623 166.279 222.324 162.426 222.324 156.978C222.324 156.779 222.324 156.575 222.324 156.371L218.868 158.369C218.862 158.584 218.868 158.783 218.868 158.976Z" fill="black"/>
    <path opacity="0.15" d="M197.771 144.58V145.7L166.848 127.849L167.416 127.518V127.054L197.771 144.58Z" fill="black"/>
    <path opacity="0.15" d="M197.771 145.043V145.7L166.848 127.849L167.416 127.517V127.512L197.771 145.043Z" fill="black"/>
    <path opacity="0.15" d="M211.217 167.808C210.045 167.778 208.902 167.437 207.905 166.82C202.866 163.911 198.764 155.255 198.764 147.527C198.764 143.018 200.128 139.65 202.507 138.276C204.163 137.315 206.122 137.437 208.181 138.624C213.216 141.533 217.317 150.216 217.317 157.944C217.317 162.448 215.953 165.821 213.574 167.19C212.857 167.6 212.044 167.813 211.217 167.808ZM204.897 138.193C204.161 138.189 203.438 138.38 202.799 138.745C200.63 139.998 199.333 143.283 199.333 147.522C199.333 155.073 203.307 163.53 208.198 166.334C210.069 167.438 211.841 167.537 213.315 166.687C215.484 165.434 216.781 162.155 216.781 157.916C216.781 150.359 212.807 141.908 207.922 139.098C207.009 138.543 205.965 138.238 204.897 138.215V138.193Z" fill="black"/>
    <path opacity="0.4" d="M198.72 138.949C198.205 140.016 197.834 141.147 197.616 142.311L166.82 124.526L170.275 122.533L198.72 138.949Z" fill="white"/>
    <path d="M238.746 140.677C240.357 137.625 242.201 130.769 243.117 127.308C244.42 122.395 242.311 119.304 239.916 119.177C238.42 119.409 233.49 137.332 233.49 137.332C232.938 137.768 225.448 141.571 223.041 142.526C222.611 142.689 222.136 142.689 221.705 142.526C220.552 142.107 219.762 142.184 218.631 142.074C217.742 141.985 217.295 141.671 217.179 141.858C217.074 142.091 217.06 142.355 217.141 142.598C217.222 142.84 217.391 143.043 217.615 143.167C218.102 143.45 218.621 143.676 219.161 143.84C218.193 144.134 217.185 144.27 216.174 144.243C213.856 144.193 213.022 145.198 214.822 147.555C215.926 149.023 217.753 149.487 221.832 148.079C223.002 147.671 224.592 146.882 226.077 146.346C229.135 145.242 229.941 145.11 232.271 144.32C235.665 143.172 238.028 142.035 238.746 140.677Z" fill="#FFA8A7"/>
    <path d="M239.016 118.713C240.424 118.906 241.776 119.221 242.61 120.369C243.443 121.517 244.111 123.129 243.294 127.518C242.668 130.604 241.831 133.643 240.788 136.614C240.788 136.614 237.509 138.017 234.026 134.462L236.422 125.199C236.422 125.199 236.808 119.177 239.016 118.713Z" fill="#455A64"/>
</svg>
