<svg width="32" height="33" viewBox="0 0 32 33" fill="none" xmlns="http://www.w3.org/2000/svg">
    <path fill-rule="evenodd" clip-rule="evenodd" d="M16.3797 26.2524C16.2089 26.3777 16.0497 26.4915 15.9043 26.5935C15.7491 26.4905 15.5769 26.3721 15.3903 26.2387C14.5101 25.6089 13.3687 24.6845 12.2445 23.5316C9.93869 21.1667 8 18.1479 8 14.9277C8 10.5095 11.5817 6.92773 16 6.92773C20.4183 6.92773 24 10.5095 24 14.9277C24 18.1133 21.9759 21.1235 19.5857 23.5135C18.4261 24.6732 17.2592 25.6076 16.3797 26.2524ZM26 14.9277C26 22.9277 16 28.9277 16 28.9277C15.5 28.9277 6 22.9277 6 14.9277C6 9.40488 10.4771 4.92773 16 4.92773C21.5228 4.92773 26 9.40488 26 14.9277ZM18 14.9277C18 16.0323 17.1045 16.9277 16 16.9277C14.8955 16.9277 14 16.0323 14 14.9277C14 13.8232 14.8955 12.9277 16 12.9277C17.1045 12.9277 18 13.8232 18 14.9277ZM20 14.9277C20 17.1369 18.2092 18.9277 16 18.9277C13.7908 18.9277 12 17.1369 12 14.9277C12 12.7186 13.7908 10.9277 16 10.9277C18.2092 10.9277 20 12.7186 20 14.9277Z" fill="#039344"/>
</svg>
