<svg width="25" height="24" viewBox="0 0 25 24" fill="none" xmlns="http://www.w3.org/2000/svg">
    <g clip-path="url(#clip0_43_450)">
        <path d="M15.298 8.14544V8.14592C15.298 9.68868 14.0502 10.9439 12.4969 10.9439C10.9562 10.9439 9.7041 9.69096 9.7041 8.14592C9.7041 6.59788 10.9561 5.34688 12.4969 5.34688C14.0509 5.34688 15.2998 6.59856 15.298 8.14544Z" stroke="#4F4F4F" stroke-width="1.5"/>
        <path d="M16.6971 19.0526C16.6998 19.027 16.7058 19.0029 16.7118 18.9792C16.7195 18.9487 16.727 18.9187 16.727 18.8868V13.737C16.73 12.7061 15.9792 11.8656 15.0646 11.8656H9.9375C9.02086 11.8656 8.27002 12.7061 8.27002 13.737V18.8868C8.27002 18.9164 8.27786 18.9442 8.28582 18.9724C8.2931 18.9983 8.3005 19.0245 8.30198 19.0526M16.6971 19.0526V18.8868V18.6526H16.327M16.6971 19.0526L16.2993 19.0109C16.3029 18.9759 16.3089 18.9457 16.3139 18.9229C16.3176 18.9065 16.3222 18.8882 16.3248 18.8781C16.3253 18.8758 16.3258 18.874 16.3261 18.8727C16.3264 18.8714 16.3267 18.8702 16.327 18.8691V18.6526M16.6971 19.0526H8.30198M8.30198 19.0526V18.8868V18.6526H8.67002M8.30198 19.0526L8.70142 19.0315C8.69906 18.9874 8.69218 18.9498 8.68578 18.9216C8.68046 18.898 8.67406 18.8754 8.67086 18.864C8.67054 18.863 8.67026 18.862 8.67002 18.8611V18.6526M16.327 18.6526V13.737V13.7358C16.3295 12.8822 15.7162 12.2656 15.0646 12.2656H9.9375C9.28362 12.2656 8.67002 12.8827 8.67002 13.737V18.6526M16.327 18.6526H8.67002" stroke="#4F4F4F"/>
        <path d="M18.9487 10.3092V10.3083C18.9487 9.11199 19.915 8.14375 21.1071 8.14375C22.3102 8.14375 23.2738 9.11263 23.2738 10.3083C23.2738 11.5036 22.3106 12.4708 21.1071 12.4708C19.9139 12.4708 18.9461 11.5027 18.9487 10.3092Z" stroke="#4F4F4F" stroke-width="1.5"/>
        <path d="M24.1 14.7903V14.7918V18.6527H18.1177V14.7918C18.1177 14.1396 18.5827 13.6891 19.0577 13.6891H23.1662C23.6385 13.6891 24.1024 14.1386 24.1 14.7903Z" stroke="#4F4F4F"/>
        <path d="M6.05623 10.3083C6.05623 11.5036 5.09207 12.4708 3.89062 12.4708C2.69691 12.4708 1.7312 11.5041 1.7312 10.3083C1.7312 9.11207 2.69733 8.14375 3.89062 8.14375C5.09163 8.14375 6.05623 9.11263 6.05623 10.3083Z" stroke="#4F4F4F" stroke-width="1.5"/>
        <path d="M7.2596 19.0527C7.26104 19.0299 7.2662 19.0084 7.2712 18.9874C7.2768 18.964 7.28228 18.9412 7.28228 18.9178V14.7918C7.28432 13.9626 6.6828 13.2891 5.94844 13.2891H1.83584C1.10047 13.2891 0.5 13.9626 0.5 14.7918V18.9178C0.5 18.9416 0.506221 18.9647 0.512623 18.9886C0.51816 19.0092 0.523832 19.0303 0.525736 19.0527M7.2596 19.0527V18.9178V18.6527H6.88228M7.2596 19.0527L6.8604 19.0271C6.86264 18.9922 6.8676 18.9622 6.87208 18.9396C6.87572 18.9212 6.88004 18.9032 6.88228 18.894V18.6527M7.2596 19.0527H0.525736M0.525736 19.0527V18.9178V18.6527H0.9M0.525736 19.0527L0.924304 19.0189C0.92122 18.9825 0.915204 18.9515 0.910028 18.9288C0.90658 18.9136 0.902604 18.8984 0.9 18.8888V18.6527M6.88228 18.6527V14.7918V14.7908C6.88388 14.1385 6.41948 13.6891 5.94844 13.6891H1.83584C1.36404 13.6891 0.9 14.1383 0.9 14.7918V18.6527M6.88228 18.6527H0.9" stroke="#4F4F4F"/>
    </g>
    <defs>
        <clipPath id="clip0_43_450">
            <rect width="24" height="24" fill="white" transform="translate(0.5)"/>
        </clipPath>
    </defs>
</svg>
