<svg width="264" height="264" viewBox="0 0 264 264" fill="none" xmlns="http://www.w3.org/2000/svg">
<path d="M131.257 250.311C192.15 250.311 241.514 221.812 241.514 186.656C241.514 151.5 192.15 123 131.257 123C70.3637 123 21 151.5 21 186.656C21 221.812 70.3637 250.311 131.257 250.311Z" fill="#F5F5F5"/>
<path d="M149.303 233.059C162.472 233.059 173.147 226.896 173.147 219.294C173.147 211.692 162.472 205.529 149.303 205.529C136.134 205.529 125.458 211.692 125.458 219.294C125.458 226.896 136.134 233.059 149.303 233.059Z" fill="#E0E0E0"/>
<path d="M136.91 172.682L73.1333 209.51C71.3381 210.566 68.2071 210.419 66.1321 209.22L43.4914 196.147C41.4217 194.953 41.1946 193.142 42.9634 192.108L106.741 155.28C108.536 154.224 111.667 154.371 113.742 155.57L136.382 168.643C138.479 169.836 138.706 171.648 136.91 172.682Z" fill="#E0E0E0"/>
<path d="M205.582 185.539L210.609 188.459C210.609 188.459 208.074 180.37 209.479 172.228C209.818 170.311 210.511 168.474 211.522 166.811C211.918 165.987 214.949 160.913 212.282 158.569C209.616 156.225 203.359 160.887 203.639 173.422C203.773 177.527 204.426 181.598 205.582 185.539Z" fill="#51B5B7"/>
<path opacity="0.5" d="M205.582 185.539L210.609 188.459C210.609 188.459 208.074 180.37 209.479 172.228C209.818 170.311 210.511 168.474 211.522 166.811C211.918 165.987 214.949 160.913 212.282 158.569C209.616 156.225 203.359 160.887 203.639 173.422C203.773 177.527 204.426 181.598 205.582 185.539Z" fill="black"/>
<path d="M207.921 187.128C207.874 187.128 207.828 187.113 207.789 187.086C207.75 187.058 207.721 187.02 207.705 186.975C207.705 186.923 205.788 181.648 205.888 173.189C205.989 164.731 210.461 160.137 210.508 160.095C210.529 160.074 210.554 160.057 210.581 160.046C210.608 160.034 210.637 160.028 210.667 160.028C210.696 160.028 210.725 160.034 210.753 160.046C210.78 160.057 210.804 160.074 210.825 160.095C210.846 160.116 210.863 160.141 210.875 160.169C210.886 160.196 210.892 160.226 210.892 160.256C210.892 160.286 210.886 160.315 210.875 160.343C210.863 160.371 210.846 160.396 210.825 160.417C210.783 160.459 206.443 164.879 206.342 173.195C206.242 181.511 208.116 186.769 208.132 186.822C208.143 186.85 208.148 186.88 208.148 186.909C208.147 186.939 208.14 186.968 208.128 186.995C208.116 187.023 208.098 187.047 208.076 187.067C208.054 187.087 208.028 187.103 208 187.113L207.921 187.128Z" fill="white"/>
<path d="M209.479 187.82L217.779 192.72C217.779 192.72 221.581 192.16 221.295 188.58C221.01 185.001 219.463 184.161 221.385 182.588C223.307 181.014 223.803 180.914 223.708 179.372C223.613 177.83 222.584 177.16 222.093 176.553C221.602 175.945 220.25 174.657 221.206 172.804C222.161 170.951 223.455 169.15 221.533 168.295C220.382 167.767 218.45 168.427 217.172 169.784C215.894 171.141 214.833 172.123 213.624 172.424C212.414 172.725 209.88 172.762 209.965 174.852C210.049 176.943 210.593 177.667 210.086 178.591C209.13 180.338 205.049 181.284 209.479 187.82Z" fill="#E27B14"/>
<path opacity="0.2" d="M209.479 187.82L217.779 192.72C217.779 192.72 221.581 192.16 221.295 188.58C221.01 185.001 219.463 184.161 221.385 182.588C223.307 181.014 223.803 180.914 223.708 179.372C223.613 177.83 222.584 177.16 222.093 176.553C221.602 175.945 220.25 174.657 221.206 172.804C222.161 170.951 223.455 169.15 221.533 168.295C220.382 167.767 218.45 168.427 217.172 169.784C215.894 171.141 214.833 172.123 213.624 172.424C212.414 172.725 209.88 172.762 209.965 174.852C210.049 176.943 210.593 177.667 210.086 178.591C209.13 180.338 205.049 181.284 209.479 187.82Z" fill="black"/>
<path d="M212.858 190.038C212.8 190.038 212.745 190.016 212.703 189.977C212.661 189.938 212.635 189.884 212.631 189.827C212.631 189.705 211.723 177.329 220.319 169.203C220.363 169.162 220.421 169.139 220.482 169.141C220.542 169.143 220.599 169.169 220.641 169.213C220.682 169.258 220.704 169.316 220.702 169.377C220.7 169.437 220.674 169.494 220.63 169.536C212.182 177.508 213.08 189.668 213.09 189.79C213.095 189.85 213.075 189.911 213.035 189.957C212.996 190.003 212.94 190.032 212.879 190.038H212.858Z" fill="white"/>
<path d="M214.368 179.43C214.311 179.43 214.255 179.409 214.213 179.369C214.171 179.33 214.145 179.276 214.141 179.219C214.077 178.269 213.82 177.342 213.386 176.494C212.952 175.646 212.35 174.895 211.617 174.288C211.593 174.27 211.572 174.248 211.557 174.222C211.541 174.196 211.531 174.168 211.526 174.138C211.521 174.109 211.523 174.078 211.53 174.049C211.537 174.02 211.549 173.992 211.567 173.968C211.585 173.944 211.607 173.923 211.633 173.908C211.658 173.892 211.687 173.882 211.716 173.877C211.746 173.872 211.776 173.873 211.806 173.88C211.835 173.888 211.862 173.9 211.886 173.918C212.678 174.563 213.328 175.365 213.794 176.274C214.26 177.183 214.533 178.178 214.595 179.198C214.6 179.257 214.58 179.316 214.542 179.362C214.503 179.407 214.449 179.435 214.389 179.441L214.368 179.43Z" fill="white"/>
<path d="M213.734 181.542C213.678 181.543 213.623 181.522 213.581 181.484C213.54 181.441 213.516 181.383 213.516 181.323C213.516 181.263 213.54 181.205 213.581 181.162C213.671 181.062 215.836 178.723 220.841 179.409C220.901 179.419 220.954 179.452 220.99 179.5C221.026 179.548 221.043 179.608 221.037 179.668C221.028 179.728 220.995 179.782 220.947 179.818C220.899 179.855 220.838 179.871 220.778 179.863C216.026 179.214 213.94 181.447 213.914 181.447C213.894 181.477 213.868 181.501 213.836 181.518C213.805 181.534 213.77 181.543 213.734 181.542Z" fill="white"/>
<path d="M53.3914 178.432L50.9151 183.686C50.9151 183.686 48.4071 175.586 42.6307 169.678C41.2677 168.29 39.6557 167.17 37.8787 166.378C37.092 165.924 31.717 163.464 32.5987 160.042C33.4805 156.621 41.2579 156.874 48.1431 167.365C50.352 170.818 52.1155 174.537 53.3914 178.432Z" fill="#51B5B7"/>
<path opacity="0.5" d="M53.3914 178.432L50.9151 183.686C50.9151 183.686 48.4071 175.586 42.6307 169.678C41.2677 168.29 39.6557 167.17 37.8787 166.378C37.092 165.924 31.717 163.464 32.5987 160.042C33.4805 156.621 41.2579 156.874 48.1431 167.365C50.352 170.818 52.1155 174.537 53.3914 178.432Z" fill="black"/>
<path d="M52.2404 181.104C52.1901 181.104 52.1413 181.087 52.1013 181.057C52.0614 181.026 52.0323 180.983 52.0186 180.935C52.0186 180.882 50.593 175.534 45.7618 168.696C40.9306 161.858 34.885 160.729 34.8481 160.718C34.8186 160.713 34.7903 160.702 34.765 160.686C34.7397 160.67 34.7179 160.649 34.7007 160.624C34.6835 160.6 34.6714 160.572 34.665 160.543C34.6585 160.514 34.658 160.483 34.6633 160.454C34.6748 160.395 34.7088 160.343 34.758 160.308C34.8072 160.274 34.8679 160.26 34.9273 160.269C34.9906 160.269 41.2633 161.484 46.1631 168.432C51.0629 175.381 52.4991 180.766 52.4991 180.819C52.5137 180.878 52.5047 180.94 52.4741 180.992C52.4436 181.044 52.3938 181.083 52.3354 181.099L52.2404 181.104Z" fill="white"/>
<path d="M51.4801 182.524L47.4145 191.252C47.4145 191.252 43.9666 192.947 42.1767 189.837C40.3868 186.727 41.1735 185.159 38.7025 184.953C36.2314 184.747 35.7562 184.953 34.9589 183.628C34.1617 182.303 34.6316 181.162 34.6897 180.386C34.7477 179.61 35.1385 177.778 33.2957 176.79C31.453 175.803 29.3674 175.064 30.4709 173.269C31.1257 172.213 33.0793 171.626 34.9061 172.022C36.733 172.418 38.1533 172.619 39.3308 172.191C40.5082 171.764 42.6044 170.349 43.7237 172.117C44.8431 173.886 44.7797 174.789 45.746 175.285C47.5201 176.162 51.4167 174.62 51.4801 182.524Z" fill="url(#paint0_linear_212_1043)"/>
<path opacity="0.2" d="M51.4801 182.524L47.4145 191.252C47.4145 191.252 43.9666 192.947 42.1767 189.837C40.3868 186.727 41.1735 185.159 38.7025 184.953C36.2314 184.747 35.7562 184.953 34.9589 183.628C34.1617 182.303 34.6316 181.162 34.6897 180.386C34.7477 179.61 35.1385 177.778 33.2957 176.79C31.453 175.803 29.3674 175.064 30.4709 173.269C31.1257 172.213 33.0793 171.626 34.9061 172.022C36.733 172.418 38.1533 172.619 39.3308 172.191C40.5082 171.764 42.6044 170.349 43.7237 172.117C44.8431 173.886 44.7797 174.789 45.746 175.285C47.5201 176.162 51.4167 174.62 51.4801 182.524Z" fill="black"/>
<path d="M49.8221 186.305C49.7821 186.305 49.7428 186.294 49.7084 186.274C49.674 186.253 49.6458 186.224 49.6267 186.189C49.5634 186.083 43.3911 175.571 31.9229 173.791C31.8929 173.787 31.8641 173.776 31.8382 173.761C31.8123 173.745 31.7899 173.724 31.7722 173.699C31.7544 173.675 31.7418 173.647 31.7351 173.617C31.7283 173.588 31.7276 173.557 31.7328 173.527C31.7366 173.497 31.7465 173.469 31.7617 173.443C31.777 173.417 31.7973 173.395 31.8215 173.377C31.8457 173.359 31.8732 173.346 31.9024 173.34C31.9317 173.333 31.962 173.332 31.9915 173.337C43.6815 175.153 49.9435 185.856 50.0227 185.962C50.0418 185.997 50.0515 186.036 50.0509 186.076C50.0503 186.116 50.0393 186.155 50.0192 186.19C49.999 186.224 49.9703 186.253 49.9357 186.273C49.9012 186.293 49.8621 186.304 49.8221 186.305Z" fill="white"/>
<path d="M42.5833 178.417C42.5426 178.416 42.5027 178.406 42.4675 178.385C42.4322 178.365 42.403 178.336 42.3827 178.3C41.8583 177.426 41.5205 176.452 41.3906 175.441C41.2607 174.43 41.3414 173.402 41.6276 172.424C41.6377 172.396 41.6532 172.37 41.6732 172.348C41.6932 172.326 41.7174 172.308 41.7444 172.295C41.7714 172.282 41.8006 172.275 41.8304 172.273C41.8601 172.272 41.8899 172.276 41.918 172.286C41.9461 172.296 41.9719 172.312 41.994 172.332C42.0161 172.352 42.0341 172.376 42.0468 172.403C42.0596 172.43 42.0669 172.459 42.0683 172.489C42.0698 172.519 42.0654 172.549 42.0553 172.577C41.7971 173.494 41.7272 174.453 41.8497 175.398C41.9722 176.343 42.2846 177.253 42.7681 178.073C42.7832 178.099 42.7929 178.128 42.7968 178.158C42.8007 178.187 42.7987 178.218 42.7909 178.247C42.783 178.276 42.7695 178.303 42.7511 178.327C42.7327 178.35 42.7097 178.37 42.6836 178.385C42.6535 178.404 42.6189 178.415 42.5833 178.417Z" fill="white"/>
<path d="M37.5198 182.429C37.4881 182.429 37.4568 182.422 37.4278 182.409C37.3988 182.397 37.3726 182.378 37.3508 182.355C37.3296 182.334 37.3127 182.309 37.3012 182.282C37.2897 182.254 37.2838 182.224 37.2838 182.194C37.2838 182.164 37.2897 182.135 37.3012 182.107C37.3127 182.079 37.3296 182.054 37.3508 182.033C41.0785 178.628 44.2148 179.325 44.3204 179.356C44.3496 179.363 44.3771 179.376 44.4015 179.393C44.4258 179.411 44.4464 179.433 44.4621 179.458C44.4778 179.484 44.4883 179.512 44.493 179.542C44.4977 179.572 44.4964 179.602 44.4894 179.631C44.4832 179.66 44.4711 179.688 44.4538 179.713C44.4364 179.738 44.4142 179.759 44.3885 179.775C44.3628 179.79 44.3341 179.801 44.3043 179.805C44.2744 179.809 44.244 179.808 44.2148 179.8C44.1831 179.8 41.1947 179.14 37.6571 182.371C37.6185 182.404 37.5705 182.425 37.5198 182.429Z" fill="white"/>
<path d="M51.5381 72.072C51.5387 70.5346 51.9434 69.0243 52.7116 67.6927C53.4798 66.361 54.5846 65.2547 55.9153 64.4846L111.63 32.3188C112.002 32.1045 112.417 31.9762 112.844 31.9433C113.272 31.9104 113.702 31.9738 114.102 32.1288C114.502 32.2838 114.862 32.5264 115.156 32.8389C115.45 33.1514 115.671 33.5257 115.801 33.9345C115.651 33.2796 115.371 32.6615 114.978 32.1172C114.584 31.5729 114.085 31.1136 113.509 30.7665L113.309 30.6504C111.922 29.8255 110.339 29.3896 108.726 29.3884C108.21 29.3836 107.703 29.5186 107.258 29.7792L51.5434 61.9608C50.2107 62.7289 49.104 63.8347 48.3347 65.1667C47.5653 66.4987 47.1605 68.0099 47.161 69.5481V190.032C47.1617 190.536 47.2946 191.03 47.5464 191.466C47.7983 191.902 48.1603 192.264 48.5961 192.516C49.0319 192.768 49.5263 192.9 50.0297 192.901C50.533 192.902 51.0277 192.77 51.4642 192.519L51.5381 192.477V72.072Z" fill="#37474F"/>
<path d="M111.556 162.877L55.8413 195.043C55.4055 195.295 54.9109 195.428 54.4074 195.429C53.9038 195.429 53.409 195.297 52.9728 195.045C52.5366 194.794 52.1744 194.432 51.9225 193.996C51.6706 193.56 51.5381 193.065 51.5381 192.562V72.0719C51.5386 70.5345 51.9433 69.0243 52.7116 67.6926C53.4798 66.361 54.5846 65.2546 55.9152 64.4846L111.63 32.3188C112.066 32.068 112.561 31.9364 113.064 31.937C113.568 31.9377 114.062 32.0706 114.498 32.3224C114.934 32.5743 115.296 32.9363 115.548 33.3721C115.799 33.8079 115.932 34.3023 115.933 34.8057V155.29C115.933 156.828 115.529 158.338 114.761 159.67C113.993 161.002 112.887 162.108 111.556 162.877Z" fill="#455A64"/>
<path d="M51.5381 192.562V72.0719C51.5387 70.7593 51.8347 69.4636 52.4041 68.2809L48.0956 65.6409C47.4819 66.8614 47.1619 68.2084 47.161 69.5745V191.067C47.1611 191.545 47.2852 192.015 47.5212 192.43C47.7572 192.846 48.097 193.193 48.5074 193.438L50.7303 194.758C51.4997 195.218 52.3791 195.46 53.2753 195.46H54.3841C54.0068 195.457 53.634 195.379 53.2869 195.232C52.9397 195.084 52.625 194.869 52.3607 194.6C52.0964 194.331 51.8878 194.013 51.7466 193.663C51.6055 193.313 51.5346 192.939 51.5381 192.562Z" fill="#263238"/>
<path d="M109.639 43.9032V145.2C109.638 146.558 109.28 147.892 108.601 149.068C107.921 150.244 106.945 151.221 105.769 151.9L56.57 180.301C56.1991 180.517 55.7791 180.633 55.3503 180.639C55.4923 180.968 55.7021 181.262 55.966 181.504C56.2299 181.745 56.542 181.928 56.8816 182.04C57.2212 182.152 57.5808 182.191 57.9366 182.155C58.2924 182.118 58.6364 182.007 58.946 181.827L108.145 153.421C109.321 152.742 110.297 151.765 110.975 150.589C111.654 149.412 112.011 148.078 112.01 146.721V46.427C112.011 45.7834 111.766 45.1636 111.326 44.6944C110.885 44.2253 110.282 43.9422 109.639 43.9032Z" fill="#37474F"/>
<path d="M55.3503 180.613C55.7791 180.607 56.1991 180.49 56.57 180.275L105.769 151.874C106.941 151.197 107.915 150.224 108.594 149.053C109.273 147.882 109.634 146.554 109.639 145.2V43.9032C109.145 43.9074 108.658 44.021 108.214 44.2358L59.0146 72.637C57.838 73.3157 56.8609 74.2922 56.1815 75.4684C55.5021 76.6446 55.1444 77.979 55.1444 79.3373V179.604C55.1439 179.957 55.2158 180.305 55.3556 180.629L55.3503 180.613Z" fill="#51B5B7"/>
<g opacity="0.5">
<path d="M55.3503 180.613C55.7791 180.607 56.1991 180.49 56.57 180.275L105.769 151.874C106.941 151.197 107.915 150.224 108.594 149.053C109.273 147.882 109.634 146.554 109.639 145.2V43.9032C109.145 43.9074 108.658 44.021 108.214 44.2358L59.0146 72.637C57.838 73.3157 56.8609 74.2922 56.1815 75.4684C55.5021 76.6446 55.1444 77.979 55.1444 79.3373V179.604C55.1439 179.957 55.2158 180.305 55.3556 180.629L55.3503 180.613Z" fill="white"/>
</g>
<path d="M75.937 57.7948C75.9203 58.102 75.8318 58.401 75.6786 58.6678C75.5255 58.9346 75.312 59.1619 75.0552 59.3313C74.5642 59.6111 74.1682 59.3841 74.1682 58.8033C74.1852 58.4956 74.2743 58.1961 74.4284 57.9292C74.5825 57.6623 74.7972 57.4354 75.0552 57.2668C75.541 57.0239 75.937 57.2299 75.937 57.7948Z" fill="#263238"/>
<path d="M79.237 55.894C79.2192 56.2015 79.1297 56.5007 78.9757 56.7674C78.8217 57.0342 78.6074 57.2613 78.3499 57.4305C77.8589 57.7103 77.4629 57.4833 77.4629 56.9025C77.4798 56.5947 77.5689 56.2953 77.723 56.0284C77.8771 55.7614 78.0919 55.5345 78.3499 55.366C78.8357 55.102 79.237 55.329 79.237 55.894Z" fill="#263238"/>
<path d="M92.5374 49.236L81.8401 55.44C81.4124 55.6828 81.0692 55.44 81.0692 54.8592C81.0737 54.5712 81.1458 54.2883 81.2797 54.0333C81.4136 53.7784 81.6056 53.5584 81.8401 53.3913L92.5532 47.2084C92.9756 46.9603 93.3188 47.2084 93.3188 47.784C93.3103 48.07 93.2352 48.3502 93.0996 48.6022C92.9639 48.8543 92.7714 49.0712 92.5374 49.236Z" fill="#263238"/>
<path d="M90.7262 166.679C91.3651 166.679 91.7822 167.36 91.7822 168.411C91.7822 170.058 90.7526 172.049 89.5277 172.756L84.4008 175.718C84.1717 175.861 83.91 175.943 83.6405 175.956C83.0016 175.956 82.5845 175.275 82.5845 174.224C82.5845 172.571 83.6405 170.581 84.839 169.879L89.9659 166.917C90.1965 166.773 90.4602 166.691 90.7315 166.679M90.7315 166.241C90.3831 166.251 90.0439 166.355 89.7494 166.542L84.6226 169.498C83.255 170.285 82.1462 172.402 82.1462 174.25C82.1462 175.607 82.764 176.421 83.6405 176.421C83.9889 176.41 84.3281 176.306 84.6226 176.12L89.7494 173.163C91.1117 172.376 92.2205 170.259 92.2205 168.411C92.2205 167.054 91.608 166.241 90.7315 166.241Z" fill="#263238"/>
<path d="M62.4044 86.4389V199.959C62.4044 202.018 63.1595 203.396 64.3105 203.85H64.3422L69.2526 206.538L69.2209 202.177L68.6929 84.4695L63.5132 81.8295C62.8181 83.2689 62.44 84.8408 62.4044 86.4389Z" fill="#E6E6E6"/>
<path d="M69.5218 206.976L64.2101 204.067C62.8954 203.539 62.1404 201.992 62.1404 199.933V86.4125C62.1684 84.766 62.5521 83.145 63.265 81.6605L63.3812 81.4124L68.9463 84.2583V84.4167L69.4743 202.124L69.5218 206.976ZM64.4794 203.613L68.9885 206.084V202.166L68.4605 84.6173L63.6716 82.1674C63.0657 83.506 62.7388 84.954 62.7106 86.4231V199.943C62.7106 201.802 63.3601 203.164 64.453 203.592L64.5164 203.623L64.4794 203.613Z" fill="#E6E6E6"/>
<path d="M63.5026 81.84L68.6822 84.48L124.122 52.2245L127.818 50.0702L122.702 47.1874L122.559 47.1029C121.741 46.6118 120.674 46.6435 119.497 47.3246L67.0243 77.616C65.457 78.6431 64.231 80.1135 63.5026 81.84Z" fill="#E0E0E0"/>
<path d="M68.6823 84.7388C68.6398 84.7383 68.5981 84.7274 68.5609 84.7071L63.3812 82.0671C63.3508 82.0524 63.3236 82.0319 63.3012 82.0066C63.2788 81.9813 63.2617 81.9519 63.2509 81.9199C63.2401 81.8879 63.2358 81.8541 63.2382 81.8205C63.2406 81.7868 63.2497 81.754 63.265 81.7239C64.0198 79.9539 65.282 78.4473 66.8924 77.3943L119.376 47.0923C120.59 46.3954 121.773 46.3162 122.702 46.8759H122.744L122.85 46.9392L127.961 49.8168C128.001 49.8411 128.034 49.8752 128.057 49.9158C128.08 49.9565 128.092 50.0024 128.093 50.0491C128.094 50.0954 128.082 50.1411 128.059 50.1811C128.035 50.2211 128.002 50.254 127.961 50.2762L68.8249 84.6859C68.7833 84.7166 68.7339 84.7349 68.6823 84.7388ZM63.8511 81.7027L68.677 84.1738L127.285 50.0703L122.422 47.3247L122.385 47.293C121.63 46.86 120.653 46.9498 119.629 47.5411L67.1458 77.8431C65.7033 78.7906 64.5605 80.1294 63.8511 81.7027Z" fill="#E0E0E0"/>
<path d="M67.4838 89.2901V202.282C67.4838 204.061 68.054 205.339 68.9569 205.941L69.2578 206.105C70.0446 206.474 71.0319 206.395 72.1038 205.772L97.4742 191.136L124.608 174.821C125.998 173.952 127.148 172.749 127.956 171.323C128.764 169.897 129.203 168.291 129.233 166.653V53.6607C129.233 51.9394 128.705 50.6933 127.85 50.065C127.706 49.9568 127.548 49.868 127.38 49.801C126.922 49.6391 126.433 49.5873 125.951 49.6497C125.47 49.712 125.01 49.8869 124.608 50.16L72.1249 80.9741C70.6442 81.7491 69.4466 82.9725 68.7034 84.4695C67.9416 85.965 67.5248 87.6123 67.4838 89.2901Z" fill="#FAFAFA"/>
<path d="M124.608 174.821C113.81 181.262 85.7156 198.026 71.8081 206.406C71.3932 206.654 70.9199 206.788 70.4364 206.794C69.9529 206.8 69.4766 206.677 69.0558 206.439C68.6351 206.201 68.285 205.855 68.0414 205.437C67.7977 205.02 67.669 204.545 67.6686 204.062V87.8698C67.6685 86.5472 68.0145 85.2475 68.6721 84.0999C69.3298 82.9522 70.2762 81.9966 71.4174 81.3279L124.84 50.007C125.255 49.7649 125.727 49.6364 126.207 49.6344C126.688 49.6325 127.16 49.7572 127.577 49.9959C127.994 50.2346 128.341 50.579 128.583 50.9943C128.824 51.4097 128.952 51.8814 128.954 52.3618V167.128C128.954 168.676 128.554 170.198 127.793 171.546C127.031 172.894 125.934 174.022 124.608 174.821Z" fill="#FAFAFA"/>
<path d="M124.455 174.588C115.975 179.636 107.499 184.698 99.0265 189.774L83.9785 198.776L77.1145 202.895L74.1102 204.7C73.1862 205.255 72.2041 206.047 71.1798 206.4C69.4849 206.992 67.959 205.635 67.9167 203.961C67.9167 203.692 67.9167 203.433 67.9167 203.153V96.624C67.9167 93.7887 67.9167 90.948 67.9167 88.1127C67.8973 86.7702 68.2365 85.4469 68.8992 84.2793C69.5619 83.1117 70.5242 82.142 71.6867 81.4704C72.9116 80.7471 74.1419 80.0343 75.3827 79.3162L92.6271 69.168L113.087 57.1771C116.968 54.9067 120.838 52.6152 124.703 50.3554C125.907 49.6584 127.422 49.727 128.262 50.989C128.559 51.4927 128.699 52.0737 128.663 52.6575V166.684C128.716 168.259 128.354 169.82 127.612 171.21C126.871 172.6 125.776 173.771 124.439 174.604C124.149 174.784 124.413 175.243 124.703 175.064C126.11 174.193 127.264 172.97 128.053 171.516C128.842 170.062 129.238 168.428 129.202 166.774V60.7781C129.202 58.0219 129.228 55.2605 129.202 52.499C129.215 51.9462 129.078 51.4002 128.805 50.9194C128.532 50.4386 128.133 50.0413 127.651 49.7699C127.169 49.4986 126.622 49.3636 126.07 49.3793C125.517 49.395 124.979 49.5608 124.513 49.859C123.225 50.6035 121.947 51.3638 120.669 52.1136L102.96 62.531L82.3153 74.6328C78.6721 76.7712 74.9761 78.8938 71.3487 81.048C70.1276 81.7666 69.1178 82.7949 68.4215 84.0289C67.7253 85.2629 67.3672 86.6589 67.3835 88.0757C67.3835 89.0261 67.3835 89.9765 67.3835 90.9269V203.512C67.3835 203.692 67.3835 203.877 67.3835 204.04C67.3892 204.513 67.5051 204.977 67.7221 205.396C67.9391 205.816 68.251 206.179 68.6331 206.456C69.0152 206.734 69.4569 206.918 69.9229 206.994C70.3889 207.071 70.8663 207.038 71.3171 206.897C72.315 206.564 73.2548 205.814 74.1524 205.276L77.2148 203.433L84.0788 199.325C94.0615 193.341 104.053 187.368 114.053 181.405L124.735 175.032C125.009 174.874 124.745 174.414 124.455 174.588Z" fill="#EBEBEB"/>
<path d="M71.3962 81.3121L124.84 50.007C125.255 49.7649 125.727 49.6364 126.207 49.6344C126.688 49.6325 127.16 49.7572 127.577 49.9959C127.994 50.2346 128.341 50.579 128.583 50.9943C128.824 51.4097 128.952 51.8814 128.953 52.3618V57.4042L67.6632 92.7802V87.8593C67.6606 86.5372 68.0038 85.2375 68.6586 84.089C69.3134 82.9405 70.2572 81.9832 71.3962 81.3121Z" fill="#EBEBEB"/>
<path d="M108.114 108.798C113.533 99.4112 113.533 89.2652 108.114 86.1363C102.694 83.0073 93.9076 88.0804 88.4881 97.4672C83.0685 106.854 83.0685 117 88.488 120.129C93.9075 123.258 102.694 118.185 108.114 108.798Z" fill="#51B5B7"/>
<path opacity="0.5" d="M108.114 108.798C113.533 99.4112 113.533 89.2652 108.114 86.1363C102.694 83.0073 93.9076 88.0804 88.4881 97.4672C83.0685 106.854 83.0685 117 88.488 120.129C93.9075 123.258 102.694 118.185 108.114 108.798Z" fill="white"/>
<path d="M95.8109 103.192C95.7291 103.192 95.6481 103.176 95.5725 103.145C95.4969 103.114 95.4282 103.068 95.3703 103.01C95.3125 102.952 95.2666 102.883 95.2353 102.808C95.204 102.732 95.1879 102.651 95.1879 102.569V98.4667C95.2335 97.4933 95.5113 96.545 95.9981 95.7009C96.485 94.8568 97.1666 94.1414 97.9863 93.6144C98.3181 93.341 98.7254 93.1754 99.1538 93.1396C99.5822 93.1039 100.011 93.1998 100.384 93.4144C100.756 93.6291 101.054 93.9523 101.238 94.3409C101.422 94.7295 101.483 95.1649 101.413 95.5891V99.6969C101.413 99.8622 101.347 100.021 101.23 100.137C101.114 100.254 100.955 100.32 100.79 100.32C100.625 100.32 100.466 100.254 100.349 100.137C100.233 100.021 100.167 99.8622 100.167 99.6969V95.568C100.249 95.3616 100.254 95.1324 100.181 94.9228C100.107 94.7131 99.9601 94.5372 99.7667 94.4277C99.5734 94.3181 99.347 94.2824 99.1293 94.327C98.9116 94.3716 98.7175 94.4936 98.5829 94.6704C97.9545 95.0901 97.4314 95.649 97.0541 96.3038C96.6768 96.9585 96.4556 97.6914 96.4075 98.4456V102.548C96.4133 102.713 96.3537 102.872 96.242 102.993C96.1302 103.114 95.9753 103.185 95.8109 103.192Z" fill="#37474F"/>
<path d="M103.33 97.0517C103.184 96.9912 103.025 96.9687 102.868 96.9863C102.711 97.0038 102.561 97.0608 102.432 97.152L94.1319 101.946C93.7679 102.175 93.4666 102.491 93.2555 102.865C92.9234 103.404 92.7411 104.022 92.7275 104.655V111.841C92.7089 112.042 92.7363 112.246 92.8076 112.435C92.8789 112.624 92.9924 112.795 93.1393 112.934C93.1842 112.969 93.234 112.998 93.2871 113.018C93.4277 113.071 93.5788 113.089 93.7277 113.07C93.8766 113.052 94.0189 112.998 94.1425 112.913L102.432 108.113C102.865 107.805 103.218 107.399 103.465 106.928C103.712 106.458 103.844 105.936 103.852 105.405V98.208C103.882 97.9857 103.848 97.7597 103.756 97.5554C103.663 97.3511 103.516 97.1767 103.33 97.0517Z" fill="#51B5B7"/>
<path d="M99.2641 104.544L100.067 106.846L97.2524 108.467L97.9547 105.626L98.055 105.225C97.5798 105.225 97.2524 104.871 97.2524 104.227C97.256 103.965 97.3006 103.705 97.3844 103.456C97.6037 102.77 98.0532 102.181 98.6569 101.788C99.4331 101.339 100.067 101.703 100.067 102.601C100.028 103.321 99.745 104.007 99.2641 104.544Z" fill="#455A64"/>
<path d="M97.9334 105.6L98.0338 105.199C97.5586 105.199 97.2312 104.845 97.2312 104.201C97.2348 103.939 97.2793 103.678 97.3632 103.43L99.264 104.544L100.067 106.846L97.9334 105.6Z" fill="#37474F"/>
<path d="M118.8 129.708L77.8272 153.347C76.1323 154.324 74.7595 153.284 74.7595 151.029V144.825C74.7595 142.565 76.1323 139.941 77.8272 138.964L118.8 115.326C120.495 114.349 121.868 115.384 121.868 117.644V123.848C121.841 126.108 120.468 128.726 118.8 129.708Z" fill="url(#paint1_linear_212_1043)"/>
<path d="M85.792 139H85V145.563H85.792V139Z" fill="#FAFAFA"/>
<path d="M87.7871 140.28L82.0773 143.562L82.4733 144.251L88.1831 140.969L87.7871 140.28Z" fill="#FAFAFA"/>
<path d="M83.396 141L83 141.686L87.0193 144.006L87.4153 143.321L83.396 141Z" fill="#FAFAFA"/>
<path d="M87.0207 138L83 144.996L83.689 145.392L87.7098 138.396L87.0207 138Z" fill="#FAFAFA"/>
<path d="M98.6939 131.055H97.9019V137.618H98.6939V131.055Z" fill="#FAFAFA"/>
<path d="M100.938 132.364L95.2539 135.646L95.6499 136.332L101.334 133.05L100.938 132.364Z" fill="#FAFAFA"/>
<path d="M96.488 132.838L96.092 133.524L100.111 135.845L100.507 135.159L96.488 132.838Z" fill="#FAFAFA"/>
<path d="M100.499 130.235L96.4778 137.231L97.1668 137.627L101.188 130.631L100.499 130.235Z" fill="#FAFAFA"/>
<path d="M112.195 123.7H111.403V130.263H112.195V123.7Z" fill="#FAFAFA"/>
<path d="M114.71 125L109 128.281L109.396 128.971L115.106 125.689L114.71 125Z" fill="#FAFAFA"/>
<path d="M109.99 125.484L109.594 126.169L113.613 128.49L114.009 127.804L109.99 125.484Z" fill="#FAFAFA"/>
<path d="M113.467 123.295L109.446 130.259L110.132 130.655L114.153 123.691L113.467 123.295Z" fill="#FAFAFA"/>
<path d="M119.988 138.252C120.516 138.252 120.785 139.07 120.785 139.883V146.087C120.785 147.972 119.618 150.237 118.246 151.034L77.2992 174.673C77.0914 174.806 76.8535 174.884 76.6075 174.9C76.0795 174.9 75.8155 174.082 75.8155 173.269V167.065C75.8155 165.18 76.9771 162.914 78.3552 162.117L119.328 138.479C119.534 138.346 119.77 138.268 120.014 138.252M120.014 137.196C119.584 137.211 119.166 137.339 118.8 137.565L77.8272 161.204C76.1323 162.181 74.7595 164.805 74.7595 167.065V173.269C74.7595 174.948 75.5198 175.956 76.6075 175.956C77.0393 175.941 77.4597 175.814 77.8272 175.586L118.8 151.948C120.495 150.971 121.868 148.347 121.868 146.087V139.883C121.868 138.204 121.102 137.196 120.014 137.196Z" fill="#E27B14"/>
<path d="M88.7336 166.158C88.0883 166.529 87.5237 166.714 87.0398 166.713C86.5626 166.7 86.1895 166.527 85.9207 166.193C85.6585 165.847 85.5275 165.361 85.5275 164.733C85.5275 164.105 85.6552 163.473 85.9106 162.838C86.1727 162.191 86.5323 161.601 86.9894 161.067C87.4464 160.525 87.9606 160.09 88.5319 159.762C89.0696 159.453 89.5603 159.299 90.0039 159.3C90.4475 159.293 90.8004 159.458 91.0625 159.796C91.3247 160.134 91.4557 160.651 91.4557 161.349C91.4557 161.427 91.4524 161.518 91.4457 161.622C91.4389 161.727 91.4322 161.824 91.4255 161.913L87.1003 164.399V163.236L90.4072 161.335L89.6813 162.078C89.688 161.787 89.641 161.566 89.5401 161.415C89.446 161.26 89.3116 161.174 89.1369 161.158C88.9688 161.139 88.7705 161.194 88.542 161.326C88.3135 161.457 88.1118 161.631 87.9371 161.848C87.7691 162.061 87.638 162.303 87.5439 162.574C87.4498 162.837 87.4027 163.112 87.4027 163.399V163.736C87.4027 164.047 87.4565 164.283 87.5641 164.446C87.6783 164.605 87.8396 164.687 88.048 164.691C88.2564 164.688 88.505 164.603 88.7941 164.437C89.0629 164.282 89.2915 164.108 89.4797 163.915C89.6746 163.71 89.8661 163.46 90.0543 163.166L91.0625 163.796C90.8004 164.28 90.4778 164.721 90.0947 165.12C89.7115 165.511 89.2578 165.857 88.7336 166.158ZM95.8979 155.528C96.3214 155.285 96.7045 155.166 97.0473 155.17C97.3901 155.167 97.6589 155.315 97.8539 155.614C98.0555 155.909 98.1563 156.382 98.1563 157.033V160.638L96.2407 161.739V158.494C96.2407 158.045 96.1601 157.766 95.9988 157.657C95.8442 157.536 95.6257 157.557 95.3434 157.719C95.1418 157.835 94.9569 157.996 94.7889 158.201C94.6209 158.398 94.4898 158.632 94.3957 158.904C94.3016 159.175 94.2546 159.485 94.2546 159.834V162.88L92.339 163.981V157.678L94.1638 156.63V158.421L93.8109 158.1C94.0193 157.523 94.305 157.018 94.6679 156.584C95.0309 156.143 95.4409 155.791 95.8979 155.528ZM101.794 158.652C101.096 159.053 100.552 159.168 100.163 158.997C99.774 158.818 99.5794 158.326 99.5794 157.521V152.124L101.492 151.024V156.399C101.492 156.624 101.545 156.771 101.653 156.841C101.76 156.903 101.898 156.886 102.065 156.789C102.294 156.658 102.488 156.481 102.649 156.256L103.122 157.528C102.961 157.745 102.763 157.948 102.528 158.137C102.294 158.334 102.049 158.505 101.794 158.652ZM98.7843 155.866V154.217L102.74 151.944V153.592L98.7843 155.866ZM106.561 155.912C105.917 156.282 105.353 156.467 104.87 156.466C104.393 156.454 104.021 156.281 103.753 155.947C103.491 155.602 103.36 155.116 103.36 154.49C103.36 153.863 103.488 153.232 103.743 152.598C104.004 151.952 104.363 151.363 104.82 150.83C105.276 150.289 105.789 149.855 106.359 149.527C106.896 149.219 107.386 149.065 107.829 149.066C108.272 149.059 108.624 149.224 108.886 149.561C109.147 149.898 109.278 150.415 109.278 151.112C109.278 151.189 109.275 151.28 109.268 151.384C109.261 151.489 109.255 151.586 109.248 151.675L104.93 154.156V152.995L108.231 151.098L107.507 151.839C107.514 151.549 107.467 151.329 107.366 151.177C107.272 151.023 107.138 150.937 106.963 150.921C106.796 150.902 106.598 150.957 106.37 151.088C106.141 151.22 105.94 151.393 105.766 151.61C105.598 151.822 105.467 152.064 105.373 152.334C105.279 152.597 105.232 152.872 105.232 153.158V153.495C105.232 153.805 105.286 154.041 105.393 154.203C105.507 154.362 105.668 154.444 105.876 154.448C106.084 154.445 106.333 154.36 106.621 154.194C106.89 154.04 107.118 153.866 107.306 153.673C107.5 153.469 107.691 153.219 107.879 152.926L108.886 153.554C108.624 154.038 108.302 154.478 107.919 154.876C107.537 155.266 107.084 155.611 106.561 155.912ZM110.16 153.739V147.447L111.982 146.4V148.235L111.71 147.868C111.871 147.304 112.133 146.801 112.495 146.361C112.857 145.913 113.297 145.54 113.813 145.243V147.228C113.726 147.263 113.649 147.299 113.582 147.338C113.522 147.365 113.454 147.4 113.381 147.442C112.991 147.666 112.676 147.971 112.435 148.357C112.193 148.736 112.072 149.2 112.072 149.75V152.64L110.16 153.739Z" fill="#E27B14"/>
<path d="M180.254 67.7477C180.278 68.1655 180.401 68.5715 180.614 68.9323C180.826 69.2931 181.12 69.5983 181.474 69.8228C182.149 70.2029 182.693 69.8914 182.693 69.1311C182.669 68.7133 182.546 68.3073 182.334 67.9465C182.122 67.5857 181.827 67.2805 181.474 67.056C180.803 66.6759 180.254 66.9821 180.254 67.7477Z" fill="#455A64"/>
<path d="M163.902 72.6634C162.828 72.6276 161.782 72.3148 160.866 71.7552L156.996 69.564C156.963 69.5482 156.935 69.5259 156.911 69.4986C156.888 69.4713 156.871 69.4395 156.86 69.4052C156.849 69.3709 156.846 69.3349 156.85 69.2992C156.854 69.2635 156.865 69.229 156.882 69.1977C156.9 69.1664 156.924 69.1391 156.952 69.1173C156.981 69.0956 157.013 69.0798 157.048 69.0711C157.083 69.0624 157.119 69.0609 157.155 69.0667C157.19 69.0724 157.224 69.0854 157.254 69.1047L161.124 71.2959C162.798 72.241 164.345 72.3941 165.491 71.7288C166.637 71.0636 167.233 69.696 167.233 67.8428C167.233 65.7994 167.946 64.2576 169.235 63.5026C170.523 62.7475 172.292 62.8901 174.129 63.9303L180.386 67.4731C180.446 67.5085 180.49 67.5656 180.508 67.6325C180.527 67.6994 180.519 67.771 180.486 67.8322C180.452 67.893 180.395 67.9377 180.327 67.9566C180.26 67.9754 180.188 67.9667 180.127 67.9325L173.87 64.416C172.202 63.4709 170.65 63.3178 169.504 63.9883C168.358 64.6589 167.761 66.0211 167.761 67.8691C167.761 69.9178 167.049 71.4595 165.76 72.2093C165.192 72.5231 164.551 72.6798 163.902 72.6634Z" fill="#455A64"/>
<path d="M155.396 68.3813C155.414 68.7189 155.514 69.0472 155.685 69.3385C155.857 69.6297 156.096 69.8755 156.383 70.055C156.911 70.3666 157.37 70.1131 157.37 69.4954C157.352 69.1577 157.252 68.8294 157.081 68.5382C156.909 68.2469 156.67 68.0012 156.383 67.8216C155.839 67.5101 155.396 67.7635 155.396 68.3813Z" fill="#455A64"/>
<path d="M217.847 62.7687L191.975 48.1219C191.704 47.9225 191.375 47.8149 191.038 47.8149C190.701 47.8149 190.373 47.9225 190.101 48.1219L187.862 49.6637L189.388 51.5487V78.8093C189.388 80.7154 190.55 82.9277 191.975 83.7567L217.198 98.0127L217.314 100.04L219.669 98.4245C219.941 98.1714 220.15 97.8594 220.282 97.5125C220.414 97.1655 220.464 96.7929 220.429 96.4234V67.716C220.44 65.8099 219.278 63.5976 217.847 62.7687Z" fill="#51B5B7"/>
<path opacity="0.3" d="M217.847 62.7687L191.975 48.1219C191.704 47.9225 191.375 47.8149 191.038 47.8149C190.701 47.8149 190.373 47.9225 190.101 48.1219L187.862 49.6637L189.388 51.5487V78.8093C189.388 80.7154 190.55 82.9277 191.975 83.7567L217.198 98.0127L217.314 100.04L219.669 98.4245C219.941 98.1714 220.15 97.8594 220.282 97.5125C220.414 97.1655 220.464 96.7929 220.429 96.4234V67.716C220.44 65.8099 219.278 63.5976 217.847 62.7687Z" fill="black"/>
<path d="M215.651 99.9135L189.779 85.2667C188.348 84.4431 187.192 82.2255 187.192 80.3194V51.5962C187.192 49.6848 188.348 48.8083 189.779 49.6373L215.651 64.284C217.082 65.1077 218.238 67.3253 218.238 69.2314V97.9599C218.238 99.8659 217.082 100.742 215.651 99.9135Z" fill="#51B5B7"/>
<path d="M210.218 75.0552C210.159 75.0561 210.102 75.0373 210.055 75.0019C210.008 74.9666 209.974 74.9166 209.959 74.8599C209.408 72.8228 208.555 70.8794 207.43 69.0941C207.392 69.0353 207.379 68.9639 207.394 68.8956C207.409 68.8273 207.451 68.7677 207.509 68.7298C207.538 68.7106 207.571 68.6976 207.606 68.6915C207.64 68.6854 207.675 68.6863 207.709 68.6942C207.743 68.7021 207.776 68.7168 207.804 68.7374C207.832 68.7581 207.856 68.7842 207.874 68.8143C209.029 70.6433 209.905 72.6347 210.471 74.7226C210.488 74.7904 210.478 74.862 210.444 74.9229C210.409 74.9837 210.353 75.0291 210.287 75.05L210.218 75.0552Z" fill="white"/>
<path d="M210.809 80.425C210.739 80.4196 210.673 80.3866 210.627 80.3333C210.58 80.2799 210.557 80.2105 210.561 80.1399C210.561 79.86 210.593 79.5644 210.593 79.2634C210.59 78.3607 210.51 77.4599 210.355 76.5706C210.343 76.5006 210.36 76.4287 210.401 76.3708C210.442 76.3129 210.504 76.2736 210.574 76.2617C210.644 76.2498 210.716 76.2662 210.774 76.3073C210.832 76.3484 210.871 76.4108 210.883 76.4808C211.045 77.3997 211.128 78.3305 211.131 79.2634C211.131 79.5749 211.131 79.8812 211.1 80.1768C211.097 80.2122 211.087 80.2468 211.071 80.2784C211.055 80.3101 211.033 80.3383 211.006 80.3613C210.979 80.3844 210.948 80.4019 210.914 80.4128C210.88 80.4237 210.845 80.4279 210.809 80.425Z" fill="white"/>
<path d="M194.658 71.6602C194.593 71.6604 194.53 71.6361 194.482 71.592C194.434 71.548 194.404 71.4875 194.399 71.4226C194.357 70.9632 194.336 70.5039 194.336 70.0603C194.336 67.4995 195.027 65.3875 196.284 64.1045C196.308 64.0799 196.337 64.0604 196.369 64.0471C196.4 64.0337 196.434 64.0269 196.469 64.0269C196.503 64.0269 196.537 64.0337 196.569 64.0471C196.601 64.0604 196.63 64.0799 196.654 64.1045C196.678 64.1291 196.698 64.1582 196.711 64.1904C196.725 64.2226 196.732 64.2571 196.732 64.2919C196.732 64.3268 196.725 64.3613 196.711 64.3935C196.698 64.4256 196.678 64.4548 196.654 64.4794C195.497 65.6621 194.858 67.6474 194.858 70.0656C194.858 70.4933 194.858 70.9368 194.916 71.3803C194.92 71.4148 194.917 71.4496 194.907 71.4827C194.897 71.5158 194.88 71.5465 194.858 71.5731C194.836 71.5997 194.809 71.6216 194.778 71.6374C194.747 71.6533 194.713 71.6628 194.679 71.6655L194.658 71.6602Z" fill="white"/>
<path d="M206.337 67.3886C206.298 67.3891 206.259 67.3808 206.223 67.3644C206.188 67.3479 206.156 67.3237 206.131 67.2936C205.153 66.0479 203.952 64.9951 202.588 64.189C200.835 63.1963 199.188 63.0062 197.836 63.661C197.773 63.6899 197.701 63.6928 197.636 63.6691C197.571 63.6454 197.518 63.5969 197.488 63.5342C197.473 63.5027 197.464 63.4685 197.462 63.4336C197.46 63.3987 197.465 63.3638 197.477 63.3309C197.489 63.298 197.507 63.2677 197.531 63.2419C197.554 63.2161 197.583 63.1952 197.615 63.1805C199.135 62.4782 200.946 62.6525 202.858 63.756C204.278 64.5964 205.531 65.6919 206.554 66.9874C206.597 67.0414 206.618 67.1106 206.611 67.1798C206.604 67.249 206.57 67.3126 206.517 67.357C206.462 67.3885 206.399 67.3997 206.337 67.3886Z" fill="white"/>
<path d="M196.479 71.8661C196.411 71.8662 196.346 71.8398 196.296 71.7926C196.247 71.7453 196.218 71.6809 196.215 71.6127C196.215 71.449 196.215 71.2853 196.215 71.1217C196.215 69.2473 196.675 67.7161 197.546 66.697C197.568 66.6703 197.595 66.6482 197.625 66.632C197.656 66.6159 197.69 66.6061 197.724 66.6031C197.758 66.6002 197.793 66.6041 197.826 66.6148C197.859 66.6255 197.889 66.6427 197.915 66.6653C197.969 66.7113 198.002 66.7763 198.008 66.8463C198.014 66.9164 197.992 66.986 197.947 67.0402C197.16 67.9642 196.743 69.374 196.743 71.1217C196.743 71.2748 196.743 71.4332 196.743 71.5863C196.745 71.621 196.739 71.6556 196.727 71.6882C196.715 71.7207 196.697 71.7506 196.674 71.7761C196.65 71.8016 196.622 71.8222 196.59 71.8368C196.559 71.8513 196.525 71.8595 196.49 71.8609L196.479 71.8661Z" fill="white"/>
<path d="M198.528 66.4278C198.47 66.4283 198.413 66.4097 198.367 66.3749C198.32 66.34 198.287 66.2908 198.271 66.2349C198.255 66.1789 198.259 66.1194 198.28 66.0655C198.302 66.0116 198.341 65.9663 198.391 65.9367C199.067 65.5345 199.859 65.3708 200.64 65.4721C200.709 65.4788 200.773 65.5125 200.817 65.5658C200.862 65.6192 200.883 65.688 200.878 65.7572C200.87 65.8268 200.835 65.8905 200.781 65.9349C200.726 65.9793 200.657 66.0008 200.587 65.9948C199.922 65.9155 199.249 66.0605 198.676 66.4066C198.629 66.4262 198.578 66.4335 198.528 66.4278Z" fill="white"/>
<path d="M210.218 83.8201C210.165 83.8201 210.113 83.8047 210.069 83.7756C210.025 83.7465 209.99 83.705 209.97 83.6564L209.663 82.8908C209.05 81.4103 208.725 79.8259 208.708 78.2233C208.708 73.7458 205.962 68.5661 202.588 66.6548C202.558 66.6378 202.532 66.615 202.51 66.5876C202.489 66.5602 202.474 66.5289 202.465 66.4954C202.456 66.4619 202.454 66.427 202.459 66.3927C202.464 66.3584 202.475 66.3254 202.493 66.2957C202.51 66.2651 202.532 66.2381 202.559 66.2164C202.587 66.1946 202.618 66.1786 202.651 66.1692C202.685 66.1598 202.72 66.1573 202.755 66.1618C202.789 66.1663 202.822 66.1778 202.852 66.1954C206.369 68.1913 209.236 73.5874 209.236 78.2021C209.249 79.7435 209.561 81.2676 210.155 82.6901L210.461 83.4557C210.475 83.4876 210.482 83.5218 210.482 83.5565C210.482 83.5912 210.475 83.6255 210.462 83.6575C210.449 83.6895 210.429 83.7186 210.405 83.7428C210.38 83.7671 210.35 83.7862 210.318 83.7989C210.287 83.813 210.252 83.8202 210.218 83.8201Z" fill="white"/>
<path d="M198.095 80.7841C198.041 80.7841 197.988 80.7673 197.943 80.7361C197.899 80.705 197.865 80.6609 197.847 80.6098C196.994 78.1149 196.443 75.5269 196.205 72.901C196.202 72.8659 196.206 72.8306 196.217 72.7971C196.228 72.7637 196.246 72.7327 196.269 72.7062C196.292 72.6796 196.32 72.6579 196.352 72.6424C196.383 72.6269 196.418 72.6179 196.453 72.6159C196.522 72.6143 196.59 72.6389 196.642 72.685C196.694 72.731 196.726 72.795 196.733 72.8641C196.958 75.4402 197.49 77.9803 198.317 80.4303C198.329 80.4629 198.335 80.4976 198.334 80.5324C198.333 80.5672 198.324 80.6015 198.31 80.633C198.295 80.6646 198.274 80.6928 198.248 80.7161C198.222 80.7393 198.191 80.7571 198.158 80.7682C198.138 80.7763 198.117 80.7816 198.095 80.7841Z" fill="white"/>
<path d="M208.666 85.5993C208.612 85.6005 208.559 85.5848 208.514 85.5545C208.47 85.5243 208.436 85.4809 208.417 85.4304L207.71 83.5296C206.997 81.6743 206.612 79.7089 206.575 77.7216V75.6465C206.575 73.1808 204.806 70.1765 202.631 68.9462C201.617 68.3707 200.677 68.2704 199.991 68.6717C199.304 69.0729 198.935 69.9019 198.935 71.0265V72.864C198.992 75.8488 199.59 78.7986 200.698 81.5707L201.569 83.8411C201.582 83.8737 201.588 83.9084 201.587 83.9434C201.586 83.9783 201.579 84.0128 201.564 84.0447C201.55 84.0766 201.53 84.1054 201.504 84.1294C201.479 84.1533 201.449 84.172 201.416 84.1843C201.351 84.2084 201.279 84.2058 201.216 84.1771C201.152 84.1484 201.103 84.096 201.078 84.0312L200.207 81.7608C199.082 78.9267 198.477 75.9128 198.422 72.864V71.0318C198.422 69.7118 198.882 68.7139 199.727 68.2229C200.571 67.7318 201.707 67.8216 202.895 68.4921C205.212 69.8069 207.119 73.0171 207.119 75.6518V77.7269C207.155 79.6513 207.529 81.5545 208.222 83.3501L208.924 85.2456C208.937 85.2778 208.943 85.3122 208.942 85.3468C208.941 85.3813 208.933 85.4154 208.919 85.4469C208.905 85.4784 208.884 85.5067 208.859 85.5302C208.834 85.5536 208.804 85.5718 208.771 85.5835L208.666 85.5993Z" fill="white"/>
<path d="M206.337 86.3545C206.281 86.3548 206.226 86.337 206.18 86.3038C206.134 86.2705 206.101 86.2235 206.084 86.1697L205.714 84.9236C205.041 82.7364 204.685 80.464 204.658 78.1757V74.9761C204.617 74.2513 204.404 73.5467 204.037 72.9205C203.67 72.2943 203.159 71.7646 202.546 71.3751C202.355 71.2351 202.131 71.1478 201.895 71.1219C201.66 71.0959 201.422 71.1323 201.205 71.2273C201.019 71.3619 200.873 71.5432 200.78 71.7528C200.687 71.9624 200.652 72.1927 200.677 72.4205C200.677 75.9898 201.765 80.1029 203.734 84.0049L204.479 85.478C204.494 85.5092 204.503 85.5431 204.506 85.5779C204.508 85.6127 204.504 85.6477 204.493 85.6808C204.482 85.7139 204.464 85.7445 204.442 85.7708C204.419 85.7972 204.391 85.8188 204.36 85.8344C204.329 85.85 204.295 85.8593 204.26 85.8618C204.225 85.8642 204.19 85.8598 204.157 85.8488C204.124 85.8378 204.093 85.8203 204.067 85.7975C204.041 85.7746 204.019 85.7468 204.003 85.7156L203.264 84.2425C201.252 80.2666 200.149 76.069 200.149 72.4205C200.119 72.1003 200.176 71.778 200.314 71.4873C200.451 71.1966 200.664 70.9481 200.93 70.7679C201.226 70.6251 201.555 70.5636 201.882 70.5895C202.21 70.6155 202.524 70.7281 202.794 70.9157C203.486 71.3542 204.064 71.9511 204.48 72.6571C204.896 73.3632 205.138 74.158 205.186 74.9761V78.1863C205.21 80.4244 205.557 82.6473 206.216 84.7863L206.585 86.0271C206.596 86.0604 206.599 86.0954 206.596 86.1301C206.592 86.1648 206.582 86.1985 206.565 86.229C206.548 86.2596 206.526 86.2865 206.498 86.308C206.471 86.3296 206.439 86.3454 206.406 86.3545C206.383 86.3589 206.36 86.3589 206.337 86.3545Z" fill="white"/>
<path d="M203.375 80.784C203.315 80.7833 203.257 80.7627 203.21 80.7254C203.163 80.6881 203.13 80.6363 203.116 80.5781L202.873 79.4482C202.641 78.3617 202.524 77.2538 202.525 76.1429V73.1702C202.525 73.1002 202.553 73.0331 202.602 72.9836C202.652 72.9341 202.719 72.9062 202.789 72.9062C202.859 72.9062 202.926 72.9341 202.976 72.9836C203.025 73.0331 203.053 73.1002 203.053 73.1702V76.1429C203.056 77.2077 203.169 78.2694 203.391 79.3109L203.634 80.4408C203.641 80.4745 203.642 80.5093 203.636 80.5433C203.63 80.5774 203.618 80.6098 203.599 80.6389C203.58 80.6679 203.556 80.6929 203.528 80.7124C203.499 80.7319 203.467 80.7455 203.433 80.7523L203.375 80.784Z" fill="white"/>
<path d="M195.233 75.0552C195.168 75.0544 195.105 75.0298 195.057 74.9861C195.008 74.9424 194.977 74.8825 194.969 74.8176L194.816 73.2758C194.81 73.206 194.832 73.1367 194.876 73.0824C194.92 73.0282 194.984 72.9934 195.054 72.9854C195.089 72.981 195.124 72.9838 195.158 72.9935C195.191 73.0032 195.223 73.0197 195.25 73.0419C195.277 73.0641 195.299 73.0916 195.316 73.1228C195.332 73.1539 195.342 73.188 195.344 73.223L195.497 74.7648C195.501 74.7995 195.498 74.8346 195.488 74.868C195.478 74.9014 195.461 74.9325 195.439 74.9596C195.417 74.9866 195.39 75.0089 195.359 75.0253C195.328 75.0417 195.294 75.0519 195.26 75.0552H195.233Z" fill="white"/>
<path d="M217.847 111.693L191.975 97.0411C191.704 96.8417 191.375 96.7341 191.038 96.7341C190.701 96.7341 190.373 96.8417 190.101 97.0411L187.862 98.5829L189.388 100.468V127.729C189.388 129.635 190.55 131.847 191.975 132.676L217.198 146.932L217.314 148.959L219.669 147.349C219.941 147.095 220.15 146.782 220.282 146.434C220.414 146.086 220.464 145.713 220.429 145.343V116.619C220.44 114.729 219.278 112.517 217.847 111.693Z" fill="#51B5B7"/>
<path opacity="0.3" d="M217.847 111.693L191.975 97.0411C191.704 96.8417 191.375 96.7341 191.038 96.7341C190.701 96.7341 190.373 96.8417 190.101 97.0411L187.862 98.5829L189.388 100.468V127.729C189.388 129.635 190.55 131.847 191.975 132.676L217.198 146.932L217.314 148.959L219.669 147.349C219.941 147.095 220.15 146.782 220.282 146.434C220.414 146.086 220.464 145.713 220.429 145.343V116.619C220.44 114.729 219.278 112.517 217.847 111.693Z" fill="black"/>
<path d="M215.651 148.833L189.779 134.186C188.348 133.362 187.192 131.15 187.192 129.239V100.515C187.192 98.6093 188.348 97.7328 189.779 98.5565L215.651 113.203C217.082 114.032 218.238 116.245 218.238 118.151V146.879C218.238 148.785 217.082 149.662 215.651 148.833Z" fill="#51B5B7"/>
<path d="M192.958 108.53C192.888 108.53 192.82 108.503 192.771 108.453C192.721 108.404 192.694 108.337 192.694 108.266V106.487C192.692 106.31 192.738 106.136 192.826 105.983C192.914 105.83 193.042 105.703 193.195 105.616C193.355 105.52 193.537 105.469 193.723 105.469C193.909 105.469 194.092 105.52 194.251 105.616L196.115 106.672C196.177 106.706 196.222 106.764 196.241 106.831C196.261 106.899 196.252 106.972 196.218 107.034C196.184 107.095 196.126 107.141 196.058 107.16C195.991 107.179 195.918 107.171 195.856 107.137L193.987 106.081C193.907 106.034 193.816 106.01 193.723 106.01C193.63 106.01 193.539 106.034 193.459 106.081C193.386 106.121 193.325 106.181 193.284 106.254C193.242 106.326 193.22 106.409 193.222 106.492V108.272C193.22 108.341 193.192 108.407 193.142 108.455C193.093 108.503 193.027 108.531 192.958 108.53Z" fill="white"/>
<path d="M195.957 133.014C195.912 133.013 195.869 133.003 195.83 132.982L194.087 131.995C193.671 131.755 193.325 131.409 193.085 130.993C192.845 130.577 192.719 130.105 192.72 129.624V127.982C192.72 127.912 192.748 127.845 192.797 127.795C192.847 127.746 192.914 127.718 192.984 127.718C193.054 127.718 193.121 127.746 193.171 127.795C193.22 127.845 193.248 127.912 193.248 127.982V129.624C193.25 130.014 193.355 130.396 193.552 130.732C193.75 131.068 194.033 131.345 194.373 131.535L196.115 132.523C196.165 132.552 196.203 132.597 196.225 132.65C196.247 132.704 196.25 132.763 196.235 132.818C196.22 132.874 196.188 132.923 196.142 132.959C196.096 132.994 196.041 133.013 195.983 133.014H195.957Z" fill="white"/>
<path d="M211.728 141.837C211.543 141.84 211.36 141.793 211.2 141.699L209.336 140.643C209.275 140.609 209.231 140.552 209.212 140.485C209.193 140.417 209.202 140.345 209.236 140.284C209.271 140.225 209.328 140.181 209.395 140.162C209.462 140.143 209.534 140.151 209.595 140.184L211.464 141.24C211.544 141.286 211.635 141.311 211.728 141.311C211.821 141.311 211.912 141.286 211.992 141.24C212.065 141.199 212.126 141.139 212.167 141.067C212.209 140.994 212.231 140.912 212.23 140.828V139.049C212.23 138.979 212.257 138.912 212.307 138.862C212.356 138.813 212.424 138.785 212.494 138.785C212.564 138.785 212.631 138.813 212.68 138.862C212.73 138.912 212.758 138.979 212.758 139.049V140.828C212.759 141.004 212.713 141.177 212.625 141.329C212.536 141.482 212.409 141.608 212.256 141.694C212.096 141.789 211.914 141.838 211.728 141.837Z" fill="white"/>
<path d="M212.483 119.592C212.413 119.592 212.346 119.564 212.296 119.515C212.247 119.465 212.219 119.398 212.219 119.328V117.686C212.218 117.297 212.113 116.916 211.915 116.581C211.717 116.246 211.434 115.969 211.094 115.78L209.352 114.793C209.291 114.757 209.246 114.699 209.227 114.631C209.208 114.563 209.217 114.49 209.252 114.428C209.269 114.398 209.291 114.372 209.319 114.35C209.346 114.329 209.378 114.314 209.411 114.305C209.445 114.296 209.479 114.294 209.514 114.299C209.548 114.304 209.581 114.315 209.611 114.333L211.353 115.321C211.774 115.557 212.124 115.9 212.369 116.315C212.614 116.731 212.744 117.204 212.747 117.686V119.328C212.747 119.398 212.719 119.465 212.67 119.515C212.62 119.564 212.553 119.592 212.483 119.592Z" fill="white"/>
<path d="M195.297 117.411C195.356 120.41 195.785 123.389 196.574 126.282C198.581 133.853 206.496 138.505 208.671 133.378C209.693 130.856 210.194 128.153 210.144 125.432C210.144 120.785 206.818 115.136 202.72 112.812C198.528 110.442 195.239 112.644 195.297 117.411Z" fill="white"/>
<path d="M202.456 121.641V126.614L200.297 124.999L202.456 121.641Z" fill="#E0E0E0"/>
<path d="M198.438 118.668C198.452 118.912 198.524 119.149 198.647 119.36C198.77 119.571 198.941 119.75 199.146 119.882C199.542 120.104 199.859 119.925 199.859 119.476C199.845 119.232 199.773 118.995 199.649 118.785C199.525 118.575 199.352 118.397 199.146 118.267C198.755 118.045 198.438 118.225 198.438 118.668Z" fill="#E0E0E0"/>
<path d="M205.049 122.459C205.064 122.703 205.136 122.939 205.26 123.149C205.384 123.359 205.556 123.537 205.762 123.668C206.158 123.89 206.474 123.71 206.474 123.267C206.46 123.022 206.389 122.785 206.265 122.574C206.141 122.362 205.968 122.184 205.762 122.053C205.392 121.831 205.049 122.01 205.049 122.459Z" fill="#E0E0E0"/>
<path d="M201.744 129.049L204.156 128.642C204.156 128.642 203.644 131.219 201.744 129.049Z" fill="#E0E0E0"/>
<path d="M180.254 113.9C180.279 114.317 180.403 114.722 180.615 115.082C180.827 115.442 181.121 115.746 181.474 115.97C182.149 116.355 182.693 116.044 182.693 115.284C182.669 114.866 182.546 114.46 182.334 114.099C182.122 113.738 181.827 113.433 181.474 113.209C180.803 112.823 180.254 113.135 180.254 113.9Z" fill="#455A64"/>
<path d="M180.301 114.476C180.256 114.475 180.21 114.464 180.169 114.444L173.918 110.88C170.259 108.81 167.281 103.747 167.281 99.6019C167.281 95.6208 164.424 90.7685 160.913 88.7779L156.995 86.5603C156.935 86.5259 156.89 86.4688 156.871 86.4015C156.852 86.3342 156.861 86.2622 156.895 86.2013C156.912 86.1706 156.934 86.1436 156.961 86.1219C156.988 86.1001 157.02 86.0841 157.053 86.0747C157.087 86.0654 157.122 86.0629 157.156 86.0674C157.191 86.0719 157.224 86.0833 157.254 86.1009L161.172 88.3185C164.831 90.3936 167.809 95.4518 167.809 99.6019C167.809 103.578 170.665 108.43 174.177 110.421L180.433 113.969C180.494 114.003 180.539 114.06 180.558 114.128C180.577 114.195 180.568 114.267 180.534 114.328C180.511 114.371 180.478 114.407 180.437 114.433C180.397 114.459 180.35 114.474 180.301 114.476Z" fill="#455A64"/>
<path d="M155.396 85.2932C155.416 85.6311 155.516 85.9595 155.688 86.2513C155.859 86.5431 156.098 86.7902 156.383 86.9722C156.911 87.2784 157.37 87.0303 157.37 86.4125C157.35 86.0746 157.25 85.7462 157.078 85.4544C156.907 85.1625 156.668 84.9155 156.383 84.7335C155.839 84.4272 155.396 84.6754 155.396 85.2932Z" fill="#455A64"/>
<path d="M162.825 133.69C162.825 133.69 166.674 133.431 168.854 138.779C170.211 142.106 171.864 147.227 172.92 150.659C173.241 151.696 173.248 152.804 172.942 153.844C172.636 154.885 172.029 155.812 171.199 156.51L164.488 162.143L162.096 157.777C163.491 155.916 165.025 154.163 166.684 152.534L162.096 138.779L162.825 133.69Z" fill="#FFA8A7"/>
<path d="M164.599 150.026C164.599 150.026 170.713 150.834 172.239 146.119C172.239 146.119 169.599 139.218 168.416 136.926C167.233 134.635 164.762 132.966 162.825 133.69C160.887 134.413 164.599 150.026 164.599 150.026Z" fill="#51B5B7"/>
<path opacity="0.4" d="M164.599 150.026C164.599 150.026 170.713 150.834 172.239 146.119C172.239 146.119 169.599 139.218 168.416 136.926C167.233 134.635 164.762 132.966 162.825 133.69C160.887 134.413 164.599 150.026 164.599 150.026Z" fill="white"/>
<path d="M160.512 211.939C160.512 211.939 157.608 209.452 156.478 209.336C155.348 209.22 153.395 211.152 155.047 214.505C155.507 215.44 157.376 216.448 158.543 218.238C159.709 220.028 160.755 221.375 162.545 221.126C164.335 220.878 164.567 219.875 164.451 218.708C164.299 217.641 164.086 216.583 163.812 215.54L160.512 211.939Z" fill="#37474F"/>
<path d="M162.624 220.593C160.781 220.847 159.699 219.458 158.495 217.615C157.291 215.772 155.369 214.727 154.894 213.766C154.704 213.381 154.548 212.98 154.429 212.568C154.517 213.243 154.721 213.899 155.031 214.505C155.491 215.44 157.36 216.448 158.527 218.238C159.694 220.028 160.739 221.375 162.529 221.126C163.902 220.942 164.356 220.303 164.44 219.49C164.208 220.039 163.706 220.451 162.624 220.593Z" fill="#263238"/>
<path d="M158.97 215.139C158.924 215.14 158.878 215.127 158.838 215.102C158.806 215.085 158.777 215.061 158.753 215.033C158.729 215.004 158.712 214.971 158.701 214.936C158.69 214.901 158.686 214.864 158.69 214.827C158.694 214.79 158.705 214.754 158.722 214.722C159.313 213.675 160.294 212.904 161.452 212.578C161.523 212.567 161.596 212.584 161.655 212.624C161.715 212.665 161.757 212.726 161.773 212.796C161.789 212.867 161.778 212.94 161.742 213.003C161.706 213.065 161.647 213.111 161.579 213.132C160.583 213.423 159.737 214.087 159.218 214.986C159.195 215.031 159.159 215.069 159.115 215.096C159.072 215.123 159.022 215.138 158.97 215.139Z" fill="#EBEBEB"/>
<path d="M157.872 214.136C157.826 214.135 157.781 214.124 157.74 214.104C157.707 214.087 157.678 214.063 157.655 214.035C157.631 214.006 157.613 213.973 157.603 213.938C157.592 213.903 157.588 213.866 157.592 213.829C157.595 213.792 157.606 213.756 157.624 213.724C157.916 213.204 158.308 212.747 158.778 212.379C159.247 212.011 159.784 211.74 160.359 211.58C160.397 211.56 160.439 211.55 160.481 211.549C160.524 211.548 160.567 211.556 160.605 211.574C160.644 211.592 160.678 211.619 160.705 211.652C160.732 211.685 160.751 211.724 160.761 211.766C160.77 211.807 160.77 211.851 160.76 211.892C160.751 211.934 160.732 211.973 160.705 212.006C160.677 212.039 160.643 212.065 160.604 212.083C160.565 212.101 160.523 212.109 160.48 212.108C159.484 212.402 158.639 213.067 158.12 213.967C158.1 214.016 158.065 214.058 158.021 214.088C157.977 214.118 157.925 214.135 157.872 214.136Z" fill="#EBEBEB"/>
<path d="M156.642 213.138C156.596 213.137 156.551 213.127 156.51 213.106C156.443 213.07 156.394 213.01 156.372 212.937C156.35 212.865 156.358 212.787 156.394 212.721C156.987 211.674 157.97 210.905 159.129 210.582C159.165 210.574 159.202 210.572 159.239 210.578C159.275 210.584 159.31 210.597 159.342 210.617C159.373 210.637 159.401 210.662 159.422 210.693C159.443 210.723 159.459 210.757 159.467 210.793C159.482 210.867 159.468 210.944 159.428 211.007C159.387 211.07 159.323 211.115 159.25 211.131C158.254 211.425 157.409 212.091 156.89 212.99C156.866 213.035 156.831 213.073 156.787 213.099C156.743 213.125 156.693 213.139 156.642 213.138Z" fill="#EBEBEB"/>
<path d="M145.057 220.097C145.057 220.097 141.166 218.835 140.004 219.183C138.843 219.532 137.708 222.246 140.717 224.88C141.552 225.609 143.811 225.841 145.702 227.13C147.592 228.418 149.176 229.31 150.844 228.334C152.513 227.357 152.376 226.222 152.075 225.018C151.7 223.465 151.393 222.335 151.393 222.335L145.057 220.097Z" fill="#37474F"/>
<path d="M150.718 227.769C149.002 228.777 147.36 227.853 145.438 226.523C143.516 225.192 141.161 224.939 140.3 224.205C139.952 223.902 139.632 223.568 139.344 223.207C139.709 223.841 140.181 224.407 140.738 224.88C141.573 225.609 143.832 225.841 145.723 227.13C147.613 228.418 149.197 229.31 150.865 228.334C152.138 227.589 152.328 226.75 152.08 225.931C152.064 226.57 151.705 227.188 150.718 227.769Z" fill="#263238"/>
<path d="M144.144 223.692H144.118C144.043 223.684 143.974 223.647 143.927 223.589C143.879 223.531 143.857 223.456 143.864 223.381C144.017 222.11 144.669 220.951 145.675 220.16C145.705 220.139 145.739 220.123 145.775 220.115C145.81 220.106 145.847 220.105 145.884 220.111C145.92 220.117 145.955 220.13 145.986 220.149C146.017 220.168 146.044 220.194 146.066 220.223C146.11 220.285 146.127 220.36 146.116 220.434C146.104 220.509 146.063 220.575 146.003 220.619C145.132 221.321 144.565 222.331 144.419 223.439C144.412 223.508 144.38 223.571 144.33 223.618C144.279 223.665 144.213 223.691 144.144 223.692Z" fill="#EBEBEB"/>
<path d="M145.728 224.215C145.654 224.207 145.586 224.171 145.539 224.113C145.492 224.056 145.469 223.983 145.475 223.909C145.63 222.637 146.28 221.478 147.286 220.683C147.347 220.64 147.424 220.623 147.498 220.636C147.572 220.648 147.638 220.69 147.682 220.751C147.703 220.782 147.718 220.816 147.726 220.852C147.734 220.888 147.735 220.925 147.728 220.961C147.722 220.997 147.709 221.032 147.689 221.063C147.669 221.094 147.643 221.121 147.613 221.142C146.741 221.842 146.173 222.853 146.029 223.962C146.022 224.035 145.987 224.103 145.931 224.15C145.874 224.198 145.801 224.221 145.728 224.215Z" fill="#EBEBEB"/>
<path d="M142.645 223.149H142.618C142.544 223.141 142.477 223.104 142.429 223.047C142.382 222.99 142.359 222.916 142.365 222.842C142.517 221.57 143.168 220.409 144.176 219.616C144.237 219.573 144.312 219.555 144.386 219.568C144.46 219.58 144.526 219.621 144.569 219.682C144.612 219.743 144.63 219.819 144.618 219.893C144.605 219.966 144.564 220.032 144.503 220.076C143.631 220.776 143.063 221.786 142.919 222.895C142.913 222.964 142.881 223.028 142.83 223.074C142.78 223.121 142.713 223.148 142.645 223.149Z" fill="#EBEBEB"/>
<path d="M163.997 212.678C164.345 208.824 165.1 202.784 165.417 199.959C165.844 196.389 165.741 192.775 165.111 189.235C164.949 188.401 164.908 187.547 164.989 186.701C165.755 179.024 166.251 166.579 165.829 163.844L155.052 166.125C155.052 166.125 156.372 183.586 156.953 189.394C157.534 195.202 159.699 212.731 159.699 212.731C160.342 213.143 161.092 213.357 161.856 213.348C162.619 213.338 163.364 213.106 163.997 212.678Z" fill="#455A64"/>
<path d="M162.444 216.644C162.742 216.574 163.02 216.438 163.258 216.246C163.496 216.054 163.687 215.811 163.817 215.535C163.817 214.928 163.886 213.914 163.997 212.678C163.364 213.106 162.619 213.338 161.856 213.348C161.092 213.357 160.342 213.143 159.699 212.731L160.079 215.973C160.396 216.258 160.774 216.467 161.184 216.583C161.594 216.699 162.025 216.72 162.444 216.644Z" fill="#FFA8A7"/>
<path d="M151.874 219.458C152.312 213.618 153.162 202.314 153.273 200.534C153.356 198.571 153.232 196.605 152.904 194.668C152.713 193.621 152.713 192.548 152.904 191.5L157.656 165.216L144.63 165.026L143.78 192.562C143.77 192.914 143.784 193.267 143.822 193.618L146.583 219.284C146.583 219.284 149.276 221.549 151.874 219.458Z" fill="#455A64"/>
<path d="M149.699 224.273C150.104 224.226 150.491 224.079 150.824 223.845C151.158 223.611 151.428 223.297 151.61 222.932L151.874 219.458C149.276 221.57 146.594 219.294 146.594 219.294L147.006 223.138C147.006 223.138 147.608 224.469 149.699 224.273Z" fill="#FFA8A7"/>
<path d="M150.649 135.442L147.576 136.498L144.271 152.133L144.434 165.993C144.434 165.993 146.795 167.878 156.013 167.878C161.188 167.878 164.562 165.924 165.829 163.849L165 155.475C165 155.475 165.829 147.222 165.829 143.141C165.829 139.059 166.014 135.717 162.825 133.695L159.984 133.932L150.649 135.442Z" fill="#51B5B7"/>
<path opacity="0.2" d="M150.649 135.442L147.576 136.498L144.271 152.133L144.434 165.993C144.434 165.993 146.795 167.878 156.013 167.878C161.188 167.878 164.562 165.924 165.829 163.849L165 155.475C165 155.475 165.829 147.222 165.829 143.141C165.829 139.059 166.014 135.717 162.825 133.695L159.984 133.932L150.649 135.442Z" fill="white"/>
<path d="M147.312 122.005L145.776 125.051C145.753 125.096 145.741 125.144 145.739 125.193C145.737 125.243 145.746 125.292 145.766 125.338C145.785 125.383 145.813 125.424 145.85 125.458C145.886 125.491 145.929 125.517 145.976 125.532L147.798 126.144L147.312 122.005Z" fill="#F28F8F"/>
<path d="M149.424 116.899C149.424 116.899 147.09 118.156 147.09 125.347C147.09 129.312 147.365 131.842 149.424 131.683C151.483 131.525 157.418 130.749 157.418 130.749V116.899H149.424Z" fill="#FFA8A7"/>
<path d="M149.424 131.71C150.147 131.652 151.351 131.52 152.592 131.372V130.638C151.46 131.121 150.276 131.475 149.065 131.694C149.184 131.708 149.304 131.713 149.424 131.71Z" fill="#F28F8F"/>
<path d="M152.275 130.331V134.856H158.469V128.499L152.275 130.331Z" fill="#FFA8A7"/>
<path d="M152.275 133.135C152.275 133.135 154.503 133.927 156.288 133.616C158.073 133.304 158.469 132.216 158.469 132.216C158.469 132.216 159.049 132.169 159.984 133.927C159.62 134.584 159.099 135.141 158.468 135.548C157.837 135.955 157.116 136.2 156.367 136.261C154.425 136.385 152.478 136.107 150.649 135.443C150.649 135.443 151.536 132.908 152.275 133.135Z" fill="#51B5B7"/>
<path opacity="0.4" d="M152.275 133.135C152.275 133.135 154.503 133.927 156.288 133.616C158.073 133.304 158.469 132.216 158.469 132.216C158.469 132.216 159.049 132.169 159.984 133.927C159.62 134.584 159.099 135.141 158.468 135.548C157.837 135.955 157.116 136.2 156.367 136.261C154.425 136.385 152.478 136.107 150.649 135.443C150.649 135.443 151.536 132.908 152.275 133.135Z" fill="white"/>
<path d="M138.457 146.567L136.794 149.123C136.794 149.123 132.755 147.323 129.93 146.23C128.285 145.619 126.754 144.737 125.4 143.621C125.501 142.521 125.677 141.429 125.928 140.353C126.255 139.244 126.366 138.32 125.4 138.811C124.434 139.302 123.763 141.208 123.705 141.451C123.705 141.451 118.029 135.743 117.322 135.87C116.614 135.997 116.794 136.852 118.304 138.611L119.83 140.374C119.83 140.374 116.35 142.375 116.915 144.561C117.48 146.747 122.068 147.729 122.068 147.729C122.068 147.729 135.495 158.046 138.468 156.177C141.441 154.308 145.649 148.97 145.649 148.97L138.457 146.567Z" fill="#FFA8A7"/>
<path d="M148.796 136.092C148.796 136.092 151.277 138.13 149.662 142.343C148.046 146.557 143.922 151.647 143.922 151.647C143.922 151.647 139.603 150.3 137.935 146.81L143.384 138.283C143.77 137.676 144.294 137.168 144.913 136.801C145.533 136.435 146.229 136.219 146.948 136.171C147.465 136.139 148.078 136.113 148.796 136.092Z" fill="#51B5B7"/>
<path opacity="0.4" d="M148.796 136.092C148.796 136.092 151.277 138.13 149.662 142.343C148.046 146.557 143.922 151.647 143.922 151.647C143.922 151.647 139.603 150.3 137.935 146.81L143.384 138.283C143.77 137.676 144.294 137.168 144.913 136.801C145.533 136.435 146.229 136.219 146.948 136.171C147.465 136.139 148.078 136.113 148.796 136.092Z" fill="white"/>
<path d="M148.553 112.654C148.553 112.654 146.103 112.327 145.48 114.011C145.089 115.067 146.335 115.88 146.335 115.88C146.335 115.88 144.751 117.364 147.111 117.823C147.071 118.076 147.093 118.336 147.178 118.578C147.262 118.821 147.404 119.038 147.593 119.212C147.782 119.386 148.011 119.51 148.26 119.573C148.508 119.637 148.769 119.638 149.018 119.576C149.018 119.576 148.743 121.16 150.807 121.736C150.807 121.736 149.751 124.513 151.726 124.55H153.558L152.819 126.694C152.819 126.694 154.192 129.999 158.469 129.999C158.938 128.995 159.467 128.02 160.053 127.079C160.581 126.419 163.221 123.035 163.221 120.352C163.221 117.67 162.191 116.081 160.76 115.727C160.307 114.742 159.6 113.894 158.712 113.272C157.27 112.3 154.239 111.434 152.529 112.628C152.529 112.628 151.013 110.637 149.963 110.637C148.912 110.637 148.553 111.719 148.553 112.654Z" fill="#263238"/>
<path d="M151.726 124.55C151.726 124.55 151.547 121.736 153.917 121.736C156.288 121.736 155.728 126.694 152.819 126.694L151.726 124.55Z" fill="#FFA8A7"/>
<defs>
<linearGradient id="paint0_linear_212_1043" x1="30.5958" y1="171.942" x2="50.6385" y2="192.532" gradientUnits="userSpaceOnUse">
<stop stop-color="#0E8149"/>
<stop offset="1" stop-color="#88D3D6"/>
</linearGradient>
<linearGradient id="paint1_linear_212_1043" x1="98.3136" y1="138.896" x2="75.3763" y2="105.041" gradientUnits="userSpaceOnUse">
<stop stop-color="#090653"/>
<stop offset="1" stop-color="#140DB9"/>
</linearGradient>
</defs>
</svg>
