<svg width="24" height="24" viewBox="0 0 24 24" fill="none" xmlns="http://www.w3.org/2000/svg">
    <path d="M17.29 11.969C17.2919 12.3215 17.1537 12.6604 16.9058 12.9111C16.6579 13.1618 16.3206 13.3039 15.968 13.306C15.7933 13.3051 15.6206 13.2698 15.4596 13.2021C15.2985 13.1344 15.1524 13.0356 15.0296 12.9115C14.9067 12.7873 14.8095 12.6402 14.7436 12.4785C14.6776 12.3168 14.6441 12.1436 14.645 11.969C14.6439 11.7942 14.6773 11.621 14.7433 11.4592C14.8092 11.2973 14.9064 11.1501 15.0292 11.0258C15.1521 10.9016 15.2982 10.8027 15.4593 10.735C15.6204 10.6672 15.7933 10.6319 15.968 10.631C16.698 10.631 17.29 11.23 17.29 11.969Z" fill="white"/>
    <path fill-rule="evenodd" clip-rule="evenodd" d="M18.132 7.40802C17.283 7.28802 16.19 7.28802 14.827 7.28802H9.173C7.81 7.28802 6.717 7.28802 5.868 7.40802C4.991 7.53302 4.26 7.80103 3.716 8.42803C3.173 9.05603 3.006 9.82502 3 10.721C2.994 11.587 3.139 12.683 3.319 14.05L3.684 16.821C3.825 17.89 3.939 18.754 4.116 19.431C4.301 20.135 4.573 20.72 5.084 21.172C5.595 21.624 6.204 21.82 6.918 21.912C7.605 22 8.468 22 9.533 22H14.467C15.532 22 16.395 22 17.082 21.912C17.797 21.82 18.405 21.624 18.916 21.172C19.427 20.72 19.699 20.135 19.884 19.431C20.061 18.754 20.175 17.889 20.316 16.821L20.681 14.05C20.861 12.683 21.006 11.587 21 10.72C20.993 9.82503 20.828 9.05602 20.284 8.42902C19.74 7.80102 19.009 7.53302 18.132 7.40802ZM6.052 8.73203C5.326 8.83603 4.958 9.02403 4.712 9.31003C4.464 9.59503 4.328 9.98802 4.322 10.73C4.317 11.492 4.448 12.495 4.637 13.925L4.687 14.305L5.058 14.032C6.018 13.33 7.434 13.364 8.346 14.127L11.73 16.96C12.05 17.228 12.601 17.278 12.999 17.044L13.234 16.906C14.359 16.244 15.868 16.314 16.906 17.096L18.738 18.476C18.828 17.98 18.909 17.371 19.011 16.6L19.363 13.925C19.552 12.495 19.683 11.492 19.677 10.73C19.672 9.98802 19.536 9.59503 19.289 9.31003C19.042 9.02403 18.674 8.83603 17.947 8.73203C17.202 8.62603 16.202 8.62502 14.775 8.62502H9.225C7.798 8.62502 6.797 8.62603 6.052 8.73203Z" fill="white"/>
    <path d="M8.859 2H15.141C15.351 2 15.511 2 15.651 2.015C16.1298 2.06826 16.5847 2.25251 16.9656 2.54748C17.3464 2.84246 17.6386 3.23675 17.81 3.687H6.19C6.36136 3.23675 6.65355 2.84246 7.03445 2.54748C7.41534 2.25251 7.87019 2.06826 8.349 2.015C8.489 2 8.649 2 8.859 2ZM6.88 4.5C5.628 4.5 4.602 5.34 4.26 6.454L4.239 6.524C4.597 6.404 4.969 6.324 5.347 6.271C6.32 6.132 7.549 6.132 8.976 6.132H15.179C16.606 6.132 17.835 6.132 18.807 6.271C19.185 6.324 19.557 6.403 19.917 6.524L19.896 6.454C19.553 5.34 18.527 4.5 17.276 4.5H6.88Z" fill="white"/>
</svg>
