<svg width="266" height="261" viewBox="0 0 266 261" fill="none" xmlns="http://www.w3.org/2000/svg">
    <path d="M140.746 260.825C209.861 260.825 265.89 228.476 265.89 188.571C265.89 148.667 209.861 116.318 140.746 116.318C71.6311 116.318 15.6022 148.667 15.6022 188.571C15.6022 228.476 71.6311 260.825 140.746 260.825Z" fill="#F5F5F5"/>
    <path d="M163.214 248.477L224.611 213.036C225.955 212.26 225.955 211 224.611 210.224L108.372 143.106C107.617 142.723 106.782 142.524 105.936 142.524C105.089 142.524 104.255 142.723 103.5 143.106L42.1037 178.547C40.7592 179.323 40.7592 180.583 42.1037 181.359L158.343 248.477C159.098 248.86 159.932 249.059 160.779 249.059C161.625 249.059 162.46 248.86 163.214 248.477Z" fill="#E0E0E0"/>
    <path d="M53.844 179.891L58.6594 177.112C58.6594 177.112 59.8351 166.806 59.0532 158.824C57.9281 147.612 50.705 134.117 42.0643 137.284C33.4235 140.451 46.0021 151.876 48.8148 161.389C51.6275 170.902 53.844 179.891 53.844 179.891Z" fill="#51B5B7"/>
    <path opacity="0.15" d="M53.844 179.891L58.6594 177.112C58.6594 177.112 59.8351 166.806 59.0532 158.824C57.9281 147.612 50.705 134.117 42.0643 137.284C33.4235 140.451 46.0021 151.876 48.8148 161.389C51.6275 170.902 53.844 179.891 53.844 179.891Z" fill="black"/>
    <path d="M56.3643 178.721C56.2877 178.718 56.2153 178.685 56.1627 178.63C56.1101 178.574 56.0815 178.5 56.083 178.423C56.9268 153.502 44.5508 140.963 44.3989 140.839C44.3715 140.813 44.3498 140.781 44.3349 140.745C44.32 140.71 44.3124 140.672 44.3124 140.634C44.3124 140.596 44.32 140.558 44.3349 140.523C44.3498 140.487 44.3715 140.455 44.3989 140.429C44.4536 140.375 44.5274 140.344 44.6042 140.344C44.6811 140.344 44.7548 140.375 44.8096 140.429C44.9333 140.558 57.5231 153.272 56.668 178.445C56.6637 178.522 56.6294 178.594 56.5726 178.645C56.5157 178.697 56.4409 178.724 56.3643 178.721Z" fill="white"/>
    <path d="M51.3013 181.883L54.6766 179.902C54.6766 179.902 55.2391 172.831 51.7964 164.241C48.7755 156.759 41.288 150.554 37.5189 151.865C33.7499 153.176 33.8624 155.825 35.7019 158.638C37.5414 161.451 48.7136 168.117 51.3013 181.883Z" fill="#E27B14"/>
    <path d="M53.0845 181.14C53.0069 181.14 52.9325 181.109 52.8776 181.054C52.8228 181 52.792 180.925 52.792 180.848C52.8595 165.096 38.0645 154.442 37.9126 154.335C37.8504 154.29 37.8085 154.222 37.7959 154.146C37.7832 154.07 37.8009 153.993 37.8451 153.93C37.867 153.898 37.8949 153.872 37.9272 153.851C37.9596 153.831 37.9957 153.817 38.0334 153.811C38.0711 153.804 38.1098 153.806 38.147 153.815C38.1842 153.823 38.2193 153.84 38.2501 153.862C38.402 153.969 53.4389 164.793 53.377 180.864C53.3714 180.939 53.3383 181.008 53.2842 181.059C53.2301 181.11 53.1588 181.139 53.0845 181.14Z" fill="white"/>
    <path d="M218.226 30.777L223.075 33.5897C223.046 33.3771 223.031 33.1629 223.03 32.9484V31.5027C223.03 29.005 224.785 27.9924 226.968 29.2525C227.899 29.8262 228.695 30.5937 229.302 31.5027C229.657 28.3637 232.115 27.1936 235.113 28.9206C238.348 30.7883 240.975 35.3336 240.975 39.0464V41.1447C240.996 41.9843 240.825 42.8175 240.474 43.5806L244.502 45.9039C245.134 46.3156 245.66 46.8704 246.037 47.5233C246.414 48.1762 246.633 48.9088 246.674 49.6617C246.674 51.0512 245.701 51.6081 244.502 50.9162L218.226 35.7893C217.594 35.3776 217.068 34.8228 216.691 34.1699C216.314 33.517 216.096 32.7844 216.054 32.0315C216.054 30.642 217.028 30.0794 218.226 30.777Z" fill="#EBEBEB"/>
    <path d="M198.126 43.2543L201.676 45.3019C201.667 45.1464 201.667 44.9906 201.676 44.835V43.8056C201.676 41.9717 202.958 41.2291 204.545 42.1179C205.218 42.5409 205.793 43.1029 206.232 43.7662C206.491 41.4597 208.297 40.6047 210.491 41.8704C211.741 42.6854 212.781 43.7834 213.528 45.0754C214.275 46.3675 214.707 47.8172 214.789 49.3073V50.8486C214.802 51.463 214.677 52.0726 214.423 52.6319L217.371 54.3196C217.835 54.6208 218.222 55.0275 218.5 55.5065C218.777 55.9854 218.938 56.5232 218.968 57.076C218.968 58.0942 218.254 58.5049 217.371 57.993L198.126 46.9333C197.662 46.6306 197.276 46.2227 197 45.7427C196.723 45.2628 196.563 44.7244 196.534 44.1712C196.511 43.1586 197.22 42.7536 198.126 43.2543Z" fill="#EBEBEB"/>
    <path d="M220.887 200.981C221.764 201.656 221.669 202.618 220.611 203.231L162.686 236.686C162.032 237.016 161.311 237.188 160.579 237.188C159.847 237.188 159.125 237.016 158.472 236.686L47.6955 172.741C46.621 172.122 46.5366 171.149 47.448 170.491C46.903 170.902 46.4542 171.427 46.1326 172.03C45.8111 172.632 45.6245 173.297 45.5859 173.979V176.763C45.6261 177.496 45.838 178.208 46.2045 178.843C46.5709 179.479 47.0817 180.019 47.6955 180.42L158.433 244.342C159.086 244.675 159.809 244.849 160.542 244.849C161.276 244.849 161.999 244.675 162.652 244.342L220.594 210.893C221.208 210.493 221.719 209.954 222.086 209.32C222.452 208.686 222.664 207.974 222.704 207.242V204.429C222.664 203.758 222.481 203.104 222.168 202.509C221.854 201.914 221.418 201.393 220.887 200.981Z" fill="#455A64"/>
    <path d="M220.628 200.795L109.857 136.851C109.204 136.52 108.482 136.348 107.75 136.348C107.018 136.348 106.297 136.52 105.643 136.851L47.7011 170.311C46.5366 170.98 46.5366 172.072 47.7011 172.741L158.444 236.686C159.097 237.016 159.819 237.188 160.551 237.188C161.283 237.188 162.004 237.016 162.658 236.686L220.6 203.226C221.753 202.556 221.753 201.465 220.628 200.795ZM205.602 195.625C206.598 196.188 206.598 197.133 205.602 197.707L152.914 228.135C152.353 228.418 151.734 228.565 151.106 228.565C150.477 228.565 149.858 228.418 149.297 228.135L63.0474 178.327C62.0517 177.765 62.0517 176.814 63.0474 176.24L115.741 145.818C116.737 145.255 117.778 144.906 118.773 145.48L205.602 195.625Z" fill="#37474F"/>
    <path d="M47.448 170.452C46.903 170.863 46.4542 171.388 46.1326 171.99C45.8111 172.593 45.6245 173.258 45.5859 173.939V176.724C45.6266 177.456 45.8386 178.168 46.2051 178.804C46.5715 179.439 47.082 179.979 47.6955 180.381L158.433 244.342C159.084 244.686 159.812 244.86 160.548 244.848V237.187C159.814 237.2 159.088 237.028 158.438 236.686L47.6955 172.741C46.621 172.139 46.5366 171.149 47.448 170.452Z" fill="#263238"/>
    <path d="M82.2415 156.866C83.0234 156.416 83.0234 155.685 82.2415 155.235C81.8053 155.015 81.3236 154.9 80.8351 154.9C80.3466 154.9 79.8649 155.015 79.4287 155.235C78.6468 155.685 78.6468 156.416 79.4287 156.866C79.8649 157.086 80.3466 157.201 80.8351 157.201C81.3236 157.201 81.8053 157.086 82.2415 156.866Z" fill="black"/>
    <path d="M189.485 218.054C191.325 216.997 191.325 215.275 189.485 214.218C188.455 213.691 187.315 213.417 186.158 213.417C185.001 213.417 183.861 213.691 182.83 214.218C180.991 215.275 180.991 216.997 182.83 218.054C183.861 218.581 185.001 218.855 186.158 218.855C187.315 218.855 188.455 218.581 189.485 218.054Z" stroke="#E6E6E6" stroke-miterlimit="10"/>
    <path d="M80.8295 162.278L91.7429 155.983C92.3898 155.606 92.4235 155.015 91.816 154.661C91.4617 154.492 91.073 154.408 90.6806 154.415C90.2882 154.421 89.9028 154.519 89.5546 154.7L78.6412 160.995C77.9942 161.372 77.9605 161.963 78.568 162.317C78.9223 162.486 79.311 162.57 79.7034 162.563C80.0958 162.557 80.4812 162.459 80.8295 162.278Z" fill="black"/>
    <path d="M118.773 145.503C117.777 144.94 116.737 145.261 115.741 145.84L63.0473 176.263C62.0516 176.825 62.0516 177.77 63.0473 178.35L149.274 228.13C149.835 228.412 150.455 228.56 151.083 228.56C151.711 228.56 152.331 228.412 152.892 228.13L205.58 197.701C206.581 197.139 206.581 196.194 205.58 195.62L118.773 145.503Z" fill="#51B5B7"/>
    <path opacity="0.85" d="M118.773 145.503C117.777 144.94 116.737 145.261 115.741 145.84L63.0473 176.263C62.0516 176.825 62.0516 177.77 63.0473 178.35L149.274 228.13C149.835 228.412 150.455 228.56 151.083 228.56C151.711 228.56 152.331 228.412 152.892 228.13L205.58 197.701C206.581 197.139 206.581 196.194 205.58 195.62L118.773 145.503Z" fill="white"/>
    <path d="M69.1172 178.997L68.5547 178.67C68.5289 178.661 68.5066 178.644 68.4908 178.621C68.4751 178.598 68.4667 178.571 68.4667 178.544C68.4667 178.516 68.4751 178.489 68.4908 178.467C68.5066 178.444 68.5289 178.427 68.5547 178.417L68.6166 178.383C68.6841 178.348 68.7595 178.329 68.836 178.329C68.9125 178.329 68.9878 178.348 69.0554 178.383L69.6179 178.704C69.736 178.777 69.736 178.89 69.6179 178.957L69.556 178.997C69.4877 179.03 69.4127 179.047 69.3366 179.047C69.2606 179.047 69.1856 179.03 69.1172 178.997Z" fill="#455A64"/>
    <path d="M70.1186 178.417L69.1454 177.855C69.0272 177.787 69.0272 177.675 69.1454 177.602L69.2072 177.568C69.2756 177.534 69.3506 177.517 69.4266 177.517C69.5027 177.517 69.5777 177.534 69.646 177.568L70.6192 178.13C70.7374 178.198 70.7374 178.31 70.6192 178.383L70.5574 178.417C70.489 178.451 70.414 178.468 70.338 178.468C70.2619 178.468 70.1869 178.451 70.1186 178.417Z" fill="#455A64"/>
    <path d="M71.1199 177.838L69.7416 177.045C69.6179 176.972 69.6179 176.859 69.7416 176.791L69.8035 176.752C69.8718 176.719 69.9469 176.701 70.0229 176.701C70.0989 176.701 70.174 176.719 70.2423 176.752L71.6205 177.551C71.6464 177.561 71.6687 177.578 71.6844 177.6C71.7001 177.623 71.7086 177.65 71.7086 177.678C71.7086 177.705 71.7001 177.732 71.6844 177.755C71.6687 177.777 71.6464 177.794 71.6205 177.804L71.5587 177.838C71.4911 177.874 71.4158 177.893 71.3393 177.893C71.2627 177.893 71.1874 177.874 71.1199 177.838Z" fill="#455A64"/>
    <path d="M72.1156 177.264L69.736 175.886C69.6122 175.818 69.6122 175.706 69.736 175.633L69.7979 175.599C69.8659 175.564 69.941 175.546 70.0173 175.546C70.0935 175.546 70.1687 175.564 70.2367 175.599L72.6106 176.972C72.7344 177.045 72.7344 177.157 72.6106 177.225L72.5544 177.264C72.486 177.297 72.411 177.315 72.335 177.315C72.2589 177.315 72.1839 177.297 72.1156 177.264Z" fill="#455A64"/>
    <path d="M74.9903 175.79C74.9524 175.794 74.9142 175.784 74.8834 175.762L74.5346 175.559L73.4095 176.206C73.3854 176.223 73.357 176.231 73.3279 176.231C73.2989 176.231 73.2705 176.223 73.2464 176.206L73.117 176.133L73.0607 176.094V176.038L73.0045 174.626C73.0008 174.605 73.0008 174.584 73.0045 174.564C73.0231 174.542 73.0461 174.525 73.072 174.513L73.2239 174.423C73.2637 174.4 73.3076 174.385 73.3533 174.378C73.3949 174.379 73.4357 174.39 73.4714 174.412L74.6921 175.115L74.9396 174.974C74.9766 174.95 75.0191 174.934 75.0634 174.929C75.1034 174.929 75.1426 174.941 75.1759 174.963L75.2603 175.014C75.2997 175.014 75.3165 175.053 75.3109 175.076C75.3053 175.098 75.3109 175.115 75.2378 175.143L74.9903 175.289L75.339 175.492C75.3784 175.492 75.3953 175.531 75.3897 175.554C75.3841 175.576 75.3615 175.599 75.3109 175.627L75.1196 175.734C75.0833 175.765 75.0381 175.785 74.9903 175.79ZM74.3096 175.346L73.4376 174.845L73.4939 175.818L74.3096 175.346Z" fill="#455A64"/>
    <path d="M76.1096 174.901C75.7158 174.92 75.325 174.824 74.9845 174.626C74.6358 174.423 74.4782 174.204 74.5064 173.967C74.5345 173.731 74.7539 173.501 75.1533 173.27C75.3109 173.176 75.4766 173.097 75.6483 173.034C75.7993 172.975 75.9557 172.932 76.1153 172.904C76.1388 172.895 76.1649 172.895 76.1884 172.904C76.1908 172.913 76.1908 172.923 76.1884 172.932L76.239 173.079C76.2445 173.085 76.2476 173.093 76.2476 173.101C76.2476 173.109 76.2445 173.117 76.239 173.124H76.1771C75.9348 173.172 75.7026 173.261 75.4908 173.388C75.2208 173.54 75.0745 173.703 75.052 173.866C75.0295 174.029 75.1533 174.192 75.4233 174.344C75.6701 174.495 75.9554 174.572 76.2446 174.564C76.5308 174.553 76.8096 174.47 77.0547 174.322C77.1425 174.271 77.227 174.214 77.3078 174.153C77.372 174.108 77.4289 174.053 77.4766 173.99L76.9141 173.664L76.4472 173.934C76.4074 173.957 76.3634 173.972 76.3178 173.979C76.278 173.977 76.2392 173.966 76.2053 173.945L76.1265 173.9C76.089 173.877 76.0721 173.855 76.0759 173.832C76.0759 173.832 76.104 173.793 76.149 173.765L76.8972 173.332C76.9415 173.305 76.9917 173.29 77.0434 173.287C77.0894 173.287 77.1343 173.301 77.1728 173.326L77.9829 173.793C78.0057 173.802 78.0253 173.818 78.0392 173.838C78.0392 173.838 78.0392 173.866 78.0392 173.889C77.8624 174.153 77.6175 174.365 77.3304 174.502C76.9626 174.734 76.5432 174.871 76.1096 174.901Z" fill="#455A64"/>
    <path d="M91.681 163.971L93.003 164.736C93.059 164.764 93.1206 164.778 93.183 164.778C93.2455 164.778 93.3071 164.764 93.3631 164.736L94.6963 163.971C94.7919 163.909 94.7919 163.819 94.6963 163.763L93.3687 162.998C93.3136 162.967 93.2517 162.951 93.1887 162.951C93.1257 162.951 93.0637 162.967 93.0087 162.998L91.681 163.763C91.5798 163.819 91.5798 163.909 91.681 163.971Z" fill="#455A64"/>
    <path d="M92.598 162.93C92.4229 162.845 92.2301 162.803 92.0354 162.807C91.8406 162.801 91.6476 162.844 91.4729 162.93C91.2141 163.082 91.2141 163.313 91.4729 163.459L91.9285 163.724L92.2604 163.656L91.8048 163.397C91.7643 163.382 91.7295 163.354 91.705 163.319C91.6804 163.283 91.6673 163.241 91.6673 163.198C91.6673 163.154 91.6804 163.112 91.705 163.076C91.7295 163.041 91.7643 163.013 91.8048 162.998C91.8774 162.958 91.9585 162.937 92.0411 162.936C92.1223 162.934 92.2025 162.955 92.2717 162.998L92.7274 163.262L93.0649 163.195L92.598 162.93Z" fill="#455A64"/>
    <path d="M116.737 148.974C116.514 148.966 116.293 149.016 116.096 149.12L112.72 151.061C112.428 151.224 112.428 151.488 112.72 151.657L113.947 152.36C114.144 152.463 114.365 152.514 114.588 152.506C114.692 152.506 114.795 152.496 114.897 152.478C115.012 152.46 115.123 152.419 115.224 152.36L118.599 150.425C118.886 150.256 118.886 149.992 118.599 149.829L117.373 149.12C117.177 149.016 116.958 148.966 116.737 148.974ZM114.599 152.349C114.503 152.347 114.408 152.322 114.324 152.276L113.103 151.567C113.056 151.55 113.015 151.519 112.986 151.478C112.958 151.438 112.942 151.389 112.942 151.339C112.942 151.289 112.958 151.24 112.986 151.2C113.015 151.159 113.056 151.128 113.103 151.111L116.478 149.176C116.532 149.143 116.591 149.12 116.652 149.109H116.754C116.849 149.111 116.942 149.139 117.024 149.187L118.244 149.89C118.291 149.907 118.332 149.938 118.361 149.979C118.39 150.02 118.405 150.068 118.405 150.118C118.405 150.168 118.39 150.217 118.361 150.258C118.332 150.298 118.291 150.329 118.244 150.346L114.869 152.287C114.787 152.336 114.694 152.363 114.599 152.366V152.349Z" fill="#455A64"/>
    <path d="M114.695 152.129L114.65 152.101L113.525 151.466C113.49 151.453 113.461 151.43 113.44 151.4C113.419 151.369 113.407 151.334 113.407 151.297C113.407 151.26 113.419 151.224 113.44 151.194C113.461 151.164 113.49 151.141 113.525 151.128L116.551 149.384C116.57 149.371 116.591 149.362 116.613 149.356L116.658 149.384L117.783 150.02C117.816 150.034 117.844 150.057 117.863 150.086C117.883 150.116 117.893 150.15 117.893 150.186C117.893 150.221 117.883 150.256 117.863 150.285C117.844 150.315 117.816 150.338 117.783 150.352L114.757 152.101L114.695 152.129Z" fill="#455A64"/>
    <path d="M117.547 149.03C117.663 149.002 117.784 149 117.901 149.022C118.018 149.044 118.13 149.091 118.228 149.159L118.453 149.294C118.706 149.435 118.813 149.615 118.694 149.694L118.475 149.829L117.35 149.159L117.547 149.03Z" fill="#455A64"/>
    <path d="M98.3247 182.085C99.1517 182.051 99.9599 181.827 100.687 181.432C102.06 180.639 102.414 179.559 100.237 178.203C100.164 178.613 99.997 179 99.7491 179.333C99.5011 179.667 99.1792 179.939 98.8085 180.127C96.9408 181.207 94.8144 181.483 93.0986 180.499C91.3828 179.514 91.9735 178.052 93.8524 176.971C95.0614 176.282 96.4302 175.921 97.8221 175.926C99.214 175.931 100.58 176.301 101.784 177C104.963 178.834 104.248 180.774 101.998 182.063C100.82 182.722 99.5089 183.107 98.1615 183.188L98.3247 182.085ZM99.1179 177.618C97.4696 176.904 96.0689 177.005 95.0056 177.618C94.1112 178.13 93.9312 178.878 94.9213 179.447C95.4172 179.715 95.9769 179.842 96.5401 179.816C97.1032 179.789 97.6483 179.609 98.1165 179.295C98.4321 179.148 98.6963 178.909 98.8748 178.61C99.0534 178.312 99.138 177.966 99.1179 177.618Z" fill="#455A64"/>
    <path d="M103.056 174.08C103.391 173.876 103.77 173.756 104.162 173.729C104.553 173.701 104.945 173.768 105.306 173.922C105.868 174.26 105.761 174.823 105.041 175.233C104.701 175.441 104.315 175.565 103.916 175.593C103.518 175.622 103.119 175.554 102.752 175.396C102.172 175.064 102.319 174.496 103.056 174.08ZM107.449 176.617C107.785 176.414 108.164 176.294 108.556 176.268C108.947 176.241 109.339 176.309 109.699 176.465C110.262 176.797 110.155 177.36 109.435 177.776C109.094 177.983 108.708 178.106 108.31 178.134C107.912 178.162 107.513 178.096 107.145 177.939C106.572 177.607 106.712 177.033 107.432 176.64L107.449 176.617Z" fill="#455A64"/>
    <path d="M108.192 173.551C105.43 171.954 105.43 170.294 107.691 168.983C109.952 167.673 112.844 167.684 115.6 169.276C118.357 170.868 118.413 172.578 116.163 173.889C113.913 175.199 110.959 175.149 108.192 173.551ZM113.71 170.362C111.398 169.028 109.913 169.04 108.85 169.653C107.787 170.266 107.764 171.127 110.076 172.465C112.388 173.804 113.975 173.827 115.021 173.225C116.067 172.623 116.028 171.7 113.71 170.362Z" fill="#455A64"/>
    <path d="M116.99 168.471C114.222 166.874 114.222 165.214 116.484 163.909C118.745 162.604 121.642 162.61 124.393 164.196C127.144 165.782 127.24 167.504 124.956 168.809C122.672 170.114 119.752 170.069 116.99 168.471ZM122.509 165.287C120.191 163.949 118.706 163.96 117.642 164.573C116.579 165.186 116.557 166.047 118.874 167.386C121.192 168.725 122.773 168.741 123.814 168.14C124.854 167.538 124.821 166.621 122.509 165.287Z" fill="#455A64"/>
    <path d="M102.808 194.433L147.069 168.882C147.593 168.618 148.171 168.48 148.757 168.48C149.343 168.48 149.921 168.618 150.445 168.882L161.757 175.413C162.691 175.976 162.691 176.825 161.757 177.365L117.513 202.916C116.99 203.181 116.412 203.318 115.825 203.318C115.239 203.318 114.661 203.181 114.138 202.916L102.808 196.385C101.874 195.845 101.874 194.973 102.808 194.433Z" fill="#090653"/>
    <path d="M107.556 195.299L115.477 199.867C115.702 199.984 115.952 200.044 116.205 200.044C116.459 200.044 116.708 199.984 116.934 199.867L128.607 193.117C129.012 192.88 129.012 192.503 128.607 192.273L120.686 187.699C120.46 187.586 120.21 187.526 119.957 187.526C119.704 187.526 119.455 187.586 119.229 187.699L107.556 194.45C107.465 194.478 107.386 194.534 107.329 194.611C107.273 194.687 107.242 194.78 107.242 194.875C107.242 194.97 107.273 195.062 107.329 195.139C107.386 195.215 107.465 195.271 107.556 195.299Z" fill="#FAFAFA"/>
    <path d="M119.504 193.1L128.893 192.728L119.538 192.588L119.915 187.542L118.379 193.769L107.247 194.872L116.337 194.444L116.112 200.042L116.81 194.422L119.414 194.298L119.504 193.1Z" fill="#E27B14"/>
    <path d="M124.432 185.314L135.869 178.738C136.154 178.594 136.469 178.518 136.789 178.518C137.108 178.518 137.423 178.594 137.709 178.738C138.209 179.025 138.192 179.497 137.669 179.801L126.233 186.377C125.947 186.522 125.632 186.597 125.313 186.597C124.993 186.597 124.678 186.522 124.393 186.377C123.898 186.09 123.921 185.64 124.432 185.314Z" fill="#FAFAFA"/>
    <path d="M127.96 187.328L151.137 173.934C151.422 173.789 151.737 173.714 152.056 173.714C152.376 173.714 152.691 173.789 152.976 173.934C153.477 174.221 153.46 174.699 152.937 174.997L129.76 188.391C129.474 188.535 129.158 188.61 128.837 188.61C128.517 188.61 128.201 188.535 127.915 188.391C127.42 188.121 127.436 187.649 127.96 187.328Z" fill="#FAFAFA"/>
    <path d="M131.475 189.376L154.658 175.981C154.943 175.837 155.258 175.762 155.578 175.762C155.897 175.762 156.212 175.837 156.498 175.981C156.993 176.268 156.976 176.746 156.458 177.045L133.276 190.439C132.991 190.583 132.675 190.658 132.356 190.658C132.036 190.658 131.721 190.583 131.436 190.439C130.935 190.141 130.958 189.679 131.475 189.376Z" fill="#FAFAFA"/>
    <path d="M97.7395 102.125L172.772 58.8086L175.776 60.5412C176.185 60.8107 176.526 61.1725 176.77 61.5975C177.015 62.0225 177.156 62.4988 177.182 62.9883V118.337C177.156 118.827 177.015 119.303 176.771 119.728C176.527 120.154 176.186 120.515 175.776 120.784L103.562 162.469C103.125 162.687 102.644 162.8 102.155 162.8C101.667 162.8 101.186 162.687 100.749 162.469L99.1627 161.552C98.7528 161.283 98.4116 160.921 98.1665 160.496C97.9213 160.071 97.7789 159.595 97.7508 159.105L97.7395 102.125Z" fill="#51B5B7"/>
    <path opacity="0.05" d="M97.7395 102.125L172.772 58.8086L175.776 60.5412C176.185 60.8107 176.526 61.1725 176.77 61.5975C177.015 62.0225 177.156 62.4988 177.182 62.9883V118.337C177.156 118.827 177.015 119.303 176.771 119.728C176.527 120.154 176.186 120.515 175.776 120.784L103.562 162.469C103.125 162.687 102.644 162.8 102.155 162.8C101.667 162.8 101.186 162.687 100.749 162.469L99.1627 161.552C98.7528 161.283 98.4116 160.921 98.1665 160.496C97.9213 160.071 97.7789 159.595 97.7508 159.105L97.7395 102.125Z" fill="black"/>
    <path d="M172.356 53.9369L172.665 53.7681L171.501 53.0931C171.4 53.0363 171.294 52.9874 171.186 52.9468L138.164 40.7114C137.711 40.5596 137.222 40.5557 136.767 40.7003C136.312 40.8449 135.915 41.1305 135.633 41.5159L98.6902 95.4585C98.1167 96.3887 97.7895 97.4496 97.7395 98.5412V102.125L98.8646 102.788L172.755 58.8029V55.2195C172.744 54.763 172.606 54.3187 172.356 53.9369Z" fill="#51B5B7"/>
    <path opacity="0.1" d="M137.157 41.7803C137.01 41.8954 136.881 42.0319 136.775 42.1853L99.8323 96.1279C99.5288 96.6051 99.2975 97.1245 99.146 97.6693L98.0209 97.0055C98.1041 96.7279 98.2037 96.4556 98.319 96.1898C98.3697 96.0773 98.4203 95.9704 98.4765 95.8635V95.8129C98.535 95.7 98.6008 95.591 98.6734 95.4866L135.627 41.5215C135.683 41.4416 135.745 41.3663 135.813 41.2965L136.01 41.1165L137.157 41.7803Z" fill="black"/>
    <path opacity="0.35" d="M172.648 53.7681C172.548 53.7074 172.443 53.6565 172.333 53.6162L139.306 41.3752C138.943 41.2544 138.555 41.2282 138.179 41.2991C137.803 41.37 137.451 41.5356 137.157 41.7802L136.032 41.1164C136.329 40.8741 136.681 40.71 137.058 40.6393C137.434 40.5685 137.822 40.5933 138.187 40.7114L171.208 52.9468C171.316 52.9871 171.42 53.038 171.518 53.0987L172.648 53.7681Z" fill="white"/>
    <path d="M135.818 41.2965C135.878 41.2307 135.944 41.1705 136.015 41.1165C135.943 41.169 135.877 41.2294 135.818 41.2965Z" fill="#51B5B7"/>
    <path opacity="0.2" d="M98.4653 95.8419C98.4653 95.8419 98.4653 95.8019 98.4653 95.7848C98.4653 95.7677 98.4768 95.8248 98.4653 95.8419Z" fill="black"/>
    <path opacity="0.2" d="M135.633 41.5159C135.687 41.4365 135.749 41.3629 135.818 41.2965C135.747 41.3614 135.685 41.4351 135.633 41.5159Z" fill="black"/>
    <path d="M136.775 42.191L99.8379 96.1392C99.2594 97.0654 98.93 98.1254 98.8816 99.2163V102.8L173.914 59.4837V55.8834C173.886 55.3983 173.723 54.9308 173.444 54.5332C173.165 54.1357 172.78 53.824 172.333 53.6332L139.312 41.3978C138.859 41.2478 138.371 41.2437 137.916 41.386C137.46 41.5283 137.061 41.8099 136.775 42.191Z" fill="#51B5B7"/>
    <path d="M107.05 154.931L104.642 153.541C104.443 153.39 104.287 153.19 104.189 152.96C104.09 152.73 104.053 152.479 104.08 152.231V77.2095C104.111 76.4479 104.344 75.7083 104.755 75.0662L107.202 76.4725C106.788 77.1172 106.555 77.8614 106.527 78.6271V153.62C106.497 153.865 106.529 154.113 106.62 154.343C106.712 154.572 106.86 154.774 107.05 154.931Z" fill="#E0E0E0"/>
    <path d="M108.552 75.0436L168.823 40.2557C169.948 39.5919 170.888 40.1263 170.888 41.4483V116.447C170.85 117.165 170.643 117.863 170.285 118.486C169.926 119.109 169.425 119.638 168.823 120.03L108.552 154.813C107.427 155.471 106.487 154.936 106.487 153.614V78.627C106.526 77.9096 106.733 77.2114 107.092 76.5889C107.451 75.9664 107.951 75.437 108.552 75.0436Z" fill="#F0F0F0"/>
    <path d="M167.838 38.6975L170.201 40.0701C169.972 39.9848 169.726 39.9582 169.484 39.9926C169.242 40.027 169.013 40.1213 168.817 40.267L108.552 75.0493C107.974 75.3978 107.493 75.8876 107.157 76.4725L104.709 75.0662C105.049 74.4821 105.526 73.9897 106.099 73.6317L166.37 38.8157C166.58 38.6615 166.827 38.568 167.086 38.5451C167.345 38.5223 167.605 38.5711 167.838 38.6863V38.6975Z" fill="#FAFAFA"/>
    <path d="M113.255 78.9703L163.372 50.0329C164.047 49.6447 164.593 49.9204 164.593 50.6517C164.562 51.0605 164.436 51.4564 164.223 51.8073C164.011 52.1581 163.72 52.4541 163.372 52.6712L113.255 81.6086C112.579 81.9968 112.034 81.7211 112.034 80.9954C112.064 80.5856 112.19 80.1886 112.402 79.8367C112.614 79.4848 112.906 79.1879 113.255 78.9703Z" fill="#E0E0E0"/>
    <path d="M113.255 84.23L163.372 55.2926C164.047 54.9045 164.593 55.1801 164.593 55.9114C164.562 56.3203 164.436 56.7162 164.223 57.067C164.011 57.4179 163.72 57.7139 163.372 57.931L113.255 86.8684C112.579 87.2565 112.034 86.9809 112.034 86.2552C112.064 85.8454 112.19 85.4484 112.402 85.0965C112.614 84.7446 112.906 84.4477 113.255 84.23Z" fill="#E0E0E0"/>
    <path d="M113.255 89.4899L163.372 60.5525C164.047 60.1643 164.593 60.4399 164.593 61.1656C164.563 61.5755 164.437 61.9725 164.225 62.3244C164.013 62.6763 163.72 62.9731 163.372 63.1908L113.255 92.1282C112.579 92.5164 112.034 92.2407 112.034 91.515C112.064 91.1052 112.19 90.7082 112.402 90.3563C112.614 90.0044 112.906 89.7075 113.255 89.4899Z" fill="#E0E0E0"/>
    <path d="M113.255 94.7497L163.372 65.818C164.047 65.4298 164.593 65.7054 164.593 66.4311C164.563 66.841 164.437 67.238 164.225 67.5899C164.013 67.9418 163.72 68.2386 163.372 68.4563L113.255 97.3937C112.579 97.7819 112.034 97.5062 112.034 96.7749C112.064 96.3651 112.19 95.9681 112.402 95.6162C112.614 95.2643 112.906 94.9674 113.255 94.7497Z" fill="#E0E0E0"/>
    <path d="M113.255 100.01L163.372 71.0721C164.047 70.684 164.593 70.9596 164.593 71.6853C164.563 72.0951 164.437 72.4921 164.225 72.844C164.013 73.1959 163.72 73.4928 163.372 73.7105L113.255 102.648C112.579 103.036 112.034 102.76 112.034 102.029C112.064 101.62 112.191 101.224 112.403 100.873C112.615 100.523 112.907 100.227 113.255 100.01Z" fill="#E0E0E0"/>
    <path d="M113.255 105.269L163.372 76.3319C164.047 75.9437 164.593 76.2194 164.593 76.945C164.563 77.3549 164.437 77.7519 164.225 78.1038C164.013 78.4557 163.72 78.7526 163.372 78.9702L113.255 107.908C112.579 108.296 112.034 108.02 112.034 107.289C112.064 106.88 112.191 106.484 112.403 106.133C112.615 105.782 112.907 105.486 113.255 105.269Z" fill="#E0E0E0"/>
    <path d="M113.255 110.529L163.372 81.5692C164.047 81.181 164.593 81.4567 164.593 82.1824C164.563 82.5922 164.437 82.9892 164.225 83.3411C164.013 83.693 163.72 83.9899 163.372 84.2075L113.255 113.145C112.579 113.533 112.034 113.257 112.034 112.526C112.068 112.121 112.196 111.73 112.408 111.383C112.62 111.036 112.91 110.744 113.255 110.529Z" fill="#E0E0E0"/>
    <path d="M113.255 115.789L163.372 86.8516C164.047 86.4578 164.593 86.7391 164.593 87.4647C164.563 87.8746 164.437 88.2716 164.225 88.6235C164.013 88.9754 163.72 89.2723 163.372 89.4899L113.255 118.427C112.579 118.815 112.034 118.54 112.034 117.809C112.064 117.4 112.191 117.004 112.403 116.653C112.615 116.302 112.907 116.006 113.255 115.789Z" fill="#E0E0E0"/>
    <path d="M175.281 119.069C175.259 119.109 175.232 119.146 175.202 119.181L143.936 105.314C142.749 104.789 141.412 104.711 140.172 105.093C138.931 105.475 137.871 106.293 137.185 107.396L103.759 161.029L102.521 161.743C102.383 161.84 102.224 161.9 102.057 161.918C101.89 161.937 101.721 161.914 101.565 161.85L135.942 106.687C136.629 105.586 137.689 104.769 138.929 104.386C140.168 104.003 141.504 104.079 142.693 104.6L175.281 119.069Z" fill="#51B5B7"/>
    <path opacity="0.4" d="M134.097 112.273L134.176 112.206L103.748 161.035L102.51 161.749C102.372 161.844 102.212 161.903 102.045 161.922C101.878 161.94 101.71 161.918 101.554 161.856L132.871 111.553L134.097 112.273Z" fill="white"/>
    <path opacity="0.4" d="M175.281 119.074C175.259 119.114 175.232 119.152 175.202 119.187L143.93 105.314C142.743 104.789 141.406 104.711 140.166 105.093C138.925 105.475 137.865 106.293 137.18 107.396L135.942 106.676C136.632 105.578 137.693 104.765 138.932 104.385C140.172 104.004 141.506 104.083 142.693 104.605L175.281 119.074Z" fill="white"/>
    <path d="M177.16 62.6283C177.092 62.2233 176.879 62.1108 176.597 62.302C176.458 62.4058 176.337 62.5311 176.237 62.6733L176.08 62.8927L145.247 105.849L140.639 112.267C140.343 112.641 139.95 112.928 139.503 113.095C139.056 113.263 138.572 113.305 138.102 113.218L134.125 112.273L103.748 105.05C103.543 105.008 103.333 105.008 103.129 105.05C103.05 105.066 102.972 105.09 102.898 105.123L103.736 104.639L132.989 111.598L136.977 112.509C137.447 112.598 137.931 112.556 138.378 112.388C138.826 112.22 139.219 111.934 139.514 111.559L144.122 105.146L175.129 61.9701C175.224 61.8418 175.342 61.7329 175.478 61.6495L172.811 60.1137L173.937 59.4668L175.793 60.5356C176.149 60.7756 176.453 61.0844 176.688 61.4438C176.923 61.8032 177.083 62.2059 177.16 62.6283Z" fill="#51B5B7"/>
    <path opacity="0.4" d="M145.247 105.849L140.639 112.267C140.343 112.641 139.95 112.928 139.503 113.095C139.056 113.263 138.572 113.305 138.102 113.218L134.125 112.273L134.204 112.206L134.395 111.902L137 112.521C137.469 112.609 137.954 112.567 138.401 112.399C138.848 112.232 139.241 111.945 139.537 111.57L144.099 105.224L145.247 105.849Z" fill="white"/>
    <path opacity="0.1" d="M175.77 60.5356L173.914 59.4668L172.789 60.1137L175.472 61.6607C175.337 61.7446 175.218 61.8534 175.123 61.9814L144.122 105.157L144.077 105.219L145.202 105.843L176.074 62.8927L176.232 62.6733C176.331 62.5311 176.453 62.4058 176.592 62.302C176.867 62.1108 177.081 62.2233 177.154 62.6283C177.076 62.2046 176.912 61.801 176.675 61.4415C176.437 61.0821 176.129 60.774 175.77 60.5356Z" fill="black"/>
    <path d="M104.355 105.95L97.7395 102.125V159.105C97.7677 159.595 97.91 160.071 98.1552 160.496C98.4004 160.921 98.7416 161.283 99.1515 161.552L100.738 162.469C101.175 162.687 101.656 162.8 102.144 162.8C102.632 162.8 103.114 162.687 103.551 162.469L104.344 162.008L104.355 105.95Z" fill="#51B5B7"/>
    <path opacity="0.15" d="M104.355 105.95L97.7395 102.125V159.105C97.7677 159.595 97.91 160.071 98.1552 160.496C98.4004 160.921 98.7416 161.283 99.1515 161.552L100.738 162.469C101.175 162.687 101.656 162.8 102.144 162.8C102.632 162.8 103.114 162.687 103.551 162.469L104.344 162.008L104.355 105.95Z" fill="black"/>
    <path d="M176.08 62.8927V117.64C176.065 118.147 175.913 118.641 175.641 119.069C175.434 119.432 175.152 119.746 174.814 119.991L174.763 120.025L174.668 120.087L102.459 161.772C102.373 161.825 102.28 161.868 102.184 161.901C102.178 161.817 102.178 161.732 102.184 161.648V106.321C102.171 106.123 102.207 105.925 102.288 105.743C102.369 105.562 102.493 105.403 102.649 105.28C102.805 105.158 102.989 105.074 103.184 105.038C103.379 105.002 103.58 105.014 103.77 105.072L134.148 112.296L138.125 113.241C138.594 113.328 139.078 113.285 139.525 113.118C139.972 112.95 140.365 112.664 140.662 112.29L145.247 105.849L176.08 62.8927Z" fill="#455A64"/>
    <path d="M177.188 63.0052V118.354C177.17 118.861 177.019 119.354 176.749 119.783C176.539 120.145 176.258 120.461 175.922 120.711L175.866 120.739C175.837 120.762 175.807 120.783 175.776 120.801L103.568 162.463C103.43 162.561 103.269 162.623 103.101 162.643C102.933 162.663 102.762 162.64 102.606 162.576C102.486 162.506 102.385 162.408 102.311 162.29C102.238 162.173 102.194 162.039 102.184 161.901C102.178 161.817 102.178 161.732 102.184 161.648V106.321C102.171 106.123 102.207 105.925 102.288 105.743C102.369 105.562 102.493 105.403 102.649 105.28C102.805 105.158 102.989 105.074 103.184 105.038C103.379 105.002 103.58 105.014 103.77 105.072L134.148 112.295L138.125 113.241C138.594 113.328 139.078 113.285 139.525 113.118C139.972 112.95 140.365 112.664 140.662 112.29L145.247 105.849L176.102 62.8927L176.26 62.6733C176.749 61.9476 177.188 62.0826 177.188 63.0052Z" fill="#51B5B7"/>
    <path d="M175.776 120.779L175.866 120.717L175.922 120.689C176.258 120.439 176.539 120.123 176.749 119.761C177.012 119.339 177.161 118.856 177.182 118.36L145.247 105.849L166.623 126.061L175.776 120.779Z" fill="#51B5B7"/>
    <path opacity="0.2" d="M175.776 120.779L175.866 120.717L175.922 120.689C176.258 120.439 176.539 120.123 176.749 119.761C177.012 119.339 177.161 118.856 177.182 118.36L145.247 105.849L166.623 126.061L175.776 120.779Z" fill="black"/>
    <path d="M102.156 161.653C102.135 161.834 102.165 162.016 102.243 162.18C102.32 162.344 102.442 162.483 102.594 162.582C102.751 162.645 102.922 162.668 103.09 162.649C103.258 162.629 103.418 162.567 103.556 162.469L128.415 148.119L134.091 112.279L102.156 160.731V161.653Z" fill="#51B5B7"/>
    <path opacity="0.15" d="M137.163 107.39L102.589 162.576C102.436 162.477 102.314 162.338 102.237 162.174C102.159 162.01 102.129 161.828 102.15 161.648V160.731L132.657 111.947L132.893 111.57L135.925 106.709L137.163 107.39Z" fill="black"/>
    <path d="M176.749 119.761C176.539 120.123 176.258 120.439 175.922 120.689L175.866 120.717L103.568 162.463C103.43 162.562 103.269 162.623 103.101 162.643C102.933 162.663 102.762 162.64 102.606 162.576L137.18 107.373C137.873 106.266 138.942 105.445 140.191 105.062C141.44 104.679 142.786 104.758 143.981 105.286L176.749 119.761Z" fill="#51B5B7"/>
    <path d="M176.749 119.766C176.543 120.129 176.261 120.444 175.922 120.689L175.872 120.722L103.562 162.469C103.423 162.565 103.262 162.625 103.094 162.644C102.927 162.663 102.757 162.639 102.6 162.576L103.562 161.046L174.617 120.014L174.673 119.98C174.973 119.761 175.227 119.486 175.422 119.17L176.749 119.766Z" fill="#51B5B7"/>
    <path opacity="0.15" d="M97.9927 97.0055L99.1178 97.6693C98.9583 98.1683 98.8693 98.6871 98.8534 99.2107V102.788L97.7283 102.125V98.5412C97.7447 98.0195 97.8337 97.5027 97.9927 97.0055Z" fill="black"/>
    <path d="M104.788 104.87L103.731 104.617L102.893 105.1L101.734 104.431L98.8816 102.788L99.9898 102.13L104.788 104.87Z" fill="#51B5B7"/>
    <path opacity="0.1" d="M104.788 104.87L99.9955 102.136L98.8704 102.794L101.722 104.437L102.881 105.106C102.949 105.073 103.021 105.05 103.095 105.039C103.299 104.997 103.51 104.997 103.714 105.039L106.048 105.601L132.657 111.947L132.893 111.57L104.788 104.87Z" fill="black"/>
    <path d="M190.532 107.075L185.193 103.981L185.148 103.953C182.819 102.637 179.618 102.828 176.08 104.881C168.958 108.993 163.181 118.995 163.181 127.22C163.181 131.326 164.627 134.212 166.95 135.562L171.816 138.375L172.941 136.468C174.241 136.18 175.49 135.694 176.643 135.028C183.764 130.916 189.542 120.914 189.542 112.689C189.541 111.578 189.405 110.471 189.137 109.393L190.532 107.075Z" fill="#E27B14"/>
    <path opacity="0.15" d="M163.653 122.894C163.338 124.317 163.174 125.768 163.164 127.225C163.164 131.332 164.609 134.218 166.933 135.568L171.799 138.381L172.924 136.474C174.224 136.186 175.472 135.7 176.625 135.034C177.886 134.296 179.064 133.427 180.141 132.44L163.653 122.894Z" fill="black"/>
    <path d="M181.143 107.812C174.021 111.924 168.244 121.926 168.244 130.151C168.244 138.375 174.021 141.711 181.143 137.599C188.265 133.487 194.042 123.484 194.042 115.26C194.042 107.036 188.27 103.7 181.143 107.812Z" fill="#E78F37"/>
    <path d="M186.239 119.26V116.098C186.239 112.492 184.045 110.833 181.345 112.397C178.639 113.961 176.445 118.146 176.445 121.752V124.565C176.386 126.516 175.818 128.419 174.797 130.083C174.546 130.524 174.409 131.021 174.398 131.529C174.398 132.435 174.96 132.857 175.63 132.463L187.066 125.858C187.441 125.589 187.748 125.235 187.962 124.826C188.176 124.417 188.291 123.963 188.298 123.501C188.316 123.325 188.292 123.147 188.23 122.981C188.167 122.815 188.068 122.666 187.938 122.545C186.903 122.106 186.239 120.947 186.239 119.26Z" fill="white"/>
    <path d="M183.691 128.823C183.691 130.556 182.639 132.564 181.345 133.323C180.051 134.083 178.994 133.278 178.994 131.551L183.691 128.823Z" fill="white"/>
</svg>
