<svg width="193" height="193" viewBox="0 0 193 193" fill="none" xmlns="http://www.w3.org/2000/svg">
    <path d="M161.615 30.7691C163.919 32.1937 166.575 32.9482 169.284 32.9482C171.993 32.9482 174.649 32.1937 176.953 30.7691C179.652 29.1007 181.733 26.5976 182.881 23.6396C184.028 20.6815 184.18 17.4299 183.313 14.3778C182.446 11.3257 180.607 8.63964 178.075 6.72709C175.543 4.81453 172.457 3.77979 169.284 3.77979C166.111 3.77979 163.025 4.81453 160.493 6.72709C157.961 8.63964 156.122 11.3257 155.255 14.3778C154.388 17.4299 154.54 20.6815 155.687 23.6396C156.835 26.5976 158.916 29.1007 161.615 30.7691Z" fill="#EBEBEB"/>
    <path d="M164.845 16.695C164.845 17.5735 165.105 18.4323 165.593 19.1627C166.081 19.8932 166.775 20.4625 167.587 20.7986C168.398 21.1348 169.291 21.2228 170.153 21.0514C171.014 20.88 171.806 20.457 172.427 19.8358C173.048 19.2146 173.471 18.4232 173.643 17.5616C173.814 16.7 173.726 15.8069 173.39 14.9952C173.054 14.1836 172.484 13.4899 171.754 13.0019C171.024 12.5138 170.165 12.2533 169.286 12.2533C168.703 12.2527 168.125 12.3672 167.586 12.5902C167.047 12.8131 166.557 13.1403 166.144 13.5529C165.732 13.9654 165.404 14.4553 165.181 14.9945C164.958 15.5337 164.844 16.1116 164.845 16.695Z" fill="white"/>
    <path d="M161.615 28.939V30.7691C163.919 32.1936 166.575 32.9481 169.284 32.9481C171.993 32.9481 174.649 32.1936 176.953 30.7691V28.9437C176.978 27.9207 176.799 26.9029 176.424 25.9504C176.05 24.9978 175.49 24.1298 174.775 23.3973C174.06 22.6648 173.206 22.0827 172.263 21.6852C171.32 21.2878 170.307 21.083 169.284 21.083C168.261 21.083 167.248 21.2878 166.305 21.6852C165.362 22.0827 164.508 22.6648 163.793 23.3973C163.078 24.1298 162.518 24.9978 162.144 25.9504C161.77 26.9029 161.59 27.9207 161.615 28.9437V28.939Z" fill="white"/>
    <path d="M38.9062 31.3926C40.7825 26.6753 38.4794 21.33 33.7621 19.4537C29.0447 17.5774 23.6995 19.8805 21.8232 24.5979C19.9469 29.3152 22.25 34.6605 26.9674 36.5368C31.6847 38.4131 37.0299 36.1099 38.9062 31.3926Z" fill="#EBEBEB"/>
    <path d="M35.0517 29.1357C33.6475 31.944 30.3712 33.6008 30.3712 33.6008C30.3712 33.6008 27.0669 31.9393 25.6908 29.1357C24.5348 26.7955 25.2649 24.2774 27.0949 23.7251C29.7113 22.9341 30.3712 27.4929 30.3712 27.4929C30.3712 27.4929 31.0405 22.9341 33.6475 23.7251C35.4776 24.2774 36.2077 26.8236 35.0517 29.1357Z" fill="white"/>
    <path d="M176.677 111.137C180.678 104.606 178.626 96.0683 172.095 92.0676C165.564 88.0668 157.026 90.1181 153.025 96.6493C149.025 103.181 151.076 111.718 157.607 115.719C164.138 119.72 172.676 117.669 176.677 111.137Z" fill="#EBEBEB"/>
    <path d="M171.126 107.58C167.896 111.02 162.401 111.984 162.401 111.984C162.401 111.984 158.353 108.146 157.567 103.498C156.916 99.6182 159.074 96.2904 161.947 96.2858C166.076 96.2858 165.06 103.157 165.06 103.157C165.06 103.157 168.013 96.8661 171.453 99.1502C173.85 100.742 173.812 104.706 171.126 107.58Z" fill="white"/>
    <path fill-rule="evenodd" clip-rule="evenodd" d="M13.531 80.976C12.9507 80.6156 12.4499 80.0914 11.6589 80.171C11.364 80.1991 11.4295 79.9557 11.4249 79.7919C11.4249 76.89 11.4139 73.9913 11.3921 71.0956C11.3921 70.8803 11.3921 70.7072 11.6308 70.5948C13.8446 69.4668 14.7948 67.267 16.1474 65.3855C16.8399 64.4503 17.3373 63.3854 17.6099 62.254C17.8824 61.1227 17.9247 59.9481 17.7341 58.8002C17.6358 58.1449 17.94 57.8641 18.5297 57.719C19.2365 57.5552 19.9339 57.7471 20.1866 58.2338C20.8275 59.4163 21.2598 60.7003 21.4644 62.0296C21.5954 63.1295 21.2023 64.2014 21.0712 65.3059C20.9729 66.1063 20.7904 66.8926 20.6406 67.6976C20.8372 67.8381 21.0619 67.7678 21.2678 67.7678L28.6207 67.7444C29.6504 67.7444 30.1606 68.0393 30.3057 68.7227C30.3801 69.1363 30.3203 69.5629 30.1351 69.9401C29.9498 70.3173 29.6488 70.6255 29.276 70.8195C29.0935 70.9084 28.7612 70.8195 28.7424 71.1144C28.7237 71.4092 29.0607 71.3765 29.2105 71.4935C30.0998 72.0972 29.9406 73.3656 28.9156 74.0817C28.6722 74.2596 28.1901 74.18 28.1808 74.5498C28.1714 74.9195 28.6488 74.8353 28.8267 75.0178C29.5475 75.7246 29.1964 77.0445 28.1246 77.5827C27.9787 77.6283 27.8363 77.6846 27.6987 77.7512C27.577 77.8308 27.4553 77.9244 27.6987 78.0929C28.7612 78.8464 28.7424 79.8995 27.6987 80.6718L27.3804 80.9058C26.9936 81.1378 26.5419 81.238 26.0933 81.1913L14.5654 81.2334C14.3846 81.2626 14.1997 81.2548 14.0219 81.2105C13.8441 81.1663 13.6772 81.0865 13.531 80.976Z" fill="#EBEBEB"/>
    <path fill-rule="evenodd" clip-rule="evenodd" d="M2.59753 75.8978C2.59753 74.0584 2.59753 72.2143 2.59753 70.3702C2.59753 69.9958 2.63029 69.8132 3.06557 69.8132C5.31686 69.8366 7.55878 69.8132 9.80539 69.8132C10.2734 69.8132 10.3156 69.9583 10.3156 70.3515C10.3156 74.0584 10.3296 77.7668 10.3577 81.4769C10.3577 81.9449 10.2313 82.0806 9.75858 82.076C7.57751 82.076 5.39642 82.076 3.20598 82.0994C2.66305 82.0994 2.58817 81.9215 2.59285 81.4441C2.59753 79.586 2.59753 77.7419 2.59753 75.8978Z" fill="#EBEBEB"/>
    <path fill-rule="evenodd" clip-rule="evenodd" d="M179.986 141.124C179.649 140.914 179.354 140.605 178.9 140.656C178.727 140.656 178.764 140.53 178.759 140.436C178.759 138.733 178.759 137.029 178.759 135.325C178.749 135.268 178.757 135.208 178.782 135.155C178.808 135.102 178.849 135.059 178.9 135.03C180.201 134.37 180.772 133.079 181.554 131.974C181.961 131.424 182.254 130.799 182.415 130.134C182.575 129.469 182.601 128.778 182.49 128.103C182.434 127.719 182.611 127.551 182.958 127.471C183.131 127.41 183.319 127.406 183.494 127.46C183.67 127.514 183.823 127.623 183.931 127.771C184.307 128.467 184.561 129.222 184.68 130.004C184.678 130.648 184.601 131.291 184.451 131.918C184.39 132.386 184.282 132.854 184.198 133.322C184.31 133.402 184.446 133.359 184.568 133.359H188.883C189.492 133.359 189.787 133.528 189.871 133.93C189.919 134.178 189.884 134.435 189.772 134.661C189.659 134.887 189.475 135.069 189.248 135.18C189.141 135.236 188.949 135.18 188.935 135.353C188.921 135.526 189.122 135.508 189.225 135.578C189.744 135.934 189.651 136.668 189.052 137.099C188.907 137.202 188.626 137.155 188.616 137.366C188.607 137.576 188.879 137.534 188.996 137.651C189.089 137.771 189.154 137.911 189.184 138.059C189.214 138.208 189.208 138.362 189.168 138.508C189.128 138.655 189.055 138.79 188.953 138.903C188.852 139.016 188.725 139.103 188.584 139.158C188.498 139.186 188.413 139.219 188.331 139.257C188.261 139.308 188.191 139.36 188.331 139.458C188.953 139.903 188.944 140.52 188.331 140.974L188.144 141.11C187.918 141.249 187.653 141.308 187.39 141.279C185.131 141.279 182.874 141.286 180.618 141.302C180.506 141.319 180.392 141.312 180.283 141.281C180.174 141.25 180.073 141.197 179.986 141.124Z" fill="#EBEBEB"/>
    <path fill-rule="evenodd" clip-rule="evenodd" d="M173.536 138.143C173.536 137.062 173.536 135.976 173.536 134.895C173.536 134.675 173.536 134.567 173.826 134.572C175.146 134.572 176.466 134.572 177.786 134.572C178.043 134.572 178.086 134.656 178.086 134.885C178.086 137.069 178.086 139.254 178.086 141.438C178.086 141.719 178.011 141.794 177.735 141.794C176.452 141.794 175.174 141.794 173.892 141.794C173.574 141.794 173.531 141.686 173.531 141.41C173.555 140.31 173.541 139.224 173.536 138.143Z" fill="#EBEBEB"/>
    <path d="M24.3054 132.48H22.6158C22.3632 132.485 22.1122 132.439 21.8779 132.344C21.6436 132.25 21.4308 132.109 21.2524 131.93C21.074 131.751 20.9336 131.538 20.8398 131.303C20.7459 131.069 20.7004 130.818 20.7062 130.565C20.7086 130.06 20.9106 129.575 21.2682 129.218C21.6258 128.86 22.1101 128.658 22.6158 128.656H24.956L26.0559 122.267H23.9357C23.4292 122.267 22.9435 122.066 22.5854 121.708C22.2272 121.349 22.0261 120.864 22.0261 120.357C22.0261 119.851 22.2272 119.365 22.5854 119.007C22.9435 118.649 23.4292 118.448 23.9357 118.448H26.7439L27.4741 114.076C27.5457 113.626 27.7792 113.217 28.1308 112.927C28.4824 112.636 28.9279 112.484 29.3837 112.499C29.6623 112.503 29.9368 112.567 30.1888 112.686C30.4409 112.805 30.6647 112.976 30.8454 113.188C31.0261 113.4 31.1595 113.648 31.2367 113.916C31.3139 114.184 31.3332 114.465 31.2933 114.741L30.638 118.448H36.3903L37.1251 114.076C37.1974 113.619 37.4363 113.205 37.7958 112.914C38.1554 112.622 38.6101 112.475 39.0722 112.499C39.3488 112.505 39.621 112.57 39.8704 112.69C40.1198 112.81 40.3407 112.982 40.518 113.194C40.6954 113.406 40.8253 113.654 40.8988 113.921C40.9723 114.188 40.9878 114.467 40.9443 114.741L40.3172 118.448H42.0162C42.5206 118.451 43.0032 118.654 43.359 119.012C43.7149 119.369 43.9152 119.853 43.9164 120.357C43.9092 120.86 43.707 121.34 43.3524 121.696C42.9979 122.053 42.5187 122.257 42.0162 122.267H39.6759L38.576 128.656H40.6635C40.9152 128.653 41.1649 128.701 41.3979 128.796C41.631 128.891 41.8428 129.031 42.021 129.209C42.1992 129.387 42.3402 129.598 42.4358 129.831C42.5314 130.064 42.5797 130.314 42.5778 130.565C42.5753 131.072 42.3729 131.558 42.0144 131.916C41.6559 132.275 41.1705 132.477 40.6635 132.48H37.9114L37.1392 136.991C37.0676 137.442 36.834 137.851 36.4824 138.141C36.1308 138.431 35.6853 138.584 35.2295 138.569C34.9502 138.57 34.6739 138.51 34.4196 138.395C34.1653 138.279 33.9389 138.11 33.7558 137.899C33.5728 137.688 33.4374 137.44 33.359 137.172C33.2805 136.904 33.2608 136.622 33.3012 136.346L34.0033 132.489H28.2323L27.4647 137.001C27.3814 137.449 27.1411 137.853 26.7869 138.141C26.4327 138.428 25.9877 138.58 25.5317 138.569C25.2533 138.574 24.9773 138.516 24.7238 138.401C24.4703 138.286 24.2457 138.116 24.0664 137.903C23.887 137.69 23.7574 137.44 23.6871 137.17C23.6167 136.901 23.6073 136.619 23.6595 136.346L24.3054 132.48ZM34.6304 128.656L35.735 122.267H30.0015L28.8969 128.656H34.6304Z" fill="#EBEBEB"/>
    <path d="M144.789 87.8844H143.441C143.241 87.8857 143.042 87.847 142.856 87.7707C142.671 87.6944 142.503 87.582 142.361 87.44C142.219 87.298 142.107 87.1293 142.032 86.9436C141.956 86.758 141.918 86.5591 141.92 86.3586C141.922 85.9559 142.083 85.5704 142.368 85.2857C142.653 85.001 143.038 84.8399 143.441 84.8375H145.313L146.193 79.7452H144.489C144.1 79.7236 143.734 79.5536 143.466 79.2703C143.197 78.987 143.048 78.6117 143.048 78.2217C143.048 77.8316 143.197 77.4564 143.466 77.173C143.734 76.8897 144.1 76.7198 144.489 76.6982H146.722L147.298 73.2159C147.356 72.8565 147.542 72.5304 147.823 72.2987C148.104 72.067 148.46 71.9455 148.823 71.9569C149.046 71.9606 149.264 72.0116 149.465 72.1064C149.666 72.2012 149.844 72.3378 149.988 72.507C150.132 72.6762 150.238 72.8741 150.3 73.0875C150.361 73.3009 150.377 73.525 150.345 73.7448L149.825 76.6982H154.417L155.002 73.2159C155.061 72.8528 155.251 72.524 155.537 72.2919C155.822 72.0599 156.183 71.9406 156.551 71.9569C156.771 71.9624 156.988 72.0147 157.187 72.1105C157.386 72.2063 157.562 72.3434 157.704 72.5125C157.845 72.6816 157.949 72.879 158.009 73.0915C158.068 73.304 158.082 73.5267 158.049 73.7448L157.548 76.6982H158.924C159.327 76.7007 159.713 76.8625 159.997 77.1484C160.281 77.4343 160.44 77.821 160.44 78.224C160.434 78.6248 160.273 79.0075 159.99 79.2913C159.707 79.5752 159.325 79.7379 158.924 79.7452H157.052L156.148 84.8609H157.815C158.015 84.859 158.214 84.897 158.4 84.9728C158.585 85.0485 158.754 85.1604 158.896 85.3019C159.038 85.4435 159.15 85.6119 159.227 85.7973C159.303 85.9827 159.342 86.1815 159.34 86.382C159.339 86.7863 159.178 87.1737 158.892 87.4595C158.606 87.7454 158.219 87.9066 157.815 87.9078H155.619L155.006 91.5024C154.946 91.8605 154.758 92.1849 154.478 92.4161C154.198 92.6473 153.844 92.7699 153.481 92.7614C153.258 92.7606 153.039 92.7119 152.837 92.6186C152.636 92.5253 152.457 92.3896 152.312 92.2208C152.168 92.052 152.062 91.854 152.001 91.6403C151.94 91.4267 151.926 91.2024 151.959 90.9829L152.516 87.9078H147.92L147.302 91.5024C147.239 91.863 147.049 92.1888 146.765 92.42C146.481 92.6513 146.124 92.7725 145.758 92.7614C145.535 92.7647 145.315 92.7184 145.113 92.6259C144.911 92.5334 144.732 92.3971 144.589 92.2268C144.446 92.0565 144.343 91.8565 144.287 91.6414C144.23 91.4262 144.223 91.2013 144.265 90.9829L144.789 87.8844ZM153.017 84.8609L153.897 79.7685H149.329L148.449 84.8609H153.017Z" fill="#EBEBEB"/>
    <path d="M96.2062 192.057C149.319 192.057 192.375 186.51 192.375 179.668C192.375 172.825 149.319 167.278 96.2062 167.278C43.0937 167.278 0.0374756 172.825 0.0374756 179.668C0.0374756 186.51 43.0937 192.057 96.2062 192.057Z" fill="#EBEBEB"/>
    <path d="M27.8065 112.054C27.2949 113.917 26.958 115.824 26.8002 117.75C26.8517 117.844 26.8376 118.218 26.8002 118.101C26.8002 118.415 26.3321 118.359 26.3321 118.05C26.3321 117.848 26.3321 117.647 26.3321 117.451C25.2182 116.07 23.6034 115.195 22.2976 113.992C21.2439 113.05 20.4781 111.83 20.0884 110.472C19.0026 106.728 20.0182 102.782 18.7171 99.0565C17.5938 95.8457 15.5765 93.0515 13.8728 90.1637C12.0709 87.084 10.7416 83.8498 10.5965 80.2459C10.4889 77.4891 10.8212 73.8103 12.9368 71.7415C15.1646 69.5464 17.9261 71.1939 19.6298 73.1457C24.577 78.823 26.8657 85.9934 27.7924 93.3324C28.3026 97.3903 28.8315 101.476 28.7285 105.572C28.6369 107.758 28.3281 109.929 27.8065 112.054Z" fill="#51B5B7"/>
    <path d="M26.8189 119.239C27.0896 115.408 27.0442 111.562 26.6831 107.739C26.6874 107.725 26.6874 107.71 26.6831 107.697C26.7487 104.589 26.992 101.49 26.8704 98.3779C26.7289 95.0132 26.2809 91.6684 25.5318 88.3852C25.5318 88.3477 25.4615 88.3571 25.4709 88.3852C26.0763 91.611 26.4378 94.8778 26.5521 98.1579C26.6176 99.9178 26.6036 101.674 26.51 103.428C26.4819 103.999 26.4257 104.575 26.3883 105.15C25.0951 96.4225 21.941 88.0744 17.1397 80.6718C17.0742 80.5735 16.8964 80.6718 16.9572 80.7842C20.3882 86.41 22.9285 92.5326 24.488 98.9349C22.101 94.5306 18.5111 90.9079 15.8433 86.6721C15.8433 86.6487 15.7871 86.6721 15.8011 86.6721C18.1928 91.39 22.1525 95.0969 24.694 99.7493C25.1339 101.646 25.4881 103.556 25.7564 105.478C26.1143 108.116 26.3065 110.773 26.3321 113.435C24.8812 110.73 23.3788 108.137 22.1946 105.272C22.1618 105.197 22.0542 105.272 22.0776 105.324C23.0886 108.3 24.4412 111.506 26.3415 114.043C26.3415 115.915 26.2884 117.799 26.1823 119.693C25.8875 124.71 25.0309 129.667 24.6331 134.67C24.6342 134.698 24.6451 134.724 24.6639 134.745C24.6827 134.765 24.7082 134.778 24.7358 134.782C24.7634 134.785 24.7913 134.778 24.8145 134.763C24.8377 134.748 24.8547 134.725 24.8624 134.698C25.8642 129.595 26.5178 124.43 26.8189 119.239Z" fill="#263238"/>
    <path d="M21.4879 80.5173C21.4879 80.4799 21.4177 80.5174 21.4317 80.5408C22.3678 83.0775 22.8686 85.6471 23.5286 88.2494C23.5358 88.272 23.5509 88.2912 23.5711 88.3035C23.5914 88.3159 23.6154 88.3205 23.6388 88.3165C23.6621 88.3125 23.6833 88.3002 23.6983 88.2818C23.7133 88.2635 23.7212 88.2403 23.7205 88.2167C23.449 85.5816 22.5082 82.9465 21.4879 80.5173Z" fill="#263238"/>
    <path d="M44.7777 91.1466C44.1651 92.6338 43.4601 94.0814 42.6668 95.4806C41.0146 98.4808 39.2922 101.228 38.9833 104.72C38.8429 106.278 38.7914 107.846 38.3187 109.349C37.8835 110.64 37.2623 111.86 36.4746 112.971C34.682 115.578 32.4448 117.825 30.7879 120.53C29.0625 123.351 27.7881 126.424 27.0108 129.638C26.9687 129.816 26.6925 129.769 26.7346 129.592C26.7346 129.592 26.7346 129.568 26.7346 129.554C26.7346 129.54 26.7346 129.554 26.7346 129.517C26.4725 122.028 27.0716 114.483 29.3557 107.308C30.3628 104.153 31.5745 101.067 32.983 98.0689C34.2093 95.4713 35.7304 92.9673 37.8787 91.0249C39.2829 89.7705 42.2971 87.3929 44.2816 88.6519C45.2223 89.2557 45.1521 90.2105 44.7777 91.1466Z" fill="#E27B14"/>
    <path d="M37.2328 108.122C35.9133 110.295 34.4595 112.384 32.88 114.375C32.1546 115.312 31.4197 116.248 30.6989 117.207C30.3573 117.675 29.9735 118.101 29.6599 118.583C29.8565 117.797 30.0484 117.006 30.2496 116.22C31.2138 112.438 32.1218 108.623 33.5821 104.987C35.0585 101.465 36.7967 98.0591 38.782 94.7973C38.8335 94.7084 38.6931 94.6475 38.6416 94.7317C37.0596 97.3341 35.4543 99.9317 34.125 102.688C33.3894 104.219 32.7485 105.793 32.206 107.402C32.8153 103.987 33.6693 100.621 34.7615 97.3294C34.7615 97.3232 34.7591 97.3172 34.7547 97.3128C34.7503 97.3084 34.7444 97.306 34.7381 97.306C34.7319 97.306 34.726 97.3084 34.7216 97.3128C34.7172 97.3172 34.7147 97.3232 34.7147 97.3294C33.2961 100.649 32.4084 104.171 32.0843 107.767C31.7723 108.737 31.4712 109.718 31.181 110.711C30.0016 114.923 28.9672 119.135 28.0077 123.381C27.9901 120.589 28.2314 117.801 28.7285 115.054C28.7285 114.989 28.6489 114.975 28.6302 115.054C27.9004 117.918 27.6567 120.885 27.9094 123.83C27.5443 125.449 27.1902 127.067 26.8469 128.684C26.1121 132.133 25.2088 135.648 24.7782 139.154C24.7786 139.17 24.7846 139.186 24.7953 139.198C24.8059 139.21 24.8204 139.218 24.8365 139.221C24.8525 139.224 24.8689 139.221 24.8831 139.213C24.8972 139.205 24.9081 139.192 24.9139 139.177C25.4288 137.305 25.7377 135.33 26.1589 133.415C26.5802 131.501 27.0154 129.582 27.4601 127.668C28.1107 124.883 28.794 122.103 29.4867 119.327C29.9547 118.312 30.8487 117.408 31.518 116.552C32.2575 115.616 32.9923 114.68 33.7085 113.744C35.0572 111.983 36.2624 110.118 37.3124 108.165C37.3405 108.108 37.2749 108.08 37.2328 108.122Z" fill="#263238"/>
    <path d="M37.5699 104.921C35.9225 107.024 34.4953 109.29 33.3107 111.684C33.3107 111.717 33.3434 111.75 33.3622 111.717C34.799 109.47 36.2079 107.21 37.6354 104.963C37.6635 104.921 37.5979 104.884 37.5699 104.921Z" fill="#263238"/>
    <path d="M5.69614 98.2468C6.66498 99.9177 7.77425 101.926 7.35769 103.929C7.0909 105.202 6.16418 106.232 5.99568 107.528C5.62125 110.388 8.47163 112.279 10.531 113.613C15.6795 116.983 22.7235 119.992 23.6596 126.882C23.6971 127.125 24.1277 127.064 24.0855 126.825C24.0877 126.81 24.0877 126.794 24.0855 126.779C24.0855 126.779 24.1136 126.779 24.1136 126.737C24.7842 123.259 24.7476 119.682 24.006 116.22C23.2384 112.672 21.6892 109.48 19.8591 106.363C16.7653 101.083 13.489 95.6772 8.80862 91.6333C7.51682 90.5147 4.86302 88.5021 3.83333 91.0295C2.83172 93.4961 4.50731 96.2108 5.69614 98.2468Z" fill="url(#paint0_linear_211_841)"/>
    <path d="M10.3999 109.438C13.8119 113.131 19.2319 115.199 22.1665 119.332C20.5272 113.041 17.4294 107.223 13.1239 102.352C13.0116 102.221 13.1895 102.043 13.3111 102.16C16.4497 105.209 18.9604 108.844 20.7015 112.859C19.8886 110.057 18.8233 107.334 17.5188 104.725C17.472 104.626 17.6125 104.537 17.6686 104.636C19.2857 107.485 20.4435 110.571 21.0994 113.781C24.9654 123.142 25.3118 134.122 24.5114 143.984C24.5114 144.124 24.2867 144.129 24.2914 143.984C24.5114 136.21 24.385 128.3 22.5222 120.708C22.4848 120.549 22.4427 120.395 22.4005 120.24C19.2085 115.789 13.8119 113.725 10.3438 109.503C10.311 109.456 10.3625 109.396 10.3999 109.438Z" fill="#263238"/>
    <path d="M9.61828 106.269C11.4062 107.912 13.166 109.587 14.9586 111.23C14.9586 111.23 14.9586 111.277 14.9352 111.263C12.9069 109.9 11.0794 108.26 9.50595 106.391C9.48981 106.376 9.48025 106.355 9.47938 106.333C9.4785 106.311 9.48637 106.29 9.50127 106.274C9.51616 106.258 9.53686 106.248 9.55881 106.247C9.58075 106.246 9.60214 106.254 9.61828 106.269Z" fill="#263238"/>
    <path d="M9.32809 99.1548C10.9108 101.751 12.7015 104.215 14.6825 106.522C14.7106 106.55 14.6825 106.592 14.6357 106.564C12.4149 104.451 10.5861 101.962 9.23448 99.211C9.23073 99.1989 9.23113 99.186 9.23561 99.1742C9.24009 99.1625 9.2484 99.1525 9.2592 99.1461C9.27 99.1396 9.28266 99.1369 9.29516 99.1385C9.30765 99.1401 9.31925 99.1458 9.32809 99.1548Z" fill="#263238"/>
    <path d="M17.3831 150.944H33.0579L30.947 129.854H19.7982L17.3831 150.944Z" fill="#455A64"/>
    <path d="M19.4051 133.285H31.2934L30.947 129.854H19.7982L19.4051 133.285Z" fill="#263238"/>
    <path d="M17.8792 130.883H32.5711V127.518H17.8792V130.883Z" fill="#455A64"/>
    <path d="M0 150.944L24.0527 150.831L48.1054 150.789L96.2062 150.71L144.307 150.789L168.36 150.827L192.412 150.944L168.36 151.061L144.307 151.098L96.2062 151.178L48.1054 151.098L24.0527 151.056L0 150.944Z" fill="#263238"/>
    <path d="M137.057 0.219971H55.346C54.2501 0.23037 53.167 0.456538 52.1585 0.88556C51.15 1.31458 50.2358 1.93805 49.4683 2.72038C48.7007 3.5027 48.0948 4.42855 47.6851 5.44506C47.2754 6.46156 47.0699 7.54882 47.0804 8.64474V176.859C47.0604 179.072 47.9198 181.203 49.4697 182.782C51.0195 184.362 53.1331 185.262 55.346 185.284H137.057C139.271 185.263 141.386 184.364 142.938 182.784C144.49 181.205 145.351 179.073 145.332 176.859V8.64006C145.351 6.42631 144.489 4.29575 142.938 2.71679C141.386 1.13784 139.271 0.239747 137.057 0.219971ZM140.165 171.659C140.165 176.087 136.851 179.668 132.76 179.668H59.6567C55.5567 179.668 52.2429 176.087 52.2429 171.659V15.0148C52.2429 5.99562 55.5567 5.55566 59.6567 5.55566H74.2971C75.1489 5.55566 75.8463 6.52451 75.8463 7.7227V8.24222C75.8463 11.0505 77.3815 11.0505 79.2724 11.0505H113.135C115.04 11.0505 116.561 11.0505 116.561 8.24222V7.7227C116.561 6.52451 117.249 5.55566 118.115 5.55566H132.76C136.851 5.55566 140.165 6.75853 140.165 15.0148V171.659Z" fill="#263238"/>
    <path d="M100.821 7.5495H91.5867C91.5115 7.55012 91.437 7.53578 91.3674 7.5073C91.2978 7.47883 91.2346 7.43679 91.1815 7.38364C91.1283 7.33049 91.0863 7.2673 91.0578 7.19774C91.0294 7.12818 91.015 7.05364 91.0156 6.97848C91.0156 6.82704 91.0758 6.6818 91.1829 6.57472C91.29 6.46763 91.4352 6.40747 91.5867 6.40747H100.821C100.973 6.40747 101.118 6.46763 101.225 6.57472C101.332 6.6818 101.392 6.82704 101.392 6.97848C101.393 7.05364 101.378 7.12818 101.35 7.19774C101.321 7.2673 101.279 7.33049 101.226 7.38364C101.173 7.43679 101.11 7.47883 101.04 7.5073C100.971 7.53578 100.896 7.55012 100.821 7.5495Z" fill="white"/>
    <path d="M140.169 15.0148V171.659C140.169 176.087 136.851 179.668 132.76 179.668H59.6568C55.5567 179.668 52.243 176.087 52.243 171.659V15.0148C52.243 5.99562 55.5567 5.55566 59.6568 5.55566H74.2972C75.149 5.55566 75.8464 6.52451 75.8464 7.7227V8.24223C75.8464 11.0505 77.3816 11.0505 79.2724 11.0505H113.135C115.04 11.0505 116.566 11.0505 116.566 8.24223V7.7227C116.566 6.52451 117.249 5.55566 118.115 5.55566H132.76C136.851 5.55566 140.169 6.75853 140.169 15.0148Z" fill="white"/>
    <path d="M140.165 15.0148V39.1565H52.2383V15.0148C52.2383 5.99562 55.5567 5.55566 59.6568 5.55566H74.3018C75.1537 5.55566 75.8464 6.52451 75.8464 7.7227V8.24223C75.8464 11.0505 77.3862 11.0505 79.2724 11.0505H113.135C115.04 11.0505 116.566 11.0505 116.566 8.24223V7.7227C116.566 6.52451 117.254 5.55566 118.12 5.55566H132.76C136.851 5.55566 140.165 6.75853 140.165 15.0148Z" fill="url(#paint1_linear_211_841)"/>
    <path d="M71.7744 9.0753L71.6293 9.21571C71.6051 9.24452 71.5785 9.27114 71.5497 9.29528C71.1884 8.9339 70.6987 8.73027 70.1877 8.72895C69.9332 8.72752 69.6811 8.77734 69.4463 8.87544C69.2115 8.97355 68.9988 9.11792 68.821 9.29996C68.7985 9.27123 68.7734 9.2446 68.7461 9.22039L68.6057 9.07998C68.6619 9.02381 68.7227 8.97233 68.7836 8.92085C68.9102 8.81641 69.0484 8.72689 69.1954 8.65406C69.3684 8.56758 69.5528 8.50612 69.7431 8.47153C69.8367 8.47153 69.9256 8.44812 70.0192 8.43408H70.2579H70.4451C70.618 8.45352 70.7878 8.4944 70.9506 8.55577C71.0672 8.59927 71.1799 8.6525 71.2876 8.71491C71.4043 8.77999 71.5141 8.85684 71.6152 8.94425L71.765 9.0753H71.7744Z" fill="white"/>
    <path d="M69.2703 9.73996L69.0597 9.50594C69.2088 9.35622 69.3861 9.23742 69.5813 9.15636C69.7764 9.0753 69.9857 9.03357 70.197 9.03357C70.4084 9.03357 70.6176 9.0753 70.8128 9.15636C71.008 9.23742 71.1852 9.35622 71.3344 9.50594L71.1097 9.73061C70.9875 9.60735 70.8415 9.51019 70.6806 9.44502C70.5197 9.37985 70.3472 9.34803 70.1736 9.35149C69.8333 9.35784 69.509 9.4973 69.2703 9.73996Z" fill="white"/>
    <path d="M70.8803 9.97392L70.6557 10.1939C70.5308 10.0712 70.3628 10.0023 70.1876 10.002C70.1004 10.0015 70.0139 10.0186 69.9335 10.0524C69.8531 10.0862 69.7803 10.1359 69.7196 10.1986L69.4949 9.97392C69.5858 9.88278 69.6938 9.81047 69.8126 9.76114C69.9315 9.7118 70.0589 9.6864 70.1876 9.6864C70.3163 9.6864 70.4438 9.7118 70.5626 9.76114C70.6815 9.81047 70.7895 9.88278 70.8803 9.97392Z" fill="white"/>
    <path d="M70.3889 10.3905C70.3889 10.4438 70.3677 10.495 70.33 10.5328C70.2922 10.5705 70.241 10.5917 70.1877 10.5917C70.1343 10.5917 70.0831 10.5705 70.0453 10.5328C70.0076 10.495 69.9864 10.4438 69.9864 10.3905C69.9864 10.3371 70.0076 10.2859 70.0453 10.2482C70.0831 10.2104 70.1343 10.1892 70.1877 10.1892C70.241 10.1892 70.2922 10.2104 70.33 10.2482C70.3677 10.2859 70.3889 10.3371 70.3889 10.3905Z" fill="white"/>
    <path d="M58.5569 10.0816C58.8774 10.0816 59.1372 9.8218 59.1372 9.50127C59.1372 9.18074 58.8774 8.9209 58.5569 8.9209C58.2363 8.9209 57.9765 9.18074 57.9765 9.50127C57.9765 9.8218 58.2363 10.0816 58.5569 10.0816Z" fill="white"/>
    <path d="M59.8112 9.50593C59.8112 9.39002 59.8457 9.27672 59.9101 9.18041C59.9746 9.0841 60.0663 9.00912 60.1735 8.96498C60.2806 8.92084 60.3985 8.90953 60.5121 8.93249C60.6258 8.95544 60.73 9.01163 60.8116 9.09392C60.8933 9.17621 60.9486 9.28089 60.9706 9.39469C60.9927 9.50848 60.9804 9.62626 60.9354 9.73308C60.8904 9.8399 60.8147 9.93095 60.7179 9.99467C60.6211 10.0584 60.5075 10.0919 60.3916 10.091C60.2372 10.0898 60.0896 10.0276 59.9809 9.91798C59.8722 9.8084 59.8112 9.66029 59.8112 9.50593Z" fill="white"/>
    <path d="M62.231 10.0816C62.5515 10.0816 62.8114 9.8218 62.8114 9.50127C62.8114 9.18074 62.5515 8.9209 62.231 8.9209C61.9105 8.9209 61.6506 9.18074 61.6506 9.50127C61.6506 9.8218 61.9105 10.0816 62.231 10.0816Z" fill="white"/>
    <path d="M63.4807 9.50595C63.4807 9.39024 63.515 9.27712 63.5793 9.18091C63.6436 9.0847 63.735 9.00972 63.8419 8.96543C63.9488 8.92115 64.0664 8.90957 64.1799 8.93214C64.2934 8.95471 64.3976 9.01044 64.4795 9.09226C64.5613 9.17408 64.617 9.27832 64.6396 9.39181C64.6622 9.5053 64.6506 9.62294 64.6063 9.72984C64.562 9.83675 64.487 9.92812 64.3908 9.99241C64.2946 10.0567 64.1815 10.091 64.0658 10.091C63.9106 10.091 63.7618 10.0294 63.6521 9.91965C63.5424 9.80993 63.4807 9.66112 63.4807 9.50595Z" fill="white"/>
    <path d="M65.3154 9.50595C65.3154 9.39024 65.3497 9.27712 65.414 9.18091C65.4783 9.0847 65.5697 9.00972 65.6766 8.96543C65.7835 8.92115 65.9011 8.90957 66.0146 8.93214C66.1281 8.95471 66.2324 9.01044 66.3142 9.09226C66.396 9.17408 66.4517 9.27832 66.4743 9.39181C66.4969 9.5053 66.4853 9.62294 66.441 9.72984C66.3967 9.83675 66.3217 9.92812 66.2255 9.99241C66.1293 10.0567 66.0162 10.091 65.9005 10.091C65.7453 10.091 65.5965 10.0294 65.4868 9.91965C65.3771 9.80993 65.3154 9.66112 65.3154 9.50595Z" fill="white"/>
    <path d="M133.565 10.7696H128.829V8.56982H133.565V10.7696ZM129.063 10.5356H133.331V8.81789H129.063V10.5356Z" fill="white"/>
    <path d="M132.278 8.94897H129.222V10.3999H132.278V8.94897Z" fill="white"/>
    <path d="M133.996 9.08936H133.575V10.2641H133.996V9.08936Z" fill="white"/>
    <path d="M108.324 103.962H76.8105V108.474H108.324V103.962Z" fill="#51B5B7"/>
    <path d="M115.485 103.962H110.973V108.474H115.485V103.962Z" fill="#DBDBDB"/>
    <path d="M112.321 106.218C112.321 106.273 112.304 106.327 112.274 106.374C112.243 106.42 112.199 106.456 112.148 106.477C112.096 106.498 112.04 106.504 111.985 106.493C111.931 106.482 111.881 106.455 111.842 106.416C111.802 106.377 111.776 106.327 111.765 106.272C111.754 106.218 111.759 106.161 111.781 106.11C111.802 106.059 111.838 106.015 111.884 105.984C111.93 105.953 111.985 105.937 112.04 105.937C112.077 105.937 112.113 105.944 112.148 105.958C112.182 105.972 112.213 105.993 112.239 106.019C112.265 106.045 112.285 106.076 112.3 106.11C112.314 106.144 112.321 106.181 112.321 106.218Z" fill="#263238"/>
    <path d="M113.524 106.218C113.524 106.273 113.507 106.327 113.476 106.374C113.446 106.42 113.402 106.456 113.35 106.477C113.299 106.498 113.243 106.504 113.188 106.493C113.134 106.482 113.084 106.455 113.044 106.416C113.005 106.377 112.978 106.327 112.968 106.272C112.957 106.218 112.962 106.161 112.984 106.11C113.005 106.059 113.041 106.015 113.087 105.984C113.133 105.953 113.187 105.937 113.243 105.937C113.28 105.937 113.316 105.944 113.35 105.958C113.385 105.972 113.415 105.993 113.442 106.019C113.468 106.045 113.488 106.076 113.502 106.11C113.517 106.144 113.524 106.181 113.524 106.218Z" fill="#263238"/>
    <path d="M114.694 106.218C114.694 106.273 114.677 106.327 114.647 106.374C114.616 106.42 114.572 106.456 114.521 106.477C114.469 106.498 114.413 106.504 114.358 106.493C114.304 106.482 114.254 106.455 114.215 106.416C114.175 106.377 114.148 106.327 114.138 106.272C114.127 106.218 114.132 106.161 114.154 106.11C114.175 106.059 114.211 106.015 114.257 105.984C114.303 105.953 114.358 105.937 114.413 105.937C114.45 105.937 114.486 105.944 114.521 105.958C114.555 105.972 114.586 105.993 114.612 106.019C114.638 106.045 114.658 106.076 114.673 106.11C114.687 106.144 114.694 106.181 114.694 106.218Z" fill="#263238"/>
    <path d="M58.7347 23.1166L56.68 21.1883L58.7347 19.2646L59.0577 19.6016L57.3587 21.1883L59.0577 22.7797L58.7347 23.1166Z" fill="white"/>
    <path d="M135.208 20.3927C135.43 20.3927 135.611 20.2125 135.611 19.9902C135.611 19.7679 135.43 19.5876 135.208 19.5876C134.986 19.5876 134.806 19.7679 134.806 19.9902C134.806 20.2125 134.986 20.3927 135.208 20.3927Z" fill="white"/>
    <path d="M135.208 21.8296C135.43 21.8296 135.611 21.6494 135.611 21.4271C135.611 21.2047 135.43 21.0245 135.208 21.0245C134.986 21.0245 134.806 21.2047 134.806 21.4271C134.806 21.6494 134.986 21.8296 135.208 21.8296Z" fill="white"/>
    <path d="M135.615 22.8686C135.622 22.9254 135.616 22.9829 135.598 23.0373C135.58 23.0917 135.552 23.1418 135.513 23.1843C135.475 23.2268 135.429 23.2608 135.376 23.2841C135.324 23.3074 135.268 23.3194 135.211 23.3194C135.153 23.3194 135.097 23.3074 135.045 23.2841C134.992 23.2608 134.946 23.2268 134.908 23.1843C134.869 23.1418 134.841 23.0917 134.823 23.0373C134.805 22.9829 134.8 22.9254 134.806 22.8686C134.816 22.7687 134.864 22.6764 134.938 22.6092C135.013 22.5421 135.11 22.505 135.211 22.505C135.311 22.505 135.408 22.5421 135.483 22.6092C135.557 22.6764 135.605 22.7687 135.615 22.8686Z" fill="white"/>
    <path d="M64.1079 119.964C63.6034 120.277 63.0128 120.422 62.4207 120.379C61.8286 120.335 61.2655 120.105 60.8124 119.721C60.3593 119.338 60.0395 118.82 59.8988 118.243C59.7581 117.667 59.8038 117.06 60.0294 116.511C60.255 115.962 60.6488 115.498 61.1543 115.187C61.6598 114.875 62.251 114.732 62.8429 114.778C63.4349 114.824 63.9971 115.056 64.4489 115.441C64.9007 115.826 65.2188 116.344 65.3576 116.922C65.4955 117.496 65.449 118.099 65.2247 118.645C65.0003 119.191 64.6096 119.653 64.1079 119.964Z" fill="#DBDBDB"/>
    <path d="M63.4901 117.273C63.4901 117.441 63.4401 117.606 63.3465 117.746C63.2529 117.886 63.1199 117.995 62.9642 118.06C62.8085 118.124 62.6373 118.141 62.472 118.108C62.3068 118.075 62.155 117.994 62.0359 117.875C61.9167 117.756 61.8356 117.604 61.8027 117.439C61.7699 117.274 61.7867 117.102 61.8512 116.947C61.9157 116.791 62.0249 116.658 62.165 116.564C62.305 116.471 62.4697 116.421 62.6382 116.421C62.8641 116.421 63.0808 116.511 63.2406 116.67C63.4003 116.83 63.4901 117.047 63.4901 117.273Z" fill="white"/>
    <path d="M64.1079 119.622V119.964C63.6652 120.236 63.1556 120.381 62.6359 120.381C62.1161 120.381 61.6065 120.236 61.1639 119.964V119.613C61.1851 119.237 61.3494 118.883 61.6231 118.625C61.8969 118.366 62.2592 118.222 62.6359 118.222C63.0125 118.222 63.3749 118.366 63.6486 118.625C63.9223 118.883 64.0867 119.237 64.1079 119.613V119.622Z" fill="white"/>
    <path d="M131.309 115.752C131.359 115.753 131.406 115.773 131.441 115.808C131.475 115.843 131.495 115.89 131.497 115.939C131.497 115.988 131.477 116.036 131.442 116.071C131.407 116.106 131.359 116.126 131.309 116.126C131.285 116.126 131.261 116.121 131.238 116.112C131.216 116.102 131.196 116.088 131.179 116.071C131.162 116.053 131.148 116.033 131.139 116.01C131.131 115.987 131.126 115.963 131.127 115.939C131.127 115.89 131.146 115.843 131.18 115.808C131.214 115.773 131.261 115.753 131.309 115.752Z" fill="black"/>
    <path d="M131.866 115.752C131.916 115.753 131.963 115.773 131.997 115.808C132.032 115.843 132.052 115.89 132.054 115.939C132.054 115.988 132.034 116.036 131.999 116.071C131.964 116.106 131.916 116.126 131.866 116.126C131.842 116.126 131.818 116.121 131.795 116.112C131.773 116.102 131.753 116.088 131.736 116.071C131.719 116.053 131.705 116.033 131.696 116.01C131.687 115.987 131.683 115.963 131.684 115.939C131.684 115.89 131.703 115.843 131.737 115.808C131.771 115.773 131.818 115.753 131.866 115.752Z" fill="black"/>
    <path d="M132.437 115.752C132.487 115.753 132.534 115.773 132.568 115.808C132.603 115.843 132.623 115.89 132.625 115.939C132.629 115.966 132.627 115.993 132.62 116.019C132.613 116.045 132.6 116.069 132.582 116.09C132.565 116.11 132.543 116.127 132.518 116.138C132.494 116.15 132.467 116.156 132.44 116.156C132.413 116.156 132.386 116.15 132.361 116.138C132.337 116.127 132.315 116.11 132.297 116.09C132.28 116.069 132.267 116.045 132.259 116.019C132.252 115.993 132.251 115.966 132.255 115.939C132.256 115.89 132.275 115.844 132.309 115.809C132.343 115.775 132.389 115.754 132.437 115.752Z" fill="black"/>
    <path d="M60.1716 123.493L69.261 123.409L76.7778 123.357L91.8113 123.32L98.9724 123.357L106.484 123.409L114.001 123.493L106.484 123.577L98.9724 123.624L91.8113 123.666L76.7778 123.624L69.261 123.577L60.1716 123.493Z" fill="#263238"/>
    <path d="M60.1669 125.084C64.4074 125.014 70.4639 124.981 74.7277 124.953L87.4538 124.911L100.185 124.953L103.751 125.084L100.185 125.22L87.4538 125.258L74.7277 125.22C70.4873 125.192 64.4121 125.159 60.1669 125.084Z" fill="#263238"/>
    <path d="M60.1669 126.924C64.7912 126.854 71.4 126.821 76.0336 126.793L89.9064 126.751L103.774 126.793L107.664 126.924L103.774 127.06L89.9064 127.102L76.0336 127.06C71.4 127.031 64.7959 126.985 60.1669 126.924Z" fill="#263238"/>
    <path d="M84.6316 115.452H67.7773V117.273H84.6316V115.452Z" fill="#455A64"/>
    <path d="M81.2242 118.181H67.7773V119.281H81.2242V118.181Z" fill="#DBDBDB"/>
    <path d="M59.8346 130.729L68.9193 130.668L77.9993 130.649L96.1594 130.612L114.319 130.649L123.404 130.668L132.484 130.729L123.404 130.785L114.319 130.804L96.1594 130.846L77.9993 130.804L68.9193 130.785L59.8346 130.729Z" fill="#DBDBDB"/>
    <path d="M64.1079 139.739C63.6035 140.052 63.013 140.196 62.4212 140.153C61.8293 140.109 61.2665 139.879 60.8135 139.495C60.3606 139.112 60.0408 138.595 59.9 138.018C59.7591 137.442 59.8046 136.836 60.0298 136.286C60.255 135.737 60.6484 135.274 61.1534 134.962C61.6585 134.651 62.2493 134.507 62.8411 134.552C63.4328 134.597 63.9951 134.828 64.4472 135.213C64.8993 135.597 65.218 136.115 65.3576 136.692C65.4966 137.267 65.4506 137.871 65.2262 138.418C65.0018 138.965 64.6105 139.427 64.1079 139.739Z" fill="#DBDBDB"/>
    <path d="M63.4901 137.038C63.4901 137.207 63.4401 137.371 63.3465 137.511C63.2529 137.652 63.1199 137.761 62.9642 137.825C62.8085 137.89 62.6373 137.907 62.472 137.874C62.3068 137.841 62.155 137.76 62.0359 137.641C61.9167 137.521 61.8356 137.37 61.8027 137.204C61.7699 137.039 61.7867 136.868 61.8512 136.712C61.9157 136.557 62.0249 136.424 62.165 136.33C62.305 136.236 62.4697 136.186 62.6382 136.186C62.8638 136.188 63.0797 136.278 63.2392 136.437C63.3987 136.597 63.4888 136.813 63.4901 137.038Z" fill="white"/>
    <path d="M64.1078 139.388V139.739C63.6652 140.011 63.1556 140.156 62.6358 140.156C62.1161 140.156 61.6065 140.011 61.1638 139.739V139.388C61.1525 139.188 61.1822 138.987 61.2511 138.799C61.32 138.61 61.4266 138.438 61.5644 138.292C61.7022 138.146 61.8683 138.03 62.0525 137.951C62.2367 137.871 62.4352 137.83 62.6358 137.83C62.8364 137.83 63.0349 137.871 63.2192 137.951C63.4034 138.03 63.5695 138.146 63.7073 138.292C63.8451 138.438 63.9517 138.61 64.0206 138.799C64.0894 138.987 64.1191 139.188 64.1078 139.388Z" fill="white"/>
    <path d="M131.309 135.522C131.359 135.522 131.407 135.541 131.442 135.577C131.477 135.612 131.497 135.659 131.497 135.709C131.497 135.733 131.492 135.757 131.482 135.78C131.473 135.802 131.459 135.823 131.442 135.84C131.424 135.857 131.403 135.87 131.381 135.879C131.358 135.888 131.334 135.892 131.309 135.891C131.285 135.892 131.261 135.888 131.239 135.879C131.216 135.87 131.196 135.857 131.179 135.839C131.162 135.822 131.148 135.802 131.139 135.78C131.131 135.757 131.126 135.733 131.127 135.709C131.126 135.685 131.131 135.66 131.139 135.638C131.148 135.615 131.162 135.594 131.179 135.577C131.196 135.559 131.216 135.546 131.238 135.536C131.261 135.527 131.285 135.522 131.309 135.522Z" fill="black"/>
    <path d="M131.866 135.522C131.916 135.522 131.964 135.541 131.999 135.577C132.034 135.612 132.054 135.659 132.054 135.709C132.054 135.733 132.049 135.757 132.039 135.78C132.03 135.802 132.016 135.823 131.998 135.84C131.981 135.857 131.96 135.87 131.938 135.879C131.915 135.888 131.891 135.892 131.866 135.891C131.842 135.892 131.818 135.888 131.796 135.879C131.773 135.87 131.753 135.857 131.736 135.839C131.719 135.822 131.705 135.802 131.696 135.78C131.687 135.757 131.683 135.733 131.684 135.709C131.683 135.685 131.687 135.66 131.696 135.638C131.705 135.615 131.719 135.594 131.736 135.577C131.753 135.559 131.773 135.546 131.795 135.536C131.818 135.527 131.842 135.522 131.866 135.522Z" fill="black"/>
    <path d="M132.437 135.522C132.487 135.522 132.535 135.541 132.57 135.577C132.605 135.612 132.625 135.659 132.625 135.709C132.618 135.753 132.595 135.793 132.561 135.822C132.527 135.851 132.484 135.867 132.44 135.867C132.395 135.867 132.352 135.851 132.318 135.822C132.284 135.793 132.262 135.753 132.255 135.709C132.255 135.66 132.274 135.613 132.308 135.578C132.342 135.543 132.389 135.523 132.437 135.522Z" fill="black"/>
    <path d="M60.1716 143.254L69.261 143.17L76.7778 143.123L91.8113 143.081L98.9724 143.123L106.484 143.17L114.001 143.254L106.484 143.343L98.9724 143.39L91.8113 143.432L76.7778 143.39L69.261 143.338L60.1716 143.254Z" fill="#263238"/>
    <path d="M60.1669 144.85C64.4074 144.78 70.4639 144.742 74.7277 144.714L87.4538 144.677L100.185 144.714L103.751 144.85L100.185 144.986L87.4538 145.023L74.7277 144.981C70.4873 144.953 64.4121 144.92 60.1669 144.85Z" fill="#263238"/>
    <path d="M84.6316 135.218H67.7773V137.038H84.6316V135.218Z" fill="#455A64"/>
    <path d="M81.2242 137.946H67.7773V139.046H81.2242V137.946Z" fill="#DBDBDB"/>
    <path d="M59.8346 149.554L68.9193 149.497L77.9993 149.479L96.1594 149.437L114.319 149.479L123.404 149.497L132.484 149.554L123.404 149.615L114.319 149.633L96.1594 149.671L77.9993 149.633L68.9193 149.61L59.8346 149.554Z" fill="#DBDBDB"/>
    <path d="M64.1079 159.219C63.6034 159.532 63.0128 159.677 62.4207 159.633C61.8286 159.59 61.2655 159.36 60.8124 158.976C60.3593 158.592 60.0395 158.075 59.8988 157.498C59.7581 156.921 59.8038 156.315 60.0294 155.766C60.255 155.216 60.6488 154.753 61.1543 154.442C61.6598 154.13 62.251 153.987 62.8429 154.033C63.4349 154.078 63.9971 154.31 64.4489 154.696C64.9007 155.081 65.2188 155.599 65.3576 156.176C65.4955 156.751 65.449 157.354 65.2247 157.9C65.0003 158.446 64.6096 158.907 64.1079 159.219Z" fill="#DBDBDB"/>
    <path d="M63.4901 156.518C63.4901 156.687 63.4401 156.851 63.3465 156.991C63.2529 157.131 63.1199 157.241 62.9642 157.305C62.8085 157.37 62.6373 157.386 62.472 157.354C62.3068 157.321 62.155 157.24 62.0359 157.12C61.9167 157.001 61.8356 156.85 61.8027 156.684C61.7699 156.519 61.7867 156.348 61.8512 156.192C61.9157 156.036 62.0249 155.903 62.165 155.81C62.305 155.716 62.4697 155.666 62.6382 155.666C62.8641 155.666 63.0808 155.756 63.2406 155.916C63.4003 156.076 63.4901 156.292 63.4901 156.518Z" fill="white"/>
    <path d="M64.1079 158.868V159.219C63.6667 159.495 63.1566 159.642 62.6359 159.642C62.1152 159.642 61.605 159.495 61.1639 159.219V158.868C61.1851 158.492 61.3494 158.138 61.6231 157.879C61.8969 157.621 62.2592 157.476 62.6359 157.476C63.0125 157.476 63.3749 157.621 63.6486 157.879C63.9223 158.138 64.0867 158.492 64.1079 158.868Z" fill="white"/>
    <path d="M131.309 155.006C131.336 155.002 131.364 155.004 131.39 155.011C131.416 155.018 131.44 155.031 131.46 155.049C131.481 155.066 131.498 155.088 131.509 155.113C131.52 155.137 131.526 155.164 131.526 155.191C131.526 155.218 131.52 155.245 131.509 155.27C131.498 155.294 131.481 155.316 131.46 155.334C131.44 155.351 131.416 155.364 131.39 155.371C131.364 155.379 131.336 155.38 131.309 155.376C131.265 155.369 131.225 155.347 131.197 155.313C131.168 155.279 131.152 155.236 131.152 155.191C131.152 155.147 131.168 155.104 131.197 155.07C131.225 155.036 131.265 155.013 131.309 155.006Z" fill="black"/>
    <path d="M131.866 155.006C131.893 155.002 131.92 155.004 131.947 155.011C131.973 155.018 131.997 155.031 132.017 155.049C132.038 155.066 132.055 155.088 132.066 155.113C132.077 155.137 132.083 155.164 132.083 155.191C132.083 155.218 132.077 155.245 132.066 155.27C132.055 155.294 132.038 155.316 132.017 155.334C131.997 155.351 131.973 155.364 131.947 155.371C131.92 155.379 131.893 155.38 131.866 155.376C131.822 155.369 131.782 155.347 131.753 155.313C131.725 155.279 131.709 155.236 131.709 155.191C131.709 155.147 131.725 155.104 131.753 155.07C131.782 155.036 131.822 155.013 131.866 155.006Z" fill="black"/>
    <path d="M132.437 155.006C132.464 155.002 132.492 155.004 132.518 155.011C132.544 155.018 132.568 155.031 132.588 155.049C132.609 155.066 132.626 155.088 132.637 155.113C132.648 155.137 132.654 155.164 132.654 155.191C132.654 155.218 132.648 155.245 132.637 155.27C132.626 155.294 132.609 155.316 132.588 155.334C132.568 155.351 132.544 155.364 132.518 155.371C132.492 155.379 132.464 155.38 132.437 155.376C132.393 155.369 132.353 155.347 132.325 155.313C132.296 155.279 132.28 155.236 132.28 155.191C132.28 155.147 132.296 155.104 132.325 155.07C132.353 155.036 132.393 155.013 132.437 155.006Z" fill="black"/>
    <path d="M76.7169 162.738L83.0121 162.654L88.2214 162.607L98.6307 162.565L103.592 162.603L108.797 162.654L114.001 162.738L108.797 162.823L103.592 162.874L98.6307 162.912L88.2214 162.874L83.0121 162.823L76.7169 162.738Z" fill="#263238"/>
    <path d="M76.7169 164.33C79.6562 164.26 83.8639 164.227 86.8032 164.199L95.6165 164.157L104.434 164.199L106.906 164.33L104.434 164.466L95.6165 164.508L86.8032 164.466C83.8639 164.428 79.6562 164.428 76.7169 164.33Z" fill="#263238"/>
    <path d="M84.6316 154.698H67.7773V156.518H84.6316V154.698Z" fill="#455A64"/>
    <path d="M81.2242 157.431H67.7773V158.531H81.2242V157.431Z" fill="#DBDBDB"/>
    <path d="M59.8346 173.78H74.4329V162.565H59.8346V173.78Z" fill="#51B5B7"/>
    <path opacity="0.2" d="M61.4072 165.196C61.3535 165.47 61.3892 165.753 61.5092 166.006C61.6291 166.258 61.827 166.464 62.0734 166.595C62.3199 166.726 62.602 166.775 62.878 166.733C63.154 166.691 63.4093 166.562 63.6062 166.364C63.8031 166.166 63.9312 165.911 63.9715 165.634C64.0119 165.358 63.9623 165.076 63.8302 164.83C63.6981 164.585 63.4904 164.388 63.2379 164.269C62.9853 164.15 62.7012 164.116 62.4276 164.171C62.1752 164.221 61.9435 164.346 61.7619 164.528C61.5802 164.711 61.4568 164.943 61.4072 165.196Z" fill="black"/>
    <path opacity="0.2" d="M63.8832 171.411H74.4329L69.158 165.5L63.8832 171.411Z" fill="black"/>
    <path d="M59.8346 171.416H68.5449L64.1921 167.564L59.8346 171.416Z" fill="#51B5B7"/>
    <path opacity="0.3" d="M59.8346 171.416H68.5449L64.1921 167.564L59.8346 171.416Z" fill="black"/>
    <path d="M74.4375 171.411H59.8393V173.78H74.4375V171.411Z" fill="#51B5B7"/>
    <path opacity="0.3" d="M74.4375 171.411H59.8393V173.78H74.4375V171.411Z" fill="black"/>
    <path d="M111.141 86.3258C106.651 89.0989 101.477 90.5677 96.1991 90.5677C90.9212 90.5677 85.7475 89.0989 81.2569 86.3258C75.9988 83.075 71.9443 78.1982 69.7082 72.4349C67.4722 66.6717 67.1766 60.3364 68.8664 54.39C70.5561 48.4436 74.1389 43.2105 79.0715 39.4843C84.0041 35.758 90.0173 33.7421 96.1991 33.7421C102.381 33.7421 108.394 35.758 113.327 39.4843C118.259 43.2105 121.842 48.4436 123.532 54.39C125.222 60.3364 124.926 66.6717 122.69 72.4349C120.454 78.1982 116.399 83.075 111.141 86.3258Z" fill="#A6A6A6"/>
    <path d="M95.0501 55.5942C105.59 61.7958 119.388 65.8209 122.814 63.6539C126.24 61.4869 131.707 43.968 131.277 39.8071C131.099 38.0098 118.888 37.0503 117.671 38.5434C116.454 40.0364 115.153 50.661 114.493 51.6486C114.025 52.36 103.236 50.6423 96.487 49.9636C92.181 49.5237 89.4898 52.3226 95.0501 55.5942Z" fill="#E3BCB7"/>
    <path d="M131.141 42.18C131.557 40.3828 133.013 31.0874 132.807 28.677C132.601 26.2666 131.548 19.3723 129.69 19.3162C127.832 19.26 127.977 21.3194 127.977 21.3194C127.977 21.3194 127.069 18.4784 125.192 18.6141C123.315 18.7498 123.652 21.8904 123.652 21.8904C123.652 21.8904 122.506 19.0447 120.643 19.3068C118.78 19.5689 119.655 22.7048 119.655 22.7048C119.655 22.7048 118.719 20.051 117.287 20.9169C115.55 21.9559 117.811 26.6551 117.83 29.3416C117.83 29.9501 117.02 41.6652 117.02 41.6652L131.141 42.18Z" fill="#E3BCB7"/>
    <path d="M119.608 22.4801C121.265 25.9389 121.392 27.7362 120.952 31.4852C120.952 31.5601 121.05 31.5882 121.064 31.5133C121.831 27.8813 122 25.6019 119.772 22.3912C119.641 22.232 119.505 22.3116 119.608 22.4801Z" fill="#263238"/>
    <path d="M123.516 21.6751C124.921 25.4195 125.075 27.3712 124.921 31.3308C124.921 31.3445 124.926 31.3576 124.936 31.3672C124.945 31.3769 124.958 31.3823 124.972 31.3823C124.986 31.3823 124.999 31.3769 125.008 31.3672C125.018 31.3576 125.024 31.3445 125.024 31.3308C125.515 27.4601 125.632 25.1808 123.736 21.6236C123.629 21.4598 123.451 21.4926 123.516 21.6751Z" fill="#263238"/>
    <path d="M127.963 21.5393C129.063 25.2837 129.325 27.3945 128.66 31.2184C128.656 31.2371 128.659 31.2566 128.669 31.2729C128.679 31.2891 128.695 31.3007 128.714 31.305C128.733 31.3094 128.752 31.3061 128.769 31.296C128.785 31.286 128.796 31.2698 128.801 31.2512C129.854 27.4179 129.55 24.7548 128.08 21.5206C127.982 21.2959 127.893 21.3053 127.963 21.5393Z" fill="#263238"/>
    <path d="M116.697 44.0896C116.697 44.0896 113.856 40.2142 112.986 38.2344C112.115 36.2546 111.581 27.6894 113.421 27.4694C115.803 27.1839 117.086 32.0656 117.399 34.5415C117.399 34.5415 122.908 33.8769 124.588 37.186C126.269 40.495 116.697 44.0896 116.697 44.0896Z" fill="#E3BCB7"/>
    <path d="M114.099 27.6052C116.44 28.911 116.664 32.1873 117.151 34.565C117.157 34.6 117.172 34.633 117.193 34.6614C117.214 34.6898 117.242 34.7127 117.274 34.7283C117.306 34.7438 117.341 34.7515 117.377 34.7508C117.413 34.7501 117.447 34.7409 117.479 34.7241C119.819 34.5977 123.123 35.0985 124.635 37.0643C124.644 37.075 124.656 37.0821 124.67 37.0842C124.684 37.0863 124.698 37.0833 124.709 37.0758C124.721 37.0683 124.729 37.0567 124.733 37.0434C124.736 37.03 124.735 37.0158 124.729 37.0035C123.39 34.7007 120.17 33.9425 117.633 34.242C117.165 31.7941 116.819 28.5178 114.114 27.6052C114.095 27.5771 114.085 27.5958 114.099 27.6052Z" fill="#263238"/>
    <path d="M111.371 64.9456L114.249 50.9043C114.249 50.9043 103.288 49.093 96.5619 49.2007C89.8361 49.3083 87.6129 51.9013 96.0564 56.9468C100.994 59.921 106.109 62.5923 111.371 64.9456Z" fill="#455A64"/>
    <path d="M111.53 51.1197C110.962 53.0511 110.444 54.9982 109.976 56.9608C109.747 57.925 109.508 58.8892 109.288 59.8627C109.068 60.8362 108.918 61.8846 108.694 62.8862C108.694 62.9565 108.787 62.9892 108.806 62.919C109.054 61.9595 109.368 61.0141 109.625 60.0546C109.882 59.0951 110.093 58.0654 110.35 57.0732C110.822 55.1074 111.244 53.1307 111.619 51.1431C111.62 51.1322 111.617 51.1214 111.61 51.1125C111.604 51.1037 111.595 51.0973 111.584 51.0946C111.573 51.0918 111.562 51.0928 111.552 51.0974C111.543 51.1019 111.535 51.1098 111.53 51.1197Z" fill="#263238"/>
    <path d="M108.928 87.5288C107.13 88.4388 105.239 89.1498 103.288 89.649L102.885 89.752C102.632 89.8175 102.37 89.8736 102.118 89.9298C98.1619 90.7889 94.0679 90.7889 90.1123 89.9298C89.7285 89.8456 89.3447 89.752 88.9656 89.649C86.6895 89.0562 84.4974 88.1788 82.441 87.0373C82.2772 86.9531 82.1181 86.8641 81.973 86.7658C81.7202 86.6208 81.4675 86.4663 81.2101 86.2978C80.1593 85.6469 79.1524 84.9277 78.1959 84.1448C78.0789 84.0606 77.9665 83.9669 77.8542 83.8687C76.8944 83.0603 75.9891 82.1894 75.1443 81.2617L74.8915 80.9855C74.4141 80.4457 73.957 79.8887 73.5201 79.3146C73.595 79.0057 73.6746 78.6968 73.7495 78.3785C73.7776 78.2896 73.7963 78.196 73.8197 78.1071C74.0397 77.2552 74.2877 76.3893 74.5218 75.4954C74.5452 75.4018 74.5779 75.3128 74.6013 75.2145C74.8447 74.3674 75.1021 73.4921 75.3876 72.6169C75.4095 72.5233 75.4376 72.4297 75.4719 72.3361C75.748 71.4796 76.0382 70.6043 76.3471 69.7244C76.3752 69.6402 76.4126 69.5466 76.4454 69.4529C76.7543 68.5917 77.0726 67.7212 77.4143 66.8459C77.447 66.7617 77.4798 66.6728 77.5172 66.5838C77.8589 65.7133 78.224 64.8521 78.6031 63.9815C78.6405 63.8832 78.6827 63.7943 78.7248 63.7007C79.1132 62.8255 79.5204 61.9596 79.9464 61.0937C79.9838 61.0095 80.0259 60.9205 80.0681 60.841C80.5049 59.961 80.962 59.092 81.4394 58.234C81.4585 58.1919 81.4803 58.1513 81.5049 58.1123L81.5986 57.9485C82.0947 57.0685 82.6142 56.198 83.1618 55.3508C83.218 55.2572 83.2788 55.1636 83.3397 55.07C83.9154 54.1807 84.5238 53.3101 85.1557 52.4677C85.2002 52.3979 85.2487 52.3307 85.3008 52.2664L85.3616 52.1915C85.9186 51.452 86.5036 50.7266 87.1074 50.0338C87.2525 49.8672 87.4088 49.7108 87.5755 49.5658L87.6457 49.5096C87.7299 49.4441 87.8095 49.3833 87.9031 49.3224C87.9184 49.3088 87.9358 49.2978 87.9546 49.2897C90.819 47.38 96.2764 48.1476 96.9738 49.1633C97.005 49.2032 97.0332 49.2454 97.058 49.2897L97.1516 49.4254C97.7292 50.3112 98.2543 51.2302 98.7242 52.1775C99.1923 53.0668 99.6135 54.0497 100.044 55.056C100.433 55.9686 100.807 56.9281 101.177 57.925C101.177 57.9765 101.214 58.0233 101.228 58.0701C101.25 58.115 101.268 58.1621 101.28 58.2106C101.626 59.1466 101.963 60.0827 102.295 61.0843C102.576 61.9409 102.862 62.8114 103.129 63.6913C103.157 63.7896 103.189 63.8739 103.217 63.9722C103.498 64.8755 103.774 65.7928 104.037 66.7102C104.046 66.7577 104.059 66.8046 104.074 66.8506C104.331 67.7212 104.57 68.5917 104.809 69.4576C104.809 69.5372 104.842 69.6074 104.865 69.6823C105.108 70.5762 105.333 71.4655 105.562 72.3408L105.637 72.6216C105.862 73.4968 106.077 74.3674 106.283 75.2192C106.283 75.2473 106.283 75.2707 106.283 75.2941C106.283 75.3175 106.316 75.4298 106.33 75.5001C106.545 76.3893 106.751 77.2599 106.948 78.1117C107.172 79.104 107.388 80.0681 107.584 80.9902C107.608 81.0885 107.626 81.1774 107.645 81.2663C107.846 82.2024 108.038 83.1011 108.211 83.9529C108.211 84.0184 108.211 84.084 108.249 84.1495C108.45 85.1464 108.628 86.0685 108.782 86.8969C108.782 86.9437 108.782 86.9858 108.806 87.0279L108.928 87.5288Z" fill="#51B5B7"/>
    <path opacity="0.1" d="M88.9656 89.6489C89.3447 89.7519 89.7285 89.8455 90.1123 89.9297H102.118C102.37 89.8736 102.632 89.8174 102.885 89.7519L103.288 89.6489H88.9656ZM108.843 86.9062C108.843 86.8594 108.82 86.8126 108.811 86.7658H81.9543C82.1181 86.8641 82.2773 86.953 82.4223 87.0372H108.843C108.843 86.9951 108.843 86.953 108.843 86.9062ZM108.272 83.9622C108.263 83.9361 108.255 83.9096 108.249 83.8826H77.8355C77.9479 83.9809 78.0602 84.0745 78.1772 84.1588H108.286C108.272 84.0932 108.258 84.0277 108.249 83.9622H108.272ZM107.645 80.9995H74.8822L75.1349 81.2756H107.692C107.664 81.1867 107.645 81.1165 107.622 80.9995H107.645ZM73.127 80.9995C73.1226 81.0471 73.1132 81.0942 73.0989 81.1399C73.0989 81.0931 73.0989 81.0463 73.1317 80.9995H73.127ZM106.971 78.121H73.7963C73.7963 78.21 73.7542 78.3036 73.7308 78.3925H107.041L106.971 78.121ZM106.307 75.3128C106.307 75.2894 106.307 75.266 106.307 75.2379H74.5826C74.5592 75.3362 74.5265 75.4251 74.5031 75.5187H106.372C106.353 75.4438 106.339 75.3783 106.321 75.3034L106.307 75.3128ZM105.567 72.3501H75.4579C75.4225 72.4418 75.3928 72.5355 75.3689 72.6309H105.656L105.567 72.3501ZM104.87 69.6916C104.846 69.6167 104.832 69.5465 104.814 69.4669H76.4314C76.3986 69.5605 76.3612 69.6541 76.3284 69.7384H104.879C104.878 69.7226 104.88 69.7069 104.884 69.6916H104.87ZM104.041 66.7195L103.999 66.5838H77.5126C77.4751 66.6727 77.4424 66.7616 77.4049 66.8459H104.083C104.072 66.8043 104.062 66.7621 104.055 66.7195H104.041ZM103.133 63.7006H78.7201C78.678 63.7942 78.6359 63.8832 78.5984 63.9815H103.227C103.227 63.8832 103.175 63.7989 103.147 63.7006H103.133ZM102.197 60.8222H80.0728C80.0306 60.9017 79.9885 60.9907 79.9511 61.0749H102.324C102.283 60.9928 102.247 60.9084 102.216 60.8222H102.197ZM101.228 58.0748C101.228 58.0279 101.196 57.9811 101.177 57.9297H81.6033L81.5143 58.0935C81.4897 58.1325 81.4678 58.1732 81.4488 58.2152H101.299C101.286 58.1667 101.269 58.1196 101.247 58.0748H101.228ZM100.044 55.0606H83.3397C83.2835 55.1542 83.2227 55.2478 83.1712 55.3414H100.171C100.138 55.2431 100.096 55.1495 100.063 55.0606H100.044ZM98.7196 52.1727H85.371L85.3102 52.2476C85.2581 52.3119 85.2096 52.3791 85.1651 52.4489H98.8694C98.8226 52.3553 98.7804 52.2617 98.7383 52.1727H98.7196ZM97.147 49.4206L97.0534 49.2849H87.964C87.9452 49.293 87.9278 49.3041 87.9125 49.3177C87.8189 49.3785 87.7393 49.4394 87.6551 49.5049L87.5849 49.5611H97.2546C97.2212 49.5167 97.1915 49.4698 97.1657 49.4206H97.147Z" fill="black"/>
    <path d="M96.4449 56.6707C94.2357 57.0685 90.6692 53.5348 89.3306 50.7546C89.2417 50.5674 89.6302 48.6297 89.9859 46.252C90.2012 44.8105 90.4024 43.1957 90.482 41.712L99.6697 44.4688C99.0395 46.2957 98.6355 48.1929 98.4668 50.1181C98.4609 50.323 98.4719 50.5281 98.4996 50.7312C98.5023 50.7639 98.5023 50.7968 98.4996 50.8295C98.6353 51.9996 98.5791 56.2822 96.4449 56.6707Z" fill="#E3BCB7"/>
    <path d="M98.5136 50.8295C98.5136 50.895 98.5136 50.9652 98.5136 51.0448C92.9299 49.8653 91.2075 47.0384 90.2199 44.436C90.3322 43.5234 90.4258 42.5966 90.468 41.712L99.6556 44.4641C99.0258 46.2925 98.6234 48.1914 98.4575 50.1181C98.4468 50.323 98.4578 50.5286 98.4902 50.7312C98.4939 50.7648 98.5017 50.7979 98.5136 50.8295Z" fill="#263238"/>
    <path d="M88.3758 31.0828C87.3508 34.3825 89.0545 43.9399 91.3994 46.0601C94.7927 49.1586 100.372 49.4768 103.012 45.3955C105.572 41.4359 103.129 29.014 100.512 27.0763C96.6742 24.2259 89.8876 26.2058 88.3758 31.0828Z" fill="#E3BCB7"/>
    <path d="M96.2062 37.1205C96.2062 37.1205 96.1594 37.1626 96.1641 37.186C96.2951 37.8272 96.3419 38.5901 95.7943 38.899C95.7943 38.899 95.7943 38.9412 95.7943 38.9318C96.5198 38.6884 96.4496 37.6821 96.2062 37.1205Z" fill="#263238"/>
    <path d="M95.5322 36.526C94.4791 36.6243 94.7599 38.7165 95.7334 38.6229C96.7069 38.5293 96.4121 36.4418 95.5322 36.526Z" fill="#263238"/>
    <path d="M100.231 36.5027C100.231 36.4746 100.288 36.5027 100.292 36.5495C100.358 37.2 100.54 37.9536 101.158 38.0753C101.158 38.0753 101.158 38.1127 101.158 38.108C100.419 38.1034 100.189 37.1205 100.231 36.5027Z" fill="#263238"/>
    <path d="M100.723 35.7491C101.752 35.5291 102.127 37.6213 101.158 37.8085C100.189 37.9957 99.8569 35.9316 100.723 35.7491Z" fill="#263238"/>
    <path d="M94.5774 35.679C94.8417 35.562 95.0995 35.4308 95.3496 35.2858C95.641 35.1848 95.891 34.9907 96.0611 34.7335C96.095 34.6424 96.0997 34.5429 96.0746 34.449C96.0494 34.355 95.9956 34.2713 95.9206 34.2093C95.7478 34.1133 95.5522 34.0656 95.3545 34.0714C95.1568 34.0772 94.9643 34.1361 94.7973 34.2421C94.4282 34.403 94.1315 34.6947 93.9642 35.0611C93.9266 35.1471 93.9157 35.2424 93.9329 35.3346C93.9502 35.4269 93.9947 35.5118 94.0608 35.5784C94.1269 35.645 94.2115 35.6902 94.3036 35.7082C94.3957 35.7261 94.4911 35.7159 94.5774 35.679Z" fill="#263238"/>
    <path d="M101.392 34.5837C101.103 34.5661 100.816 34.5317 100.531 34.4807C100.222 34.4891 99.92 34.3917 99.6744 34.2046C99.6109 34.1303 99.5722 34.038 99.5638 33.9406C99.5554 33.8433 99.5777 33.7457 99.6276 33.6616C99.7571 33.5134 99.9239 33.4027 100.111 33.3409C100.298 33.2792 100.498 33.2687 100.69 33.3106C101.091 33.3297 101.471 33.4964 101.757 33.7787C101.827 33.8457 101.875 33.9329 101.894 34.0283C101.912 34.1236 101.901 34.2224 101.861 34.3109C101.82 34.3993 101.754 34.4731 101.67 34.522C101.586 34.5709 101.489 34.5925 101.392 34.5837Z" fill="#263238"/>
    <path d="M97.3107 40.9958C97.509 41.2301 97.7535 41.4208 98.029 41.5561C98.3044 41.6915 98.6049 41.7684 98.9114 41.7821C99.1802 41.7986 99.45 41.7749 99.7118 41.7119C99.7628 41.7044 99.813 41.6919 99.8616 41.6745L99.9973 41.6324C100.031 41.6214 100.059 41.6 100.08 41.5713C100.1 41.5427 100.11 41.5083 100.11 41.4732C100.113 41.4515 100.113 41.4294 100.11 41.4077V41.3515C100.053 40.8507 99.9037 40.1019 99.9037 40.1019C100.1 40.1674 101.083 40.4623 101.036 40.2048C100.62 38.0612 100.156 35.6835 99.2906 33.6522C99.2856 33.6375 99.2751 33.6252 99.2613 33.618C99.2476 33.6107 99.2315 33.609 99.2165 33.6132C99.2016 33.6174 99.1887 33.6272 99.1807 33.6405C99.1727 33.6539 99.1702 33.6698 99.1735 33.685C99.4918 35.7584 100.175 37.7617 100.526 39.8398C100.176 39.7301 99.812 39.6702 99.445 39.6619C99.3748 39.69 99.7586 41.1128 99.7633 41.3375C99.7662 41.345 99.7662 41.3534 99.7633 41.3609C98.9395 41.5809 98.2749 41.4124 97.3856 40.9584C97.3061 40.8975 97.2639 40.949 97.3107 40.9958Z" fill="#263238"/>
    <path d="M99.3186 41.5247C99.1064 41.8852 98.805 42.185 98.4434 42.3953C98.2427 42.5022 98.0134 42.5432 97.7882 42.5123C97.292 42.4468 97.2265 42.0115 97.2686 41.623C97.2956 41.4187 97.3442 41.2179 97.4137 41.0239C97.9783 41.3914 98.6463 41.5671 99.3186 41.5247Z" fill="#263238"/>
    <path d="M98.4434 42.3954C98.2427 42.5023 98.0134 42.5433 97.7882 42.5124C97.292 42.4469 97.2265 42.0116 97.2686 41.6231C97.5227 41.6015 97.7766 41.6659 97.9896 41.806C98.2027 41.946 98.3625 42.1536 98.4434 42.3954Z" fill="#FF9CBD"/>
    <path opacity="0.2" d="M88.3946 37.6354C88.9936 37.2797 90.0093 35.1454 90.4586 34.2702C90.9079 33.3949 90.5569 29.3276 90.4165 28.1248C89.4631 28.9069 88.7548 29.9467 88.3758 31.1202C87.9359 32.4916 87.9967 35.0518 88.3946 37.6354Z" fill="#263238"/>
    <path d="M98.5791 30.5023C98.2863 30.9527 97.8832 31.3208 97.408 31.5715C96.9329 31.8221 96.4015 31.9471 95.8645 31.9346C95.3176 31.9219 94.7831 31.77 94.3113 31.4932C93.8396 31.2164 93.4463 30.8238 93.1685 30.3526C93.1685 30.3245 93.1077 30.3526 93.1217 30.3526C93.3701 30.8741 93.7557 31.3182 94.2372 31.6373C94.7187 31.9564 95.278 32.1385 95.8551 32.1639C96.4264 32.1616 96.987 32.0085 97.4801 31.72C97.9732 31.4316 98.3814 31.018 98.6634 30.5211C98.668 30.5023 98.6072 30.4602 98.5791 30.5023Z" fill="#263238"/>
    <path d="M94.334 23.2197C92.5274 23.4958 90.9969 24.7127 90.4961 26.0279C90.2162 26.7805 90.2014 27.606 90.454 28.3681C90.454 28.4009 90.5288 28.3681 90.5195 28.3681C90.3929 27.6849 90.4525 26.9802 90.6922 26.3279C90.9318 25.6757 91.3426 25.1 91.8815 24.6612C92.4664 24.1527 93.1618 23.7873 93.9124 23.5939C94.663 23.4006 95.4483 23.3846 96.2062 23.5473C96.9447 23.6913 97.6081 24.0927 98.0784 24.68C98.1205 24.7408 98.2515 24.68 98.2141 24.6191C97.5682 23.5473 95.9769 22.9716 94.334 23.2197Z" fill="#263238"/>
    <path d="M105.361 25.7752C104.948 24.9214 104.247 24.2403 103.381 23.8515C102.183 23.3086 100.943 23.5754 99.7118 23.8515C99.7068 23.8537 99.7025 23.8573 99.6995 23.8619C99.6965 23.8665 99.6949 23.8718 99.6949 23.8773C99.6949 23.8827 99.6965 23.8881 99.6995 23.8927C99.7025 23.8972 99.7068 23.9008 99.7118 23.903C100.756 23.6643 101.832 23.4771 102.871 23.8515C103.731 24.1536 104.461 24.744 104.935 25.5224C105.396 26.3263 105.552 27.2695 105.374 28.1791C105.196 29.0887 104.697 29.9036 103.966 30.4743C103.538 30.7927 103.05 31.02 102.53 31.1423C102.011 31.2647 101.473 31.2795 100.947 31.1858C100.905 31.1858 100.887 31.2372 100.947 31.2466C101.895 31.4442 102.882 31.2893 103.724 30.8111C104.566 30.3329 105.205 29.5642 105.52 28.649C105.823 27.7041 105.766 26.6809 105.361 25.7752Z" fill="#263238"/>
    <path d="M88.0623 33.0157C88.0623 33.0157 85.9373 29.9922 87.1262 27.9375C87.8095 26.7767 90.5288 26.5755 90.5288 26.5755C91.1142 25.4116 92.1378 24.5278 93.3745 24.1182C95.5743 23.3179 98.4247 24.3008 98.4247 24.3008C98.4247 24.3008 100.419 22.803 102.572 23.7017C105.576 24.9514 105.764 29.2667 103.115 30.9938C101.242 32.206 98.3405 30.7925 98.3405 30.7925C98.0877 30.8581 95.6352 32.7864 93.3371 30.6755C93.3371 30.6755 91.8908 32.3277 90.2995 31.4946C90.1254 31.9455 89.818 32.3326 89.4183 32.6044C89.0186 32.8761 88.5456 33.0196 88.0623 33.0157Z" fill="#263238"/>
    <path d="M90.3837 38.8709C90.3837 38.8709 88.1746 35.8193 86.7845 36.6103C85.3944 37.4013 87.0934 41.8524 88.7456 42.4374C88.9527 42.5276 89.1759 42.5748 89.4018 42.5762C89.6276 42.5777 89.8515 42.5333 90.0597 42.4458C90.2679 42.3583 90.4563 42.2295 90.6133 42.0672C90.7704 41.9048 90.8929 41.7124 90.9735 41.5013L90.3837 38.8709Z" fill="#E3BCB7"/>
    <path d="M87.3133 37.874C87.3071 37.874 87.3012 37.8765 87.2968 37.8809C87.2924 37.8853 87.2899 37.8912 87.2899 37.8974C87.2899 37.9036 87.2924 37.9096 87.2968 37.914C87.3012 37.9184 87.3071 37.9208 87.3133 37.9208C88.4741 38.3889 89.1012 39.4279 89.5412 40.5278C89.471 40.4123 89.3767 40.3133 89.2646 40.2377C89.1525 40.162 89.0254 40.1116 88.892 40.0898C88.7585 40.068 88.622 40.0754 88.4916 40.1114C88.3613 40.1474 88.2404 40.2112 88.1371 40.2985C88.1324 40.3042 88.1296 40.3112 88.1289 40.3186C88.1282 40.3259 88.1297 40.3333 88.1332 40.3398C88.1367 40.3463 88.142 40.3517 88.1486 40.3551C88.1551 40.3586 88.1625 40.3601 88.1698 40.3593C88.3714 40.2912 88.5892 40.2874 88.793 40.3487C88.9968 40.4099 89.1765 40.533 89.3072 40.701C89.5237 40.9836 89.7104 41.2879 89.8642 41.609C89.9203 41.712 90.1029 41.6511 90.0654 41.5341C90.0634 41.5249 90.0634 41.5153 90.0654 41.506C90.0607 40.0364 88.8859 37.9957 87.3133 37.874Z" fill="#263238"/>
    <path d="M83.3162 51.8451C73.3142 61.1451 60.3822 81.0556 62.4509 85.2961C64.7537 90.0187 78.6826 76.9743 78.6639 76.1786C78.6639 75.5749 83.8826 64.5946 87.8282 55.7205C91.7738 46.8464 85.7875 49.547 83.3162 51.8451Z" fill="#E3BCB7"/>
    <path d="M62.4509 85.2961C64.4729 88.4741 70.3187 89.3166 84.8374 92.8129C86.8453 93.2809 94.0812 80.04 91.961 79.4128C89.2932 78.6218 78.7622 76.1365 77.9712 76.0476C71.2829 75.3315 61.0749 83.1384 62.4509 85.2961Z" fill="#E3BCB7"/>
    <path d="M87.1402 78.8887C87.1402 78.8887 93.0329 78.8185 96.1407 79.7452C100.302 80.9808 103.386 83.761 104.608 85.0013C107.158 87.5989 111.535 95.6352 109.438 97.2968C107.566 98.8039 103.489 90.3604 103.489 90.3604C103.489 90.3604 109.04 98.289 106.424 99.6791C103.807 101.069 99.6557 91.0063 99.6557 91.0063C99.6557 91.0063 105.183 99.2766 102.258 100.288C100.044 101.05 95.7709 92.1436 95.7709 92.1436C95.7709 92.1436 100.475 99.286 98.2328 100.166C95.7569 101.144 91.2964 93.1686 91.2964 93.1686C85.2119 94.4558 81.8092 92.5836 79.5345 90.9642C78.9869 90.571 87.1402 78.8887 87.1402 78.8887Z" fill="#E3BCB7"/>
    <path d="M101.743 87.5006C102.426 88.4039 103.147 89.3212 103.732 90.3088C104.317 91.2964 104.902 92.2605 105.417 93.2762C106.107 94.594 106.647 95.985 107.027 97.4231C106.171 94.919 104.065 91.4321 103.461 90.4633C102.857 89.4944 102.305 88.5068 101.706 87.5427C101.687 87.4959 101.724 87.4772 101.743 87.5006Z" fill="#263238"/>
    <path d="M98.214 89.6115C99.0425 90.8097 99.9083 91.9517 100.681 93.2014C101.453 94.451 102.085 95.6586 102.754 96.9457C102.81 97.044 102.754 97.0393 102.679 96.9457C101.949 95.696 101.172 94.6055 100.423 93.3558C99.6743 92.1061 98.9769 90.8471 98.1859 89.6396C98.1719 89.6115 98.2047 89.5974 98.214 89.6115Z" fill="#263238"/>
    <path d="M94.8628 90.8846C96.1748 92.6899 97.2978 94.6253 98.214 96.6602C98.2608 96.7585 98.1719 96.7445 98.1157 96.6602C97.0392 94.6898 96.2061 93.1733 94.802 90.9454C94.802 90.8986 94.8348 90.8471 94.8628 90.8846Z" fill="#263238"/>
    <path d="M69.7149 78.0602C72.3392 76.3402 75.5039 75.644 78.6077 76.1038C78.6452 76.1038 78.6452 76.174 78.6077 76.1693C75.3923 75.94 70.9786 77.4377 69.7149 78.1164C69.7056 78.1351 69.6822 78.0836 69.7149 78.0602Z" fill="#263238"/>
    <path d="M68.9614 64.9082L81.3926 72.0131C81.3926 72.0131 86.5411 62.1608 88.5209 55.7346C90.5007 49.3084 88.7409 46.3737 81.3177 52.8468C76.9581 56.6129 72.8317 60.6408 68.9614 64.9082Z" fill="#455A64"/>
    <path d="M82.0526 69.3733C80.3926 68.2312 78.7045 67.1391 76.9883 66.097C76.1412 65.5774 75.2987 65.0439 74.4422 64.5384C73.5857 64.0329 72.6402 63.5555 71.7556 63.036C71.6948 62.9985 71.6293 63.0875 71.6901 63.1296C72.5232 63.6632 73.3236 64.2576 74.1567 64.7958C74.9898 65.3341 75.8931 65.877 76.7637 66.4152C78.4861 67.4793 80.2319 68.498 82.0011 69.4716C82.0526 69.4762 82.104 69.4154 82.0526 69.3733Z" fill="#263238"/>
    <path d="M80.8684 71.7135C81.0556 71.7977 81.2382 71.8773 81.4207 71.9662L81.3411 71.9896C81.6922 71.0816 82.09 70.2017 82.4738 69.3124C82.8576 68.4231 83.2882 67.5619 83.7188 66.6961C84.1494 65.8302 84.5847 64.969 85.0574 64.1218C85.5301 63.2747 85.9935 62.4275 86.513 61.6038C86.1807 62.5164 85.8016 63.4057 85.4084 64.2903C85.0153 65.1749 84.6081 66.0502 84.1868 66.9254C83.7656 67.8006 83.3256 68.6525 82.8716 69.509C82.4176 70.3655 81.9355 71.2127 81.4675 72.0411L81.4347 72.0926L81.3879 72.0645C81.196 71.9522 81.0322 71.8305 80.8684 71.7135Z" fill="#263238"/>
    <path d="M86.7564 63.3309C86.2347 64.1756 85.5171 64.8821 84.6642 65.3903C84.9233 64.9649 85.2381 64.5761 85.6003 64.2343C85.9452 63.8846 86.3337 63.581 86.7564 63.3309Z" fill="#263238"/>
    <path d="M158.241 83.0588C157.585 88.4132 153.162 93.0094 153.162 93.0094C153.162 93.0094 146.834 92.195 142.973 88.4319C139.753 85.2913 139.5 80.7654 142.154 78.8183C145.959 76.01 149.643 83.0635 149.643 83.0635C149.643 83.0635 148.159 75.2659 152.863 75.0318C156.148 74.9055 158.788 78.5936 158.241 83.0588Z" fill="#E27B14"/>
    <path d="M161.302 61.0795C158.915 64.2528 154.407 65.5587 154.407 65.5587C154.407 65.5587 150.663 62.713 149.591 58.8937C148.692 55.711 150.195 52.7296 152.601 52.4628C156.05 52.0884 155.83 57.9296 155.83 57.9296C155.83 57.9296 157.726 52.3973 160.815 53.998C162.963 55.1119 163.291 58.4304 161.302 61.0795Z" fill="#51B5B7"/>
    <path d="M41.8524 56.7782C39.5402 60.003 35.0611 61.4118 35.0611 61.4118C35.0611 61.4118 31.2606 58.6551 30.0951 54.8592C29.1216 51.6953 30.5632 48.6811 32.9595 48.3628C36.3997 47.8948 36.3107 53.7546 36.3107 53.7546C36.3107 53.7546 38.0799 48.1803 41.2018 49.7061C43.3782 50.7873 43.7854 54.101 41.8524 56.7782Z" fill="url(#paint2_linear_211_841)"/>
    <defs>
        <linearGradient id="paint0_linear_211_841" x1="3.95407" y1="91.0688" x2="34.9957" y2="108.391" gradientUnits="userSpaceOnUse">
            <stop stop-color="#0E8149"/>
            <stop offset="1" stop-color="#88D3D6"/>
        </linearGradient>
        <linearGradient id="paint1_linear_211_841" x1="54.0206" y1="6.69083" x2="76.2043" y2="63.9406" gradientUnits="userSpaceOnUse">
            <stop stop-color="#0E8149"/>
            <stop offset="1" stop-color="#88D3D6"/>
        </linearGradient>
        <linearGradient id="paint2_linear_211_841" x1="36.4405" y1="56.4123" x2="28.2912" y2="46.3424" gradientUnits="userSpaceOnUse">
            <stop stop-color="#090653"/>
            <stop offset="1" stop-color="#140DB9"/>
        </linearGradient>
    </defs>
</svg>
