<svg width="34" height="37" viewBox="0 0 34 37" fill="none" xmlns="http://www.w3.org/2000/svg">
    <path d="M20.1184 14.5014C19.2541 14.5014 18.774 14.0692 18.6779 13.9252C18.4378 13.5891 18.0057 13.493 17.6696 13.7331C17.3335 13.9732 17.2375 14.4053 17.4775 14.7414C17.8617 15.3176 18.774 15.9418 20.1184 15.9418C21.6549 15.9418 22.8552 14.8855 22.8552 13.493C22.8552 12.4847 22.3271 11.9085 21.6549 11.4764C22.3751 11.0443 22.8552 10.324 22.8552 9.45976C22.8552 7.82724 21.4148 7.20304 20.3585 6.72289C19.2541 6.24274 18.774 5.95465 18.774 5.37846C18.774 4.89831 19.2541 4.37014 20.0704 4.37014C20.9346 4.37014 21.4148 4.80228 21.5108 4.94633C21.7509 5.28243 22.183 5.37846 22.5191 5.13839C22.8552 4.89831 22.9513 4.46617 22.7112 4.13007C22.3271 3.55389 21.4148 2.92969 20.0704 2.92969C18.5339 2.92969 17.3335 3.98602 17.3335 5.37846C17.3335 6.38678 17.8617 6.96297 18.5339 7.3951C17.8136 7.82724 17.3335 8.54747 17.3335 9.41174C17.3335 11.0443 18.774 11.6685 19.8303 12.1486C20.9346 12.6288 21.4148 12.9168 21.4148 13.493C21.4148 14.0212 20.9346 14.5014 20.1184 14.5014ZM18.822 9.50777C18.822 9.02762 19.3021 8.49945 20.1184 8.49945C20.4545 8.49945 20.7426 8.59548 20.9346 8.69151C20.9827 8.73953 21.0307 8.73953 21.0307 8.73953C21.2707 8.93159 21.3668 9.17166 21.3668 9.45976C21.3668 9.93991 20.8866 10.4681 20.0704 10.4681C19.7343 10.4681 19.4462 10.372 19.2541 10.276C19.2061 10.228 19.1581 10.228 19.1581 10.228C18.918 9.98792 18.822 9.79586 18.822 9.50777Z" fill="#039344"/>
    <path d="M26.6003 0H13.6362C13.2521 0 12.916 0.336106 12.916 0.720228V19.2061C12.916 19.4942 13.0601 19.7342 13.3001 19.8303C13.5402 19.9743 13.8283 19.9263 14.0204 19.7823L15.7969 18.6299L17.5735 19.7823C17.8136 19.9263 18.1497 19.9263 18.3897 19.7823L20.1663 18.6299L21.9429 19.7823C22.183 19.9263 22.5191 19.9263 22.7591 19.7823L24.5357 18.6299L26.3123 19.7823C26.4563 19.8783 26.5523 19.9263 26.6964 19.9263C26.7924 19.9263 26.9365 19.8783 27.0325 19.8303C27.2726 19.6862 27.4166 19.4462 27.4166 19.2061V0.720228C27.3206 0.336106 26.9845 0 26.6003 0ZM25.8801 17.8617L24.8238 17.1894C24.5837 17.0454 24.2476 17.0454 24.0075 17.1894L22.279 18.3418L20.5024 17.1894C20.3584 17.0934 20.2623 17.0454 20.1183 17.0454C19.9743 17.0454 19.8302 17.0934 19.7342 17.1894L17.9576 18.3418L16.181 17.1894C15.941 17.0454 15.6049 17.0454 15.3648 17.1894L14.3085 17.8617V1.44046H25.8321V17.8617H25.8801Z" fill="#039344"/>
    <path d="M33.3706 6.72213C32.9864 6.67411 32.6023 6.91419 32.5543 7.29831L30.2016 21.6068H9.93915L7.39434 2.68885C7.10625 1.05633 5.90587 0 4.32137 0H0.720228C0.336106 0 0 0.336106 0 0.720228C0 1.10435 0.336106 1.44046 0.720228 1.44046H4.32137C5.18564 1.44046 5.80984 2.01664 5.95389 2.92893L9.41098 29.0012C7.97052 29.4813 6.9622 30.8258 6.9622 32.4103C6.9622 34.3789 8.59472 36.0114 10.5633 36.0114C12.532 36.0114 14.1645 34.3789 14.1645 32.4103C14.1645 31.594 13.8764 30.8738 13.4443 30.2496H23.9596C23.5275 30.8738 23.2394 31.594 23.2394 32.4103C23.2394 34.3789 24.8719 36.0114 26.8405 36.0114C28.8091 36.0114 30.4416 34.3789 30.4416 32.4103C30.4416 30.4416 28.8571 28.8091 26.8405 28.8091H10.8995L10.1312 23.0473H30.8738C31.2099 23.0473 31.546 22.8072 31.594 22.4231L33.9948 7.53839C34.0428 7.15427 33.7547 6.81816 33.3706 6.72213ZM12.772 32.4103C12.772 33.6106 11.8117 34.5709 10.6114 34.5709C9.41098 34.5709 8.45068 33.6106 8.45068 32.4103C8.45068 31.2099 9.41098 30.2496 10.6114 30.2496C11.8117 30.2496 12.772 31.2099 12.772 32.4103ZM29.0012 32.4103C29.0012 33.6106 28.0409 34.5709 26.8405 34.5709C25.6401 34.5709 24.6798 33.6106 24.6798 32.4103C24.6798 31.2099 25.6401 30.2496 26.8405 30.2496C28.0409 30.2496 29.0012 31.2099 29.0012 32.4103Z" fill="#039344"/>
</svg>
